SplineFontDB: 3.2
FontName: guz5m
FullName: guz5m
FamilyName: guz5m
Weight: Regular
Copyright: Copyright 2022 The Noto Project Authors (https://github.com/notofonts/gujarati)
Version: 2.102
ItalicAngle: 0
UnderlinePosition: -125
UnderlineWidth: 50
Ascent: 800
Descent: 200
InvalidEm: 0
sfntRevision: 0x00021a1d
LayerCount: 2
Layer: 0 1 "Back" 1
Layer: 1 1 "Fore" 0
XUID: [1021 467 -1121320856 7870834]
StyleMap: 0x0040
FSType: 0
OS2Version: 4
OS2_WeightWidthSlopeOnly: 0
OS2_UseTypoMetrics: 1
CreationTime: 1634404486
ModificationTime: 1716721726
PfmFamily: 81
TTFWeight: 400
TTFWidth: 5
LineGap: 0
VLineGap: 0
Panose: 0 0 0 0 0 0 0 0 0 0
OS2TypoAscent: 896
OS2TypoAOffset: 0
OS2TypoDescent: -408
OS2TypoDOffset: 0
OS2TypoLinegap: 0
OS2WinAscent: 896
OS2WinAOffset: 0
OS2WinDescent: 408
OS2WinDOffset: 0
HheadAscent: 896
HheadAOffset: 0
HheadDescent: -408
HheadDOffset: 0
OS2SubXSize: 650
OS2SubYSize: 600
OS2SubXOff: 0
OS2SubYOff: 75
OS2SupXSize: 650
OS2SupYSize: 600
OS2SupXOff: 0
OS2SupYOff: 350
OS2StrikeYSize: 50
OS2StrikeYPos: 322
OS2CapHeight: 592
OS2XHeight: 536
OS2Vendor: 'GOOG'
OS2CodePages: 00000093.00000000
OS2UnicodeRanges: 80048003.00002042.00000000.00000000
Lookup: 4 0 0 "'nukt' Nukta Forms lookup 0" { "'nukt' Nukta Forms lookup 0 subtable"  } ['nukt' ('gjr2' <'dflt' > 'gujr' <'dflt' > ) ]
Lookup: 4 0 0 "'akhn' Akhand lookup 1" { "'akhn' Akhand lookup 1 subtable"  } ['akhn' ('gjr2' <'dflt' > 'gujr' <'dflt' > ) ]
Lookup: 4 0 0 "'rphf' Reph Form lookup 2" { "'rphf' Reph Form lookup 2 subtable"  } ['rphf' ('gjr2' <'dflt' > 'gujr' <'dflt' > ) ]
Lookup: 4 256 0 "'rkrf' Rakar Forms lookup 3" { "'rkrf' Rakar Forms lookup 3 subtable"  } ['rkrf' ('gjr2' <'dflt' > 'gujr' <'dflt' > ) ]
Lookup: 4 0 0 "'blwf' Below Base Forms in Gujarati lookup 4" { "'blwf' Below Base Forms in Gujarati lookup 4 subtable"  } ['blwf' ('gujr' <'dflt' > ) ]

StartChar: exclam.gujr
Encoding: 33 33 3
Width: 858
Flags: W
LayerCount: 2
Fore
SplineSet
401 201 m 1,0,-1
 376 714 l 1,1,-1
 483 714 l 1,2,-1
 458 201 l 1,3,-1
 401 201 l 1,0,-1
429 -14 m 0,4,5
 403 -14 403 -14 385 2 c 128,-1,6
 367 18 367 18 367 54 c 0,7,8
 367 91 367 91 385 106 c 128,-1,9
 403 121 403 121 429 121 c 0,10,11
 454 121 454 121 472.5 106 c 128,-1,12
 491 91 491 91 491 54 c 0,13,14
 491 18 491 18 472.5 2 c 128,-1,15
 454 -14 454 -14 429 -14 c 0,4,5
EndSplineSet
EndChar

StartChar: quotedbl.gujr
Encoding: 34 34 4
Width: 858
Flags: W
LayerCount: 2
Fore
SplineSet
311 471 m 1,0,-1
 286 729 l 1,1,-1
 397 729 l 1,2,-1
 372 471 l 1,3,-1
 311 471 l 1,0,-1
487 471 m 1,4,-1
 462 729 l 1,5,-1
 572 729 l 1,6,-1
 547 471 l 1,7,-1
 487 471 l 1,4,-1
EndSplineSet
EndChar

StartChar: numbersign.gujr
Encoding: 35 35 5
Width: 858
Flags: W
LayerCount: 2
Fore
SplineSet
228.5 0 m 1,0,-1
 261.5 176 l 1,1,-1
 136.5 176 l 1,2,-1
 136.5 242 l 1,3,-1
 273.5 242 l 1,4,-1
 304.5 394 l 1,5,-1
 172.5 394 l 1,6,-1
 172.5 459 l 1,7,-1
 315.5 459 l 1,8,-1
 349.5 632 l 1,9,-1
 419.5 632 l 1,10,-1
 386.5 459 l 1,11,-1
 526.5 459 l 1,12,-1
 560.5 632 l 1,13,-1
 629.5 632 l 1,14,-1
 595.5 459 l 1,15,-1
 721.5 459 l 1,16,-1
 721.5 394 l 1,17,-1
 582.5 394 l 1,18,-1
 553.5 242 l 1,19,-1
 686.5 242 l 1,20,-1
 686.5 176 l 1,21,-1
 540.5 176 l 1,22,-1
 506.5 0 l 1,23,-1
 436.5 0 l 1,24,-1
 471.5 176 l 1,25,-1
 331.5 176 l 1,26,-1
 297.5 0 l 1,27,-1
 228.5 0 l 1,0,-1
344.5 242 m 1,28,-1
 483.5 242 l 1,29,-1
 513.5 394 l 1,30,-1
 373.5 394 l 1,31,-1
 344.5 242 l 1,28,-1
EndSplineSet
EndChar

StartChar: percent.gujr
Encoding: 37 37 6
Width: 858
Flags: W
LayerCount: 2
Fore
SplineSet
198.5 0 m 1,0,-1
 584.5 622 l 1,1,-1
 661.5 622 l 1,2,-1
 276.5 0 l 1,3,-1
 198.5 0 l 1,0,-1
217.5 271 m 0,4,5
 146.5 271 146.5 271 109.5 319 c 128,-1,6
 72.5 367 72.5 367 72.5 452 c 0,7,8
 72.5 538 72.5 538 107 585 c 128,-1,9
 141.5 632 141.5 632 217.5 632 c 0,10,11
 289.5 632 289.5 632 327 585 c 128,-1,12
 364.5 538 364.5 538 364.5 452 c 0,13,14
 364.5 367 364.5 367 329.5 319 c 128,-1,15
 294.5 271 294.5 271 217.5 271 c 0,4,5
216.5 334 m 256,16,17
 254.5 334 254.5 334 273 364 c 128,-1,18
 291.5 394 291.5 394 291.5 452 c 0,19,20
 291.5 511 291.5 511 273 540 c 128,-1,21
 254.5 569 254.5 569 216.5 569 c 256,22,23
 178.5 569 178.5 569 161.5 540 c 128,-1,24
 144.5 511 144.5 511 144.5 452 c 0,25,26
 144.5 394 144.5 394 161.5 364 c 128,-1,27
 178.5 334 178.5 334 216.5 334 c 256,16,17
639.5 -10 m 0,28,29
 567.5 -10 567.5 -10 531 38.5 c 128,-1,30
 494.5 87 494.5 87 494.5 171 c 0,31,32
 494.5 257 494.5 257 529 304.5 c 128,-1,33
 563.5 352 563.5 352 639.5 352 c 0,34,35
 712.5 352 712.5 352 749 304.5 c 128,-1,36
 785.5 257 785.5 257 785.5 171 c 0,37,38
 785.5 87 785.5 87 751 38.5 c 128,-1,39
 716.5 -10 716.5 -10 639.5 -10 c 0,28,29
639.5 55 m 256,40,41
 677.5 55 677.5 55 696 84 c 128,-1,42
 714.5 113 714.5 113 714.5 171 c 0,43,44
 714.5 230 714.5 230 696 259.5 c 128,-1,45
 677.5 289 677.5 289 639.5 289 c 256,46,47
 601.5 289 601.5 289 584.5 259.5 c 128,-1,48
 567.5 230 567.5 230 567.5 171 c 0,49,50
 567.5 113 567.5 113 584.5 84 c 128,-1,51
 601.5 55 601.5 55 639.5 55 c 256,40,41
EndSplineSet
EndChar

StartChar: quotesingle.gujr
Encoding: 39 39 7
Width: 858
Flags: W
LayerCount: 2
Fore
SplineSet
398.5 471 m 1,0,-1
 373.5 729 l 1,1,-1
 484.5 729 l 1,2,-1
 459.5 471 l 1,3,-1
 398.5 471 l 1,0,-1
EndSplineSet
EndChar

StartChar: parenleft.gujr
Encoding: 40 40 8
Width: 858
Flags: W
LayerCount: 2
Fore
SplineSet
460.5 -165 m 1,0,1
 385.5 -62 385.5 -62 350.5 68.5 c 128,-1,2
 315.5 199 315.5 199 315.5 337 c 0,3,4
 315.5 477 315.5 477 350 603.5 c 128,-1,5
 384.5 730 384.5 730 460.5 832 c 1,6,-1
 541.5 832 l 1,7,8
 496.5 762 496.5 762 465 681.5 c 128,-1,9
 433.5 601 433.5 601 417 514 c 128,-1,10
 400.5 427 400.5 427 400.5 336 c 0,11,12
 400.5 248 400.5 248 416.5 160 c 128,-1,13
 432.5 72 432.5 72 464 -10 c 128,-1,14
 495.5 -92 495.5 -92 542.5 -165 c 1,15,-1
 460.5 -165 l 1,0,1
EndSplineSet
EndChar

StartChar: parenright.gujr
Encoding: 41 41 9
Width: 858
Flags: W
LayerCount: 2
Fore
SplineSet
316.5 -165 m 1,0,1
 361.5 -94 361.5 -94 393 -13 c 128,-1,2
 424.5 68 424.5 68 440.5 155 c 128,-1,3
 456.5 242 456.5 242 456.5 330 c 0,4,5
 456.5 419 456.5 419 440.5 506.5 c 128,-1,6
 424.5 594 424.5 594 393.5 676.5 c 128,-1,7
 362.5 759 362.5 759 315.5 832 c 1,8,-1
 397.5 832 l 1,9,10
 472.5 729 472.5 729 507.5 598 c 128,-1,11
 542.5 467 542.5 467 542.5 329 c 0,12,13
 542.5 190 542.5 190 507.5 63 c 128,-1,14
 472.5 -64 472.5 -64 397.5 -165 c 1,15,-1
 316.5 -165 l 1,0,1
EndSplineSet
EndChar

StartChar: asterisk.gujr
Encoding: 42 42 10
Width: 858
Flags: W
LayerCount: 2
Fore
SplineSet
259 340 m 1,0,-1
 377 499 l 1,1,-1
 194 513 l 1,2,-1
 208 607 l 1,3,-1
 399 553 l 1,4,-1
 378 745 l 1,5,-1
 478 745 l 1,6,-1
 457 553 l 1,7,-1
 651 607 l 1,8,-1
 664 513 l 1,9,-1
 479 499 l 1,10,-1
 599 340 l 1,11,-1
 512 293 l 1,12,-1
 426 468 l 1,13,-1
 349 293 l 1,14,-1
 259 340 l 1,0,-1
EndSplineSet
EndChar

StartChar: plus.gujr
Encoding: 43 43 11
Width: 858
Flags: W
LayerCount: 2
Fore
SplineSet
392.5 97 m 1,0,-1
 392.5 286 l 1,1,-1
 203.5 286 l 1,2,-1
 203.5 359 l 1,3,-1
 392.5 359 l 1,4,-1
 392.5 548 l 1,5,-1
 465.5 548 l 1,6,-1
 465.5 359 l 1,7,-1
 654.5 359 l 1,8,-1
 654.5 286 l 1,9,-1
 465.5 286 l 1,10,-1
 465.5 97 l 1,11,-1
 392.5 97 l 1,0,-1
EndSplineSet
EndChar

StartChar: comma.gujr
Encoding: 44 44 12
Width: 858
Flags: W
LayerCount: 2
Fore
SplineSet
352.5 -129 m 1,0,1
 362.5 -89 362.5 -89 372 -45.5 c 128,-1,2
 381.5 -2 381.5 -2 389 40 c 128,-1,3
 396.5 82 396.5 82 401.5 116 c 1,4,-1
 498.5 116 l 1,5,-1
 505.5 105 l 1,6,7
 496.5 70 496.5 70 482.5 29.5 c 128,-1,8
 468.5 -11 468.5 -11 452.5 -51.5 c 128,-1,9
 436.5 -92 436.5 -92 419.5 -129 c 1,10,-1
 352.5 -129 l 1,0,1
EndSplineSet
EndChar

StartChar: hyphen.gujr
Encoding: 45 45 13
Width: 858
Flags: W
LayerCount: 2
Fore
SplineSet
308 256 m 1,0,-1
 308 338 l 1,1,-1
 550 338 l 1,2,-1
 550 256 l 1,3,-1
 308 256 l 1,0,-1
EndSplineSet
EndChar

StartChar: period.gujr
Encoding: 46 46 14
Width: 858
Flags: W
LayerCount: 2
Fore
SplineSet
428 -14 m 0,0,1
 403 -14 403 -14 385 2 c 128,-1,2
 367 18 367 18 367 54 c 0,3,4
 367 91 367 91 385 106 c 128,-1,5
 403 121 403 121 428 121 c 0,6,7
 454 121 454 121 472.5 106 c 128,-1,8
 491 91 491 91 491 54 c 0,9,10
 491 18 491 18 472.5 2 c 128,-1,11
 454 -14 454 -14 428 -14 c 0,0,1
EndSplineSet
EndChar

StartChar: slash.gujr
Encoding: 47 47 15
Width: 858
Flags: W
LayerCount: 2
Fore
SplineSet
256.5 -166 m 1,0,-1
 519.5 833 l 1,1,-1
 601.5 833 l 1,2,-1
 339.5 -166 l 1,3,-1
 256.5 -166 l 1,0,-1
EndSplineSet
EndChar

StartChar: zero.gujr
Encoding: 48 48 16
Width: 858
Flags: W
LayerCount: 2
Fore
SplineSet
428 -10 m 0,0,1
 313 -10 313 -10 257 87.5 c 128,-1,2
 201 185 201 185 201 358 c 0,3,4
 201 474 201 474 223.5 556 c 128,-1,5
 246 638 246 638 296 681.5 c 128,-1,6
 346 725 346 725 428 725 c 0,7,8
 544 725 544 725 600.5 628.5 c 128,-1,9
 657 532 657 532 657 358 c 0,10,11
 657 271 657 271 644.5 203 c 128,-1,12
 632 135 632 135 605 87.5 c 128,-1,13
 578 40 578 40 534 15 c 128,-1,14
 490 -10 490 -10 428 -10 c 0,0,1
428 66 m 256,15,16
 503 66 503 66 535 138 c 128,-1,17
 567 210 567 210 567 358 c 0,18,19
 567 504 567 504 535 576.5 c 128,-1,20
 503 649 503 649 428 649 c 256,21,22
 353 649 353 649 322 576.5 c 128,-1,23
 291 504 291 504 291 358 c 256,24,25
 291 212 291 212 322 139 c 128,-1,26
 353 66 353 66 428 66 c 256,15,16
EndSplineSet
EndChar

StartChar: one.gujr
Encoding: 49 49 17
Width: 858
Flags: W
LayerCount: 2
Fore
SplineSet
473 0 m 1,0,-1
 473 446 l 2,1,2
 473 477 473 477 473.5 507 c 128,-1,3
 474 537 474 537 475 566 c 128,-1,4
 476 595 476 595 477 622 c 1,5,6
 463 606 463 606 447.5 592 c 128,-1,7
 432 578 432 578 418 567 c 2,8,-1
 346 508 l 1,9,-1
 299 568 l 1,10,-1
 486 714 l 1,11,-1
 559 714 l 1,12,-1
 559 0 l 1,13,-1
 473 0 l 1,0,-1
EndSplineSet
EndChar

StartChar: two.gujr
Encoding: 50 50 18
Width: 858
Flags: W
LayerCount: 2
Fore
SplineSet
206.5 0 m 1,0,-1
 206.5 76 l 1,1,-1
 377.5 262 l 2,2,3
 429.5 319 429.5 319 464 361.5 c 128,-1,4
 498.5 404 498.5 404 516 443.5 c 128,-1,5
 533.5 483 533.5 483 533.5 530 c 0,6,7
 533.5 587 533.5 587 501.5 618 c 128,-1,8
 469.5 649 469.5 649 418.5 649 c 0,9,10
 374.5 649 374.5 649 337.5 631 c 128,-1,11
 300.5 613 300.5 613 262.5 581 c 1,12,-1
 215.5 640 l 1,13,14
 241.5 664 241.5 664 272 683 c 128,-1,15
 302.5 702 302.5 702 339.5 713 c 128,-1,16
 376.5 724 376.5 724 419.5 724 c 0,17,18
 482.5 724 482.5 724 528 700.5 c 128,-1,19
 573.5 677 573.5 677 598.5 634.5 c 128,-1,20
 623.5 592 623.5 592 623.5 533 c 0,21,22
 623.5 477 623.5 477 602.5 429.5 c 128,-1,23
 581.5 382 581.5 382 543.5 334.5 c 128,-1,24
 505.5 287 505.5 287 452.5 231 c 2,25,-1
 315.5 85 l 1,26,-1
 315.5 81 l 1,27,-1
 651.5 81 l 1,28,-1
 651.5 0 l 1,29,-1
 206.5 0 l 1,0,-1
EndSplineSet
EndChar

StartChar: three.gujr
Encoding: 51 51 19
Width: 858
Flags: W
LayerCount: 2
Fore
SplineSet
392.5 -10 m 0,0,1
 338.5 -10 338.5 -10 292.5 -1.5 c 128,-1,2
 246.5 7 246.5 7 203.5 29 c 1,3,-1
 203.5 111 l 1,4,5
 246.5 89 246.5 89 295.5 77 c 128,-1,6
 344.5 65 344.5 65 390.5 65 c 0,7,8
 479.5 65 479.5 65 521.5 102.5 c 128,-1,9
 563.5 140 563.5 140 563.5 205 c 0,10,11
 563.5 248 563.5 248 542 276 c 128,-1,12
 520.5 304 520.5 304 479 318 c 128,-1,13
 437.5 332 437.5 332 377.5 332 c 2,14,-1
 312.5 332 l 1,15,-1
 312.5 406 l 1,16,-1
 377.5 406 l 2,17,18
 457.5 406 457.5 406 499.5 443 c 128,-1,19
 541.5 480 541.5 480 541.5 541 c 0,20,21
 541.5 573 541.5 573 526.5 597.5 c 128,-1,22
 511.5 622 511.5 622 484.5 635.5 c 128,-1,23
 457.5 649 457.5 649 419.5 649 c 0,24,25
 365.5 649 365.5 649 327 632.5 c 128,-1,26
 288.5 616 288.5 616 251.5 590 c 1,27,-1
 206.5 651 l 1,28,29
 243.5 680 243.5 680 297 702 c 128,-1,30
 350.5 724 350.5 724 419.5 724 c 0,31,32
 490.5 724 490.5 724 538 701 c 128,-1,33
 585.5 678 585.5 678 609 638 c 128,-1,34
 632.5 598 632.5 598 632.5 547 c 0,35,36
 632.5 499 632.5 499 613.5 464 c 128,-1,37
 594.5 429 594.5 429 560 407 c 128,-1,38
 525.5 385 525.5 385 478.5 376 c 1,39,-1
 478.5 373 l 1,40,41
 567.5 363 567.5 363 611 317.5 c 128,-1,42
 654.5 272 654.5 272 654.5 203 c 0,43,44
 654.5 141 654.5 141 626.5 92.5 c 128,-1,45
 598.5 44 598.5 44 540.5 17 c 128,-1,46
 482.5 -10 482.5 -10 392.5 -10 c 0,0,1
EndSplineSet
EndChar

StartChar: four.gujr
Encoding: 52 52 20
Width: 858
Flags: W
LayerCount: 2
Fore
SplineSet
499 0 m 1,0,-1
 499 160 l 1,1,-1
 169 160 l 1,2,-1
 169 238 l 1,3,-1
 493 718 l 1,4,-1
 585 718 l 1,5,-1
 585 241 l 1,6,-1
 689 241 l 1,7,-1
 689 160 l 1,8,-1
 585 160 l 1,9,-1
 585 0 l 1,10,-1
 499 0 l 1,0,-1
256 241 m 1,11,-1
 499 241 l 1,12,-1
 499 415 l 2,13,14
 499 445 499 445 499.5 474 c 128,-1,15
 500 503 500 503 501 529.5 c 128,-1,16
 502 556 502 556 503 580 c 128,-1,17
 504 604 504 604 505 626 c 1,18,-1
 501 626 l 1,19,20
 491 600 491 600 480 578 c 128,-1,21
 469 556 469 556 457 538 c 2,22,-1
 256 241 l 1,11,-1
EndSplineSet
EndChar

StartChar: five.gujr
Encoding: 53 53 21
Width: 858
Flags: W
LayerCount: 2
Fore
SplineSet
387.5 -10 m 0,0,1
 337.5 -10 337.5 -10 291.5 -0.5 c 128,-1,2
 245.5 9 245.5 9 213.5 29 c 1,3,-1
 213.5 113 l 1,4,5
 235.5 98 235.5 98 266 87.5 c 128,-1,6
 296.5 77 296.5 77 329.5 71.5 c 128,-1,7
 362.5 66 362.5 66 389.5 66 c 0,8,9
 466.5 66 466.5 66 510 103 c 128,-1,10
 553.5 140 553.5 140 553.5 219 c 0,11,12
 553.5 290 553.5 290 510.5 326.5 c 128,-1,13
 467.5 363 467.5 363 385.5 363 c 0,14,15
 359.5 363 359.5 363 326 358.5 c 128,-1,16
 292.5 354 292.5 354 272.5 350 c 1,17,-1
 228.5 378 l 1,18,-1
 255.5 714 l 1,19,-1
 592.5 714 l 1,20,-1
 592.5 633 l 1,21,-1
 332.5 633 l 1,22,-1
 313.5 428 l 1,23,24
 329.5 432 329.5 432 357 435 c 128,-1,25
 384.5 438 384.5 438 415.5 438 c 0,26,27
 480.5 438 480.5 438 532 414.5 c 128,-1,28
 583.5 391 583.5 391 614 344.5 c 128,-1,29
 644.5 298 644.5 298 644.5 229 c 0,30,31
 644.5 117 644.5 117 578.5 53.5 c 128,-1,32
 512.5 -10 512.5 -10 387.5 -10 c 0,0,1
EndSplineSet
EndChar

StartChar: six.gujr
Encoding: 54 54 22
Width: 858
Flags: W
LayerCount: 2
Fore
SplineSet
437 -10 m 0,0,1
 372 -10 372 -10 319 24 c 128,-1,2
 266 58 266 58 235 128 c 128,-1,3
 204 198 204 198 204 305 c 0,4,5
 204 367 204 367 211.5 427 c 128,-1,6
 219 487 219 487 239 540.5 c 128,-1,7
 259 594 259 594 294 635.5 c 128,-1,8
 329 677 329 677 383.5 700.5 c 128,-1,9
 438 724 438 724 516 724 c 0,10,11
 535 724 535 724 559.5 722 c 128,-1,12
 584 720 584 720 600 715 c 1,13,-1
 600 639 l 1,14,15
 583 645 583 645 561.5 648 c 128,-1,16
 540 651 540 651 519 651 c 0,17,18
 453 651 453 651 410.5 628 c 128,-1,19
 368 605 368 605 343.5 565.5 c 128,-1,20
 319 526 319 526 308 474 c 128,-1,21
 297 422 297 422 295 364 c 1,22,-1
 301 364 l 1,23,24
 321 399 321 399 357 423 c 128,-1,25
 393 447 393 447 451 447 c 0,26,27
 513 447 513 447 558.5 421.5 c 128,-1,28
 604 396 604 396 629 347.5 c 128,-1,29
 654 299 654 299 654 230 c 0,30,31
 654 156 654 156 627.5 102 c 128,-1,32
 601 48 601 48 552.5 19 c 128,-1,33
 504 -10 504 -10 437 -10 c 0,0,1
436 65 m 0,34,35
 495 65 495 65 531.5 105 c 128,-1,36
 568 145 568 145 568 230 c 0,37,38
 568 298 568 298 536 337.5 c 128,-1,39
 504 377 504 377 439 377 c 0,40,41
 395 377 395 377 362 357.5 c 128,-1,42
 329 338 329 338 311 308.5 c 128,-1,43
 293 279 293 279 293 247 c 0,44,45
 293 204 293 204 309 162 c 128,-1,46
 325 120 325 120 357 92.5 c 128,-1,47
 389 65 389 65 436 65 c 0,34,35
EndSplineSet
EndChar

StartChar: seven.gujr
Encoding: 55 55 23
Width: 858
Flags: W
LayerCount: 2
Fore
SplineSet
292.5 0 m 1,0,-1
 567.5 633 l 1,1,-1
 199.5 633 l 1,2,-1
 199.5 714 l 1,3,-1
 658.5 714 l 1,4,-1
 658.5 643 l 1,5,-1
 387.5 0 l 1,6,-1
 292.5 0 l 1,0,-1
EndSplineSet
EndChar

StartChar: eight.gujr
Encoding: 56 56 24
Width: 858
Flags: W
LayerCount: 2
Fore
SplineSet
429 -10 m 0,0,1
 322 -10 322 -10 263.5 41.5 c 128,-1,2
 205 93 205 93 205 182 c 0,3,4
 205 231 205 231 223.5 267 c 128,-1,5
 242 303 242 303 273.5 329.5 c 128,-1,6
 305 356 305 356 343 374 c 1,7,8
 311 395 311 395 285 420 c 128,-1,9
 259 445 259 445 243.5 478 c 128,-1,10
 228 511 228 511 228 554 c 0,11,12
 228 611 228 611 256 649 c 128,-1,13
 284 687 284 687 330 706 c 128,-1,14
 376 725 376 725 429 725 c 0,15,16
 484 725 484 725 529.5 706 c 128,-1,17
 575 687 575 687 602.5 649 c 128,-1,18
 630 611 630 611 630 553 c 0,19,20
 630 510 630 510 613 477.5 c 128,-1,21
 596 445 596 445 567.5 421 c 128,-1,22
 539 397 539 397 502 378 c 1,23,24
 540 358 540 358 574.5 331.5 c 128,-1,25
 609 305 609 305 631 269.5 c 128,-1,26
 653 234 653 234 653 186 c 0,27,28
 653 126 653 126 624.5 82 c 128,-1,29
 596 38 596 38 546 14 c 128,-1,30
 496 -10 496 -10 429 -10 c 0,0,1
427 64 m 0,31,32
 496 64 496 64 531 97 c 128,-1,33
 566 130 566 130 566 185 c 0,34,35
 566 233 566 233 529.5 268.5 c 128,-1,36
 493 304 493 304 416 340 c 1,37,38
 375 321 375 321 347.5 297.5 c 128,-1,39
 320 274 320 274 306 245.5 c 128,-1,40
 292 217 292 217 292 181 c 0,41,42
 292 129 292 129 324.5 96.5 c 128,-1,43
 357 64 357 64 427 64 c 0,31,32
430 414 m 1,44,45
 462 429 462 429 487.5 447 c 128,-1,46
 513 465 513 465 528 490 c 128,-1,47
 543 515 543 515 543 550 c 0,48,49
 543 600 543 600 512.5 625.5 c 128,-1,50
 482 651 482 651 428 651 c 0,51,52
 394 651 394 651 368.5 639.5 c 128,-1,53
 343 628 343 628 329 605.5 c 128,-1,54
 315 583 315 583 315 550 c 0,55,56
 315 514 315 514 330 489.5 c 128,-1,57
 345 465 345 465 371 447.5 c 128,-1,58
 397 430 397 430 430 414 c 1,44,45
EndSplineSet
EndChar

StartChar: nine.gujr
Encoding: 57 57 25
Width: 858
Flags: W
LayerCount: 2
Fore
SplineSet
342 -10 m 0,0,1
 323 -10 323 -10 299 -7.5 c 128,-1,2
 275 -5 275 -5 258 -1 c 1,3,-1
 258 75 l 1,4,5
 275 69 275 69 296.5 66 c 128,-1,6
 318 63 318 63 339 63 c 0,7,8
 405 63 405 63 448 86 c 128,-1,9
 491 109 491 109 515 148.5 c 128,-1,10
 539 188 539 188 550 240 c 128,-1,11
 561 292 561 292 563 350 c 1,12,-1
 557 350 l 1,13,14
 544 327 544 327 523.5 308 c 128,-1,15
 503 289 503 289 474.5 278 c 128,-1,16
 446 267 446 267 407 267 c 0,17,18
 346 267 346 267 300 292.5 c 128,-1,19
 254 318 254 318 229 366.5 c 128,-1,20
 204 415 204 415 204 484 c 0,21,22
 204 559 204 559 230.5 612.5 c 128,-1,23
 257 666 257 666 306 695 c 128,-1,24
 355 724 355 724 421 724 c 256,25,26
 487 724 487 724 539.5 690 c 128,-1,27
 592 656 592 656 623 586 c 128,-1,28
 654 516 654 516 654 409 c 0,29,30
 654 348 654 348 646.5 287.5 c 128,-1,31
 639 227 639 227 619 173.5 c 128,-1,32
 599 120 599 120 564 78.5 c 128,-1,33
 529 37 529 37 474.5 13.5 c 128,-1,34
 420 -10 420 -10 342 -10 c 0,0,1
419 337 m 0,35,36
 463 337 463 337 496 356.5 c 128,-1,37
 529 376 529 376 547 406 c 128,-1,38
 565 436 565 436 565 467 c 0,39,40
 565 500 565 500 556 532 c 128,-1,41
 547 564 547 564 529 590.5 c 128,-1,42
 511 617 511 617 484.5 633 c 128,-1,43
 458 649 458 649 422 649 c 0,44,45
 364 649 364 649 327 609 c 128,-1,46
 290 569 290 569 290 484 c 0,47,48
 290 416 290 416 322.5 376.5 c 128,-1,49
 355 337 355 337 419 337 c 0,35,36
EndSplineSet
EndChar

StartChar: colon.gujr
Encoding: 58 58 26
Width: 858
Flags: W
LayerCount: 2
Fore
SplineSet
429 414 m 256,0,1
 403 414 403 414 385 430 c 128,-1,2
 367 446 367 446 367 482 c 0,3,4
 367 520 367 520 385 535 c 128,-1,5
 403 550 403 550 429 550 c 256,6,7
 455 550 455 550 473 535 c 128,-1,8
 491 520 491 520 491 482 c 0,9,10
 491 446 491 446 473 430 c 128,-1,11
 455 414 455 414 429 414 c 256,0,1
429 -14 m 256,12,13
 403 -14 403 -14 385 2 c 128,-1,14
 367 18 367 18 367 54 c 0,15,16
 367 92 367 92 385 107 c 128,-1,17
 403 122 403 122 429 122 c 256,18,19
 455 122 455 122 473 107 c 128,-1,20
 491 92 491 92 491 54 c 0,21,22
 491 18 491 18 473 2 c 128,-1,23
 455 -14 455 -14 429 -14 c 256,12,13
EndSplineSet
EndChar

StartChar: semicolon.gujr
Encoding: 59 59 27
Width: 858
Flags: W
LayerCount: 2
Fore
SplineSet
346.5 -129 m 1,0,1
 356.5 -89 356.5 -89 366 -45.5 c 128,-1,2
 375.5 -2 375.5 -2 383 40 c 128,-1,3
 390.5 82 390.5 82 395.5 116 c 1,4,-1
 492.5 116 l 1,5,-1
 499.5 105 l 1,6,7
 490.5 70 490.5 70 476.5 29.5 c 128,-1,8
 462.5 -11 462.5 -11 446.5 -51.5 c 128,-1,9
 430.5 -92 430.5 -92 413.5 -129 c 1,10,-1
 346.5 -129 l 1,0,1
449.5 414 m 256,11,12
 423.5 414 423.5 414 405.5 430 c 128,-1,13
 387.5 446 387.5 446 387.5 482 c 0,14,15
 387.5 520 387.5 520 405.5 535 c 128,-1,16
 423.5 550 423.5 550 449.5 550 c 256,17,18
 475.5 550 475.5 550 493.5 535 c 128,-1,19
 511.5 520 511.5 520 511.5 482 c 0,20,21
 511.5 446 511.5 446 493.5 430 c 128,-1,22
 475.5 414 475.5 414 449.5 414 c 256,11,12
EndSplineSet
EndChar

StartChar: less.gujr
Encoding: 60 60 28
Width: 858
Flags: W
LayerCount: 2
Fore
SplineSet
654.5 77 m 1,0,-1
 203.5 284 l 1,1,-1
 203.5 334 l 1,2,-1
 654.5 569 l 1,3,-1
 654.5 491 l 1,4,-1
 295.5 313 l 1,5,-1
 654.5 156 l 1,6,-1
 654.5 77 l 1,0,-1
EndSplineSet
EndChar

StartChar: equal.gujr
Encoding: 61 61 29
Width: 858
Flags: W
LayerCount: 2
Fore
SplineSet
203.5 387 m 1,0,-1
 203.5 459 l 1,1,-1
 654.5 459 l 1,2,-1
 654.5 387 l 1,3,-1
 203.5 387 l 1,0,-1
203.5 187 m 1,4,-1
 203.5 260 l 1,5,-1
 654.5 260 l 1,6,-1
 654.5 187 l 1,7,-1
 203.5 187 l 1,4,-1
EndSplineSet
EndChar

StartChar: greater.gujr
Encoding: 62 62 30
Width: 858
Flags: W
LayerCount: 2
Fore
SplineSet
203.5 77 m 1,0,-1
 203.5 156 l 1,1,-1
 562.5 313 l 1,2,-1
 203.5 491 l 1,3,-1
 203.5 569 l 1,4,-1
 654.5 334 l 1,5,-1
 654.5 284 l 1,6,-1
 203.5 77 l 1,0,-1
EndSplineSet
EndChar

StartChar: question.gujr
Encoding: 63 63 31
Width: 858
Flags: W
LayerCount: 2
Fore
SplineSet
360.5 202 m 1,0,-1
 360.5 220 l 2,1,2
 360.5 258 360.5 258 367.5 285.5 c 128,-1,3
 374.5 313 374.5 313 393 338 c 128,-1,4
 411.5 363 411.5 363 443.5 390 c 0,5,6
 474.5 417 474.5 417 494 438 c 128,-1,7
 513.5 459 513.5 459 522.5 483 c 128,-1,8
 531.5 507 531.5 507 531.5 541 c 0,9,10
 531.5 588 531.5 588 503 617 c 128,-1,11
 474.5 646 474.5 646 420.5 646 c 0,12,13
 380.5 646 380.5 646 343.5 633.5 c 128,-1,14
 306.5 621 306.5 621 272.5 604 c 1,15,-1
 241.5 675 l 1,16,17
 281.5 695 281.5 695 327.5 709.5 c 128,-1,18
 373.5 724 373.5 724 420.5 724 c 0,19,20
 511.5 724 511.5 724 564 676 c 128,-1,21
 616.5 628 616.5 628 616.5 542 c 0,22,23
 616.5 499 616.5 499 605 467 c 128,-1,24
 593.5 435 593.5 435 570 408 c 128,-1,25
 546.5 381 546.5 381 511.5 350 c 0,26,27
 478.5 321 478.5 321 460.5 300.5 c 128,-1,28
 442.5 280 442.5 280 435.5 260 c 128,-1,29
 428.5 240 428.5 240 428.5 211 c 2,30,-1
 428.5 202 l 1,31,-1
 360.5 202 l 1,0,-1
337.5 54 m 0,32,33
 337.5 92 337.5 92 355.5 107 c 128,-1,34
 373.5 122 373.5 122 399.5 122 c 256,35,36
 425.5 122 425.5 122 443.5 107 c 128,-1,37
 461.5 92 461.5 92 461.5 54 c 0,38,39
 461.5 18 461.5 18 443.5 2 c 128,-1,40
 425.5 -14 425.5 -14 399.5 -14 c 256,41,42
 373.5 -14 373.5 -14 355.5 2 c 128,-1,43
 337.5 18 337.5 18 337.5 54 c 0,32,33
EndSplineSet
EndChar

StartChar: bracketleft.gujr
Encoding: 91 91 32
Width: 858
Flags: W
LayerCount: 2
Fore
SplineSet
332 -166 m 1,0,-1
 332 832 l 1,1,-1
 526 832 l 1,2,-1
 526 762 l 1,3,-1
 412 762 l 1,4,-1
 412 -96 l 1,5,-1
 526 -96 l 1,6,-1
 526 -166 l 1,7,-1
 332 -166 l 1,0,-1
EndSplineSet
EndChar

StartChar: backslash.gujr
Encoding: 92 92 33
Width: 858
Flags: W
LayerCount: 2
Fore
SplineSet
519.5 -166 m 1,0,-1
 256.5 832 l 1,1,-1
 338.5 832 l 1,2,-1
 601.5 -166 l 1,3,-1
 519.5 -166 l 1,0,-1
EndSplineSet
EndChar

StartChar: bracketright.gujr
Encoding: 93 93 34
Width: 858
Flags: W
LayerCount: 2
Fore
SplineSet
332 -166 m 1,0,-1
 332 -96 l 1,1,-1
 445 -96 l 1,2,-1
 445 762 l 1,3,-1
 332 762 l 1,4,-1
 332 832 l 1,5,-1
 526 832 l 1,6,-1
 526 -166 l 1,7,-1
 332 -166 l 1,0,-1
EndSplineSet
EndChar

StartChar: asciicircum.gujr
Encoding: 94 94 35
Width: 858
Flags: W
LayerCount: 2
Fore
SplineSet
183 268 m 1,0,-1
 407 719 l 1,1,-1
 457 719 l 1,2,-1
 675 268 l 1,3,-1
 597 268 l 1,4,-1
 432 627 l 1,5,-1
 262 268 l 1,6,-1
 183 268 l 1,0,-1
EndSplineSet
EndChar

StartChar: underscore.gujr
Encoding: 95 95 36
Width: 858
Flags: W
LayerCount: 2
Fore
SplineSet
221.5 -158 m 1,0,-1
 221.5 -90 l 1,1,-1
 636.5 -90 l 1,2,-1
 636.5 -158 l 1,3,-1
 221.5 -158 l 1,0,-1
EndSplineSet
EndChar

StartChar: braceleft.gujr
Encoding: 123 123 37
Width: 858
Flags: W
LayerCount: 2
Fore
SplineSet
575.5 -166 m 1,0,1
 526.5 -165 526.5 -165 488 -150.5 c 128,-1,2
 449.5 -136 449.5 -136 427.5 -105.5 c 128,-1,3
 405.5 -75 405.5 -75 405.5 -25 c 2,4,-1
 405.5 206 l 2,5,6
 405.5 239 405.5 239 391.5 258.5 c 128,-1,7
 377.5 278 377.5 278 350 287 c 128,-1,8
 322.5 296 322.5 296 282.5 296 c 1,9,-1
 282.5 370 l 1,10,11
 322.5 370 322.5 370 350 379 c 128,-1,12
 377.5 388 377.5 388 391.5 408 c 128,-1,13
 405.5 428 405.5 428 405.5 460 c 2,14,-1
 405.5 691 l 2,15,16
 405.5 741 405.5 741 427.5 771.5 c 128,-1,17
 449.5 802 449.5 802 488 816.5 c 128,-1,18
 526.5 831 526.5 831 575.5 832 c 1,19,-1
 575.5 760 l 1,20,21
 534.5 760 534.5 760 510.5 745.5 c 128,-1,22
 486.5 731 486.5 731 486.5 685 c 2,23,-1
 486.5 455 l 2,24,25
 486.5 405 486.5 405 459.5 375.5 c 128,-1,26
 432.5 346 432.5 346 380.5 335 c 1,27,-1
 380.5 330 l 1,28,29
 432.5 320 432.5 320 459.5 291 c 128,-1,30
 486.5 262 486.5 262 486.5 211 c 2,31,-1
 486.5 -18 l 2,32,33
 486.5 -49 486.5 -49 497.5 -65.5 c 128,-1,34
 508.5 -82 508.5 -82 528.5 -88 c 128,-1,35
 548.5 -94 548.5 -94 575.5 -94 c 1,36,-1
 575.5 -166 l 1,0,1
EndSplineSet
EndChar

StartChar: bar.gujr
Encoding: 124 124 38
Width: 858
Flags: W
LayerCount: 2
Fore
SplineSet
393 832 m 1,0,-1
 465 832 l 1,1,-1
 465 -166 l 1,2,-1
 393 -166 l 1,3,-1
 393 832 l 1,0,-1
EndSplineSet
EndChar

StartChar: braceright.gujr
Encoding: 125 125 39
Width: 858
Flags: W
LayerCount: 2
Fore
SplineSet
282.5 -166 m 1,0,-1
 282.5 -94 l 1,1,2
 310.5 -94 310.5 -94 330 -88 c 128,-1,3
 349.5 -82 349.5 -82 360.5 -65.5 c 128,-1,4
 371.5 -49 371.5 -49 371.5 -18 c 2,5,-1
 371.5 211 l 2,6,7
 371.5 262 371.5 262 398.5 291 c 128,-1,8
 425.5 320 425.5 320 477.5 330 c 1,9,-1
 477.5 335 l 1,10,11
 425.5 346 425.5 346 398.5 375.5 c 128,-1,12
 371.5 405 371.5 405 371.5 455 c 2,13,-1
 371.5 685 l 2,14,15
 371.5 731 371.5 731 347.5 745.5 c 128,-1,16
 323.5 760 323.5 760 282.5 760 c 1,17,-1
 282.5 832 l 1,18,19
 331.5 831 331.5 831 370 816.5 c 128,-1,20
 408.5 802 408.5 802 430.5 771.5 c 128,-1,21
 452.5 741 452.5 741 452.5 691 c 2,22,-1
 452.5 460 l 2,23,24
 452.5 428 452.5 428 466.5 408 c 128,-1,25
 480.5 388 480.5 388 508 379 c 128,-1,26
 535.5 370 535.5 370 575.5 370 c 1,27,-1
 575.5 296 l 1,28,29
 535.5 296 535.5 296 508 287 c 128,-1,30
 480.5 278 480.5 278 466.5 258.5 c 128,-1,31
 452.5 239 452.5 239 452.5 206 c 2,32,-1
 452.5 -25 l 2,33,34
 452.5 -75 452.5 -75 430.5 -105.5 c 128,-1,35
 408.5 -136 408.5 -136 370 -150.5 c 128,-1,36
 331.5 -165 331.5 -165 282.5 -166 c 1,0,-1
EndSplineSet
EndChar

StartChar: asciitilde.gujr
Encoding: 126 126 40
Width: 858
Flags: W
LayerCount: 2
Fore
SplineSet
203.5 335 m 1,0,1
 228.5 362 228.5 362 258.5 375 c 128,-1,2
 288.5 388 288.5 388 324.5 388 c 0,3,4
 343.5 388 343.5 388 359.5 385.5 c 128,-1,5
 375.5 383 375.5 383 395.5 376.5 c 128,-1,6
 415.5 370 415.5 370 445.5 357 c 0,7,8
 482.5 341 482.5 341 502.5 335.5 c 128,-1,9
 522.5 330 522.5 330 543.5 330 c 0,10,11
 571.5 330 571.5 330 601.5 347 c 128,-1,12
 631.5 364 631.5 364 654.5 389 c 1,13,-1
 654.5 310 l 1,14,15
 630.5 284 630.5 284 600 270.5 c 128,-1,16
 569.5 257 569.5 257 533.5 257 c 0,17,18
 514.5 257 514.5 257 498.5 259.5 c 128,-1,19
 482.5 262 482.5 262 463 268.5 c 128,-1,20
 443.5 275 443.5 275 412.5 288 c 0,21,22
 376.5 304 376.5 304 357 309.5 c 128,-1,23
 337.5 315 337.5 315 314.5 315 c 0,24,25
 287.5 315 287.5 315 257.5 298 c 128,-1,26
 227.5 281 227.5 281 203.5 256 c 1,27,-1
 203.5 335 l 1,0,1
EndSplineSet
EndChar

StartChar: A
Encoding: 65 65 41
Width: 858
Flags: W
AnchorPoint: "Anchor-1" 397 0 basechar 0
LayerCount: 2
Fore
SplineSet
319 103 m 0,0,1
 273 103 273 103 232 116 c 128,-1,2
 191 129 191 129 156 160.5 c 128,-1,3
 121 192 121 192 93 245 c 1,4,-1
 114 303 l 1,5,6
 170 311 170 311 209 345.5 c 128,-1,7
 248 380 248 380 248 430 c 0,8,9
 248 478 248 478 220.5 504 c 128,-1,10
 193 530 193 530 134 530 c 0,11,12
 112 530 112 530 84.5 524.5 c 128,-1,13
 57 519 57 519 34 508 c 1,14,-1
 7 576 l 1,15,16
 31 587 31 587 66 595 c 128,-1,17
 101 603 101 603 137 603 c 0,18,19
 198 603 198 603 240.5 582.5 c 128,-1,20
 283 562 283 562 305.5 523 c 128,-1,21
 328 484 328 484 328 428 c 0,22,23
 328 373 328 373 295.5 329.5 c 128,-1,24
 263 286 263 286 210 261.5 c 128,-1,25
 157 237 157 237 93 237 c 0,26,27
 66 237 66 237 48 244 c 128,-1,28
 30 251 30 251 20.5 264.5 c 128,-1,29
 11 278 11 278 11 297 c 0,30,31
 11 317 11 317 25.5 331.5 c 128,-1,32
 40 346 40 346 70 346 c 0,33,34
 101 346 101 346 121 333.5 c 128,-1,35
 141 321 141 321 163 295 c 1,36,-1
 177 256 l 2,37,38
 195 217 195 217 231 196 c 128,-1,39
 267 175 267 175 313 175 c 0,40,41
 351 175 351 175 378 186 c 128,-1,42
 405 197 405 197 422 216 c 0,43,44
 447 244 447 244 454.5 280 c 128,-1,45
 462 316 462 316 462 371 c 2,46,-1
 462 447 l 1,47,-1
 542 437 l 1,48,-1
 542 349 l 2,49,50
 542 267 542 267 513.5 212 c 128,-1,51
 485 157 485 157 434.5 130 c 128,-1,52
 384 103 384 103 319 103 c 0,0,1
600 228 m 0,53,54
 575 228 575 228 551 237 c 128,-1,55
 527 246 527 246 507 269 c 128,-1,56
 487 292 487 292 473 333 c 1,57,-1
 531 356 l 1,58,59
 539 324 539 324 557 312 c 128,-1,60
 575 300 575 300 599 300 c 0,61,62
 635 300 635 300 661 319.5 c 128,-1,63
 687 339 687 339 709 373 c 1,64,-1
 726 291 l 1,65,66
 701 261 701 261 672.5 244.5 c 128,-1,67
 644 228 644 228 600 228 c 0,53,54
832 0 m 2,68,69
 789 0 789 0 760.5 9.5 c 128,-1,70
 732 19 732 19 715 37 c 0,71,72
 699 54 699 54 691.5 79 c 128,-1,73
 684 104 684 104 684 148 c 2,74,-1
 684 603 l 1,75,-1
 764 592 l 1,76,-1
 764 152 l 2,77,78
 764 125 764 125 767 112.5 c 128,-1,79
 770 100 770 100 776 92 c 0,80,81
 787 78 787 78 808.5 75.5 c 128,-1,82
 830 73 830 73 851 73 c 1,83,-1
 843 0 l 1,84,-1
 832 0 l 2,68,69
EndSplineSet
EndChar

StartChar: B
Encoding: 66 66 42
Width: 858
Flags: W
LayerCount: 2
Fore
SplineSet
615.5 617 m 0,0,1
 615.5 583 615.5 583 601.5 557.5 c 128,-1,2
 587.5 532 587.5 532 566.5 512.5 c 128,-1,3
 545.5 493 545.5 493 524.5 477 c 128,-1,4
 503.5 461 503.5 461 489.5 445.5 c 128,-1,5
 475.5 430 475.5 430 475.5 412 c 0,6,7
 475.5 399 475.5 399 482 388 c 128,-1,8
 488.5 377 488.5 377 507.5 362.5 c 128,-1,9
 526.5 348 526.5 348 563.5 323 c 0,10,11
 599.5 299 599.5 299 625.5 275 c 128,-1,12
 651.5 251 651.5 251 665.5 222 c 128,-1,13
 679.5 193 679.5 193 679.5 153 c 0,14,15
 679.5 96 679.5 96 656 60 c 128,-1,16
 632.5 24 632.5 24 590.5 7 c 128,-1,17
 548.5 -10 548.5 -10 493.5 -10 c 0,18,19
 446.5 -10 446.5 -10 410.5 -1 c 128,-1,20
 374.5 8 374.5 8 348.5 24 c 1,21,-1
 348.5 103 l 1,22,23
 365.5 93 365.5 93 388.5 83 c 128,-1,24
 411.5 73 411.5 73 438 67 c 128,-1,25
 464.5 61 464.5 61 490.5 61 c 0,26,27
 545.5 61 545.5 61 569.5 84 c 128,-1,28
 593.5 107 593.5 107 593.5 147 c 0,29,30
 593.5 171 593.5 171 585 189.5 c 128,-1,31
 576.5 208 576.5 208 556 226 c 128,-1,32
 535.5 244 535.5 244 499.5 267 c 0,33,34
 457.5 294 457.5 294 434 315.5 c 128,-1,35
 410.5 337 410.5 337 400.5 359 c 128,-1,36
 390.5 381 390.5 381 390.5 407 c 0,37,38
 390.5 438 390.5 438 404 460 c 128,-1,39
 417.5 482 417.5 482 438 498.5 c 128,-1,40
 458.5 515 458.5 515 479 531 c 128,-1,41
 499.5 547 499.5 547 513 566 c 128,-1,42
 526.5 585 526.5 585 526.5 612 c 0,43,44
 526.5 654 526.5 654 491 673 c 128,-1,45
 455.5 692 455.5 692 399.5 692 c 0,46,47
 364.5 692 364.5 692 334 682.5 c 128,-1,48
 303.5 673 303.5 673 285 650 c 128,-1,49
 266.5 627 266.5 627 266.5 584 c 2,50,-1
 266.5 0 l 1,51,-1
 178.5 0 l 1,52,-1
 178.5 584 l 2,53,54
 178.5 651 178.5 651 207.5 690.5 c 128,-1,55
 236.5 730 236.5 730 286.5 747.5 c 128,-1,56
 336.5 765 336.5 765 399.5 765 c 0,57,58
 464.5 765 464.5 765 513 748.5 c 128,-1,59
 561.5 732 561.5 732 588.5 699.5 c 128,-1,60
 615.5 667 615.5 667 615.5 617 c 0,0,1
EndSplineSet
EndChar

StartChar: C
Encoding: 67 67 43
Width: 858
Flags: W
LayerCount: 2
Fore
SplineSet
469 737 m 4,0,1
 489 737 489 737 504.5 723.5 c 132,-1,2
 520 710 520 710 520 681 c 4,3,4
 520 653 520 653 504.5 639 c 132,-1,5
 489 625 489 625 469 625 c 4,6,7
 447 625 447 625 432 639 c 132,-1,8
 417 653 417 653 417 681 c 4,9,10
 417 710 417 710 432 723.5 c 132,-1,11
 447 737 447 737 469 737 c 4,0,1
485 -10 m 0,12,13
 367 -10 367 -10 302 57 c 128,-1,14
 237 124 237 124 237 245 c 0,15,16
 237 325 237 325 266 380.5 c 128,-1,17
 295 436 295 436 349 465 c 1,18,-1
 216 465 l 1,19,-1
 216 537 l 1,20,-1
 642 537 l 1,21,-1
 642 465 l 1,22,-1
 529 465 l 2,23,24
 435 465 435 465 381.5 411.5 c 128,-1,25
 328 358 328 358 328 252 c 0,26,27
 328 165 328 165 371 114.5 c 128,-1,28
 414 64 414 64 494 64 c 0,29,30
 531 64 531 64 565 73.5 c 128,-1,31
 599 83 599 83 631 99 c 1,32,-1
 631 21 l 1,33,34
 602 5 602 5 567 -2.5 c 128,-1,35
 532 -10 532 -10 485 -10 c 0,12,13
EndSplineSet
EndChar

StartChar: D
Encoding: 68 68 44
Width: 858
Flags: W
AnchorPoint: "Anchor-3" 354.5 603 basechar 0
AnchorPoint: "Anchor-1" 482.5 0 basechar 0
AnchorPoint: "Anchor-0" 443.5 603 basechar 0
LayerCount: 2
Fore
SplineSet
468.5 -10 m 0,0,1
 402.5 -10 402.5 -10 355.5 14 c 128,-1,2
 308.5 38 308.5 38 283 79.5 c 128,-1,3
 257.5 121 257.5 121 257.5 176 c 0,4,5
 257.5 232 257.5 232 287 273 c 128,-1,6
 316.5 314 316.5 314 366.5 336.5 c 128,-1,7
 416.5 359 416.5 359 478.5 359 c 0,8,9
 501.5 359 501.5 359 520 357 c 128,-1,10
 538.5 355 538.5 355 553.5 353 c 1,11,-1
 539.5 281 l 1,12,13
 527.5 283 527.5 283 512 284.5 c 128,-1,14
 496.5 286 496.5 286 480.5 286 c 0,15,16
 443.5 286 443.5 286 411 274.5 c 128,-1,17
 378.5 263 378.5 263 358.5 239 c 128,-1,18
 338.5 215 338.5 215 338.5 176 c 0,19,20
 338.5 139 338.5 139 353.5 113.5 c 128,-1,21
 368.5 88 368.5 88 398 75.5 c 128,-1,22
 427.5 63 427.5 63 469.5 63 c 0,23,24
 496.5 63 496.5 63 515.5 66.5 c 128,-1,25
 534.5 70 534.5 70 548.5 80 c 1,26,-1
 547.5 47 l 1,27,28
 535.5 61 535.5 61 531.5 71 c 128,-1,29
 527.5 81 527.5 81 527.5 94 c 0,30,31
 527.5 120 527.5 120 543.5 134 c 128,-1,32
 559.5 148 559.5 148 585.5 148 c 0,33,34
 614.5 148 614.5 148 629 130.5 c 128,-1,35
 643.5 113 643.5 113 643.5 90 c 0,36,37
 643.5 56 643.5 56 619 33.5 c 128,-1,38
 594.5 11 594.5 11 554.5 0.5 c 128,-1,39
 514.5 -10 514.5 -10 468.5 -10 c 0,0,1
326.5 292 m 1,40,41
 279.5 321 279.5 321 247 360 c 128,-1,42
 214.5 399 214.5 399 214.5 457 c 0,43,44
 214.5 495 214.5 495 234 528 c 128,-1,45
 253.5 561 253.5 561 295.5 582 c 128,-1,46
 337.5 603 337.5 603 403.5 603 c 0,47,48
 431.5 603 431.5 603 463.5 598.5 c 128,-1,49
 495.5 594 495.5 594 513.5 589 c 1,50,-1
 499.5 518 l 1,51,52
 483.5 522 483.5 522 460.5 525.5 c 128,-1,53
 437.5 529 437.5 529 414.5 529 c 0,54,55
 350.5 529 350.5 529 323 506 c 128,-1,56
 295.5 483 295.5 483 295.5 451 c 0,57,58
 295.5 416 295.5 416 319.5 387 c 128,-1,59
 343.5 358 343.5 358 402.5 333 c 1,60,-1
 326.5 292 l 1,40,41
EndSplineSet
EndChar

StartChar: E
Encoding: 69 69 45
Width: 858
Flags: W
LayerCount: 2
Fore
SplineSet
628.5 0 m 1,0,-1
 229.5 0 l 1,1,-1
 229.5 714 l 1,2,-1
 628.5 714 l 1,3,-1
 628.5 635 l 1,4,-1
 319.5 635 l 1,5,-1
 319.5 412 l 1,6,-1
 610.5 412 l 1,7,-1
 610.5 334 l 1,8,-1
 319.5 334 l 1,9,-1
 319.5 79 l 1,10,-1
 628.5 79 l 1,11,-1
 628.5 0 l 1,0,-1
EndSplineSet
EndChar

StartChar: F
Encoding: 70 70 46
Width: 858
Flags: W
LayerCount: 2
Fore
SplineSet
319.5 0 m 1,0,-1
 229.5 0 l 1,1,-1
 229.5 714 l 1,2,-1
 628.5 714 l 1,3,-1
 628.5 635 l 1,4,-1
 319.5 635 l 1,5,-1
 319.5 382 l 1,6,-1
 609.5 382 l 1,7,-1
 609.5 303 l 1,8,-1
 319.5 303 l 1,9,-1
 319.5 0 l 1,0,-1
EndSplineSet
EndChar

StartChar: G
Encoding: 71 71 47
Width: 858
Flags: W
LayerCount: 2
Fore
SplineSet
411.5 546 m 0,0,1
 464.5 546 464.5 546 507 526 c 128,-1,2
 549.5 506 549.5 506 579.5 465 c 1,3,-1
 584.5 465 l 1,4,-1
 596.5 536 l 1,5,-1
 666.5 536 l 1,6,-1
 666.5 -9 l 2,7,8
 666.5 -85 666.5 -85 640.5 -136.5 c 128,-1,9
 614.5 -188 614.5 -188 561.5 -214 c 128,-1,10
 508.5 -240 508.5 -240 426.5 -240 c 0,11,12
 368.5 -240 368.5 -240 320 -231.5 c 128,-1,13
 271.5 -223 271.5 -223 233.5 -206 c 1,14,-1
 233.5 -125 l 1,15,16
 271.5 -145 271.5 -145 322.5 -156 c 128,-1,17
 373.5 -167 373.5 -167 431.5 -167 c 0,18,19
 500.5 -167 500.5 -167 540 -126.5 c 128,-1,20
 579.5 -86 579.5 -86 579.5 -16 c 2,21,-1
 579.5 5 l 2,22,23
 579.5 17 579.5 17 580.5 39.5 c 128,-1,24
 581.5 62 581.5 62 582.5 71 c 1,25,-1
 578.5 71 l 1,26,27
 550.5 30 550.5 30 509 10 c 128,-1,28
 467.5 -10 467.5 -10 412.5 -10 c 0,29,30
 308.5 -10 308.5 -10 250 63 c 128,-1,31
 191.5 136 191.5 136 191.5 267 c 0,32,33
 191.5 395 191.5 395 250 470.5 c 128,-1,34
 308.5 546 308.5 546 411.5 546 c 0,0,1
423.5 472 m 0,35,36
 378.5 472 378.5 472 347 448 c 128,-1,37
 315.5 424 315.5 424 299 378 c 128,-1,38
 282.5 332 282.5 332 282.5 266 c 0,39,40
 282.5 167 282.5 167 319 114.5 c 128,-1,41
 355.5 62 355.5 62 425.5 62 c 0,42,43
 466.5 62 466.5 62 495.5 72.5 c 128,-1,44
 524.5 83 524.5 83 543.5 105.5 c 128,-1,45
 562.5 128 562.5 128 571.5 163 c 128,-1,46
 580.5 198 580.5 198 580.5 246 c 2,47,-1
 580.5 267 l 2,48,49
 580.5 340 580.5 340 564 385 c 128,-1,50
 547.5 430 547.5 430 512.5 451 c 128,-1,51
 477.5 472 477.5 472 423.5 472 c 0,35,36
434.5 737 m 0,52,53
 454.5 737 454.5 737 470 723.5 c 128,-1,54
 485.5 710 485.5 710 485.5 681 c 0,55,56
 485.5 653 485.5 653 470 639 c 128,-1,57
 454.5 625 454.5 625 434.5 625 c 0,58,59
 412.5 625 412.5 625 397.5 639 c 128,-1,60
 382.5 653 382.5 653 382.5 681 c 0,61,62
 382.5 710 382.5 710 397.5 723.5 c 128,-1,63
 412.5 737 412.5 737 434.5 737 c 0,52,53
EndSplineSet
EndChar

StartChar: H
Encoding: 72 72 48
Width: 858
Flags: W
AnchorPoint: "Anchor-3" 439 603 basechar 0
AnchorPoint: "Anchor-1" 454 0 basechar 0
AnchorPoint: "Anchor-0" 524 603 basechar 0
LayerCount: 2
Fore
SplineSet
488 -10 m 0,0,1
 399 -10 399 -10 333 14 c 128,-1,2
 267 38 267 38 224 79.5 c 128,-1,3
 181 121 181 121 159.5 175 c 128,-1,4
 138 229 138 229 138 289 c 0,5,6
 138 345 138 345 148 389 c 128,-1,7
 158 433 158 433 177 468 c 1,8,-1
 253 433 l 1,9,10
 239 402 239 402 230.5 366.5 c 128,-1,11
 222 331 222 331 222 289 c 0,12,13
 222 222 222 222 253.5 171 c 128,-1,14
 285 120 285 120 344 91.5 c 128,-1,15
 403 63 403 63 486 63 c 0,16,17
 541 63 541 63 589.5 73.5 c 128,-1,18
 638 84 638 84 687 106 c 1,19,-1
 720 35 l 1,20,21
 680 19 680 19 645 9 c 128,-1,22
 610 -1 610 -1 573 -5.5 c 128,-1,23
 536 -10 536 -10 488 -10 c 0,0,1
514 161 m 0,24,25
 451 161 451 161 391 191 c 128,-1,26
 331 221 331 221 281 291 c 1,27,-1
 349 332 l 1,28,29
 384 283 384 283 425 258 c 128,-1,30
 466 233 466 233 515 233 c 0,31,32
 547 233 547 233 568 244.5 c 128,-1,33
 589 256 589 256 589 284 c 0,34,35
 589 311 589 311 569.5 328 c 128,-1,36
 550 345 550 345 492 366 c 0,37,38
 428 389 428 389 396.5 419 c 128,-1,39
 365 449 365 449 365 493 c 0,40,41
 365 543 365 543 404 572.5 c 128,-1,42
 443 602 443 602 519 602 c 0,43,44
 544 602 544 602 571 598.5 c 128,-1,45
 598 595 598 595 618 590 c 1,46,-1
 603 518 l 1,47,48
 581 524 581 524 558 527 c 128,-1,49
 535 530 535 530 507 530 c 0,50,51
 476 530 476 530 460.5 521 c 128,-1,52
 445 512 445 512 445 494 c 0,53,54
 445 477 445 477 462 464 c 128,-1,55
 479 451 479 451 528 433 c 0,56,57
 609 404 609 404 639 369 c 128,-1,58
 669 334 669 334 669 285 c 0,59,60
 669 225 669 225 627 193 c 128,-1,61
 585 161 585 161 514 161 c 0,24,25
EndSplineSet
EndChar

StartChar: I
Encoding: 73 73 49
Width: 858
Flags: W
LayerCount: 2
Fore
SplineSet
529.5 756 m 1,0,1
 520.5 742 520.5 742 503.5 722 c 0,2,3
 486.5 702 486.5 702 466 680.5 c 0,4,5
 445.5 659 445.5 659 425 639.5 c 0,6,7
 404.5 620 404.5 620 386.5 606 c 1,8,-1
 328.5 606 l 1,9,-1
 328.5 618 l 1,10,11
 343.5 637 343.5 637 361 663 c 0,12,13
 378.5 689 378.5 689 395.5 716.5 c 0,14,15
 412.5 744 412.5 744 423.5 766 c 1,16,-1
 529.5 766 l 1,17,-1
 529.5 756 l 1,0,1
425.5 0 m 5,18,-1
 337.5 0 l 5,19,-1
 337.5 536 l 5,20,-1
 425.5 536 l 5,21,-1
 425.5 0 l 5,18,-1
EndSplineSet
EndChar

StartChar: J
Encoding: 74 74 50
Width: 858
Flags: W
LayerCount: 2
Fore
SplineSet
378.5 -8 m 4,0,1
 323.5 -8 323.5 -8 279.5 4 c 132,-1,2
 235.5 16 235.5 16 201.5 33 c 5,3,-1
 232.5 103 l 5,4,5
 262.5 89 262.5 89 299 77 c 132,-1,6
 335.5 65 335.5 65 376.5 65 c 4,7,8
 433.5 65 433.5 65 463.5 94.5 c 132,-1,9
 493.5 124 493.5 124 493.5 190 c 6,10,-1
 493.5 329 l 5,11,-1
 289.5 329 l 5,12,-1
 289.5 395 l 5,13,-1
 493.5 395 l 5,14,-1
 493.5 499 l 6,15,16
 493.5 539 493.5 539 503 565.5 c 132,-1,17
 512.5 592 512.5 592 528 608 c 132,-1,18
 543.5 624 543.5 624 561.5 635 c 5,19,-1
 177.5 635 l 5,20,-1
 177.5 715 l 5,21,-1
 680.5 715 l 5,22,-1
 680.5 641 l 5,23,24
 651.5 634 651.5 634 629.5 617.5 c 132,-1,25
 607.5 601 607.5 601 594.5 572.5 c 132,-1,26
 581.5 544 581.5 544 581.5 500 c 6,27,-1
 581.5 395 l 5,28,-1
 677.5 395 l 5,29,-1
 677.5 329 l 5,30,-1
 581.5 329 l 5,31,-1
 581.5 181 l 6,32,33
 581.5 121 581.5 121 556.5 79 c 132,-1,34
 531.5 37 531.5 37 485.5 14.5 c 132,-1,35
 439.5 -8 439.5 -8 378.5 -8 c 4,0,1
EndSplineSet
EndChar

StartChar: K
Encoding: 75 75 51
Width: 858
Flags: W
LayerCount: 2
Fore
SplineSet
409 737 m 4,0,1
 429 737 429 737 444.5 723.5 c 132,-1,2
 460 710 460 710 460 681 c 4,3,4
 460 653 460 653 444.5 639 c 132,-1,5
 429 625 429 625 409 625 c 4,6,7
 387 625 387 625 372 639 c 132,-1,8
 357 653 357 653 357 681 c 4,9,10
 357 710 357 710 372 723.5 c 132,-1,11
 387 737 387 737 409 737 c 4,0,1
296 363 m 2,12,13
 296 347 296 347 294.5 321 c 128,-1,14
 293 295 293 295 292 276 c 1,15,-1
 296 276 l 1,16,17
 302 284 302 284 314 299 c 128,-1,18
 326 314 326 314 338.5 329.5 c 128,-1,19
 351 345 351 345 360 355 c 2,20,-1
 531 536 l 1,21,-1
 634 536 l 1,22,-1
 417 307 l 1,23,-1
 649 0 l 1,24,-1
 543 0 l 1,25,-1
 357 250 l 1,26,-1
 296 197 l 1,27,-1
 296 0 l 1,28,-1
 209 0 l 1,29,-1
 209 536 l 1,30,-1
 296 536 l 1,31,-1
 296 363 l 2,12,13
EndSplineSet
EndChar

StartChar: L
Encoding: 76 76 52
Width: 858
Flags: W
LayerCount: 2
Fore
SplineSet
479.5 723 m 0,0,1
 534.5 723 534.5 723 578.5 711 c 128,-1,2
 622.5 699 622.5 699 656.5 682 c 1,3,-1
 625.5 612 l 1,4,5
 595.5 626 595.5 626 559 638 c 128,-1,6
 522.5 650 522.5 650 481.5 650 c 0,7,8
 424.5 650 424.5 650 394.5 620.5 c 128,-1,9
 364.5 591 364.5 591 364.5 525 c 2,10,-1
 364.5 386 l 1,11,-1
 568.5 386 l 1,12,-1
 568.5 320 l 1,13,-1
 364.5 320 l 1,14,-1
 364.5 216 l 2,15,16
 364.5 176 364.5 176 355 149.5 c 128,-1,17
 345.5 123 345.5 123 330 107 c 128,-1,18
 314.5 91 314.5 91 296.5 80 c 1,19,-1
 680.5 80 l 1,20,-1
 680.5 0 l 1,21,-1
 177.5 0 l 1,22,-1
 177.5 74 l 1,23,24
 206.5 81 206.5 81 228.5 97.5 c 128,-1,25
 250.5 114 250.5 114 263.5 142.5 c 128,-1,26
 276.5 171 276.5 171 276.5 215 c 2,27,-1
 276.5 320 l 1,28,-1
 180.5 320 l 1,29,-1
 180.5 386 l 1,30,-1
 276.5 386 l 1,31,-1
 276.5 534 l 2,32,33
 276.5 594 276.5 594 301.5 636 c 128,-1,34
 326.5 678 326.5 678 372.5 700.5 c 128,-1,35
 418.5 723 418.5 723 479.5 723 c 0,0,1
EndSplineSet
EndChar

StartChar: M
Encoding: 77 77 53
Width: 858
Flags: W
LayerCount: 2
Fore
SplineSet
632.5 546 m 0,0,1
 723.5 546 723.5 546 768.5 499.5 c 128,-1,2
 813.5 453 813.5 453 813.5 349 c 2,3,-1
 813.5 0 l 1,4,-1
 726.5 0 l 1,5,-1
 726.5 345 l 2,6,7
 726.5 408 726.5 408 700 440 c 128,-1,8
 673.5 472 673.5 472 617.5 472 c 0,9,10
 539.5 472 539.5 472 506 427 c 128,-1,11
 472.5 382 472.5 382 472.5 296 c 2,12,-1
 472.5 0 l 1,13,-1
 385.5 0 l 1,14,-1
 385.5 345 l 2,15,16
 385.5 387 385.5 387 373.5 415.5 c 128,-1,17
 361.5 444 361.5 444 337.5 458 c 128,-1,18
 313.5 472 313.5 472 275.5 472 c 0,19,20
 221.5 472 221.5 472 190.5 449.5 c 128,-1,21
 159.5 427 159.5 427 146 384 c 128,-1,22
 132.5 341 132.5 341 132.5 278 c 2,23,-1
 132.5 0 l 1,24,-1
 44.5 0 l 1,25,-1
 44.5 536 l 1,26,-1
 115.5 536 l 1,27,-1
 128.5 463 l 1,28,-1
 133.5 463 l 1,29,30
 150.5 491 150.5 491 175 509.5 c 128,-1,31
 199.5 528 199.5 528 229.5 537 c 128,-1,32
 259.5 546 259.5 546 291.5 546 c 0,33,34
 353.5 546 353.5 546 395 524 c 128,-1,35
 436.5 502 436.5 502 455.5 456 c 1,36,-1
 460.5 456 l 1,37,38
 487.5 502 487.5 502 534 524 c 128,-1,39
 580.5 546 580.5 546 632.5 546 c 0,0,1
439.5 737 m 0,40,41
 459.5 737 459.5 737 475 723.5 c 128,-1,42
 490.5 710 490.5 710 490.5 681 c 0,43,44
 490.5 653 490.5 653 475 639 c 128,-1,45
 459.5 625 459.5 625 439.5 625 c 0,46,47
 417.5 625 417.5 625 402.5 639 c 128,-1,48
 387.5 653 387.5 653 387.5 681 c 0,49,50
 387.5 710 387.5 710 402.5 723.5 c 128,-1,51
 417.5 737 417.5 737 439.5 737 c 0,40,41
EndSplineSet
EndChar

StartChar: N
Encoding: 78 78 54
Width: 858
Flags: W
LayerCount: 2
Fore
SplineSet
403 737 m 4,0,1
 423 737 423 737 438.5 723.5 c 132,-1,2
 454 710 454 710 454 681 c 4,3,4
 454 653 454 653 438.5 639 c 132,-1,5
 423 625 423 625 403 625 c 4,6,7
 381 625 381 625 366 639 c 132,-1,8
 351 653 351 653 351 681 c 4,9,10
 351 710 351 710 366 723.5 c 132,-1,11
 381 737 381 737 403 737 c 4,0,1
461 546 m 0,12,13
 557 546 557 546 606 499.5 c 128,-1,14
 655 453 655 453 655 349 c 2,15,-1
 655 0 l 1,16,-1
 568 0 l 1,17,-1
 568 343 l 2,18,19
 568 408 568 408 539 440 c 128,-1,20
 510 472 510 472 448 472 c 0,21,22
 359 472 359 472 325 422 c 128,-1,23
 291 372 291 372 291 278 c 2,24,-1
 291 0 l 1,25,-1
 203 0 l 1,26,-1
 203 536 l 1,27,-1
 274 536 l 1,28,-1
 287 463 l 1,29,-1
 292 463 l 1,30,31
 310 491 310 491 336.5 509.5 c 128,-1,32
 363 528 363 528 395 537 c 128,-1,33
 427 546 427 546 461 546 c 0,12,13
EndSplineSet
EndChar

StartChar: O
Encoding: 79 79 55
Width: 858
Flags: W
LayerCount: 2
Fore
SplineSet
677 269 m 256,0,1
 677 180 677 180 646.5 117.5 c 128,-1,2
 616 55 616 55 560 22.5 c 128,-1,3
 504 -10 504 -10 427 -10 c 0,4,5
 356 -10 356 -10 300.5 22.5 c 128,-1,6
 245 55 245 55 213 117.5 c 128,-1,7
 181 180 181 180 181 269 c 0,8,9
 181 402 181 402 248 474 c 128,-1,10
 315 546 315 546 430 546 c 0,11,12
 503 546 503 546 558.5 513.5 c 128,-1,13
 614 481 614 481 645.5 419.5 c 128,-1,14
 677 358 677 358 677 269 c 256,0,1
429 63 m 256,15,16
 480 63 480 63 513.5 83 c 128,-1,17
 547 103 547 103 564.5 142.5 c 128,-1,18
 582 182 582 182 585 239 c 1,19,-1
 272 239 l 1,20,21
 275 182 275 182 293 142.5 c 128,-1,22
 311 103 311 103 344.5 83 c 128,-1,23
 378 63 378 63 429 63 c 256,15,16
428 472 m 0,24,25
 354 472 354 472 317 431.5 c 128,-1,26
 280 391 280 391 273 312 c 1,27,-1
 585 312 l 1,28,29
 580 365 580 365 561.5 400.5 c 128,-1,30
 543 436 543 436 510 454 c 128,-1,31
 477 472 477 472 428 472 c 0,24,25
EndSplineSet
EndChar

StartChar: P
Encoding: 80 80 56
Width: 858
Flags: W
LayerCount: 2
Fore
SplineSet
310 744 m 4,0,1
 330 744 330 744 345.5 730.5 c 132,-1,2
 361 717 361 717 361 688 c 4,3,4
 361 660 361 660 345.5 646 c 132,-1,5
 330 632 330 632 310 632 c 4,6,7
 288 632 288 632 273 646 c 132,-1,8
 258 660 258 660 258 688 c 4,9,10
 258 717 258 717 273 730.5 c 132,-1,11
 288 744 288 744 310 744 c 4,0,1
448 546 m 0,12,13
 508 546 508 546 555 521 c 128,-1,14
 602 496 602 496 629 446.5 c 128,-1,15
 656 397 656 397 656 323 c 0,16,17
 656 252 656 252 629 193 c 128,-1,18
 602 134 602 134 553 90.5 c 128,-1,19
 504 47 504 47 437 21 c 128,-1,20
 370 -5 370 -5 290 -10 c 1,21,-1
 290 -240 l 1,22,-1
 202 -240 l 1,23,-1
 202 536 l 1,24,-1
 274 536 l 1,25,-1
 286 463 l 1,26,-1
 290 463 l 1,27,28
 305 486 305 486 326 505 c 128,-1,29
 347 524 347 524 377 535 c 128,-1,30
 407 546 407 546 448 546 c 0,12,13
430 472 m 0,31,32
 380 472 380 472 349 451.5 c 128,-1,33
 318 431 318 431 304 390 c 128,-1,34
 290 349 290 349 290 286 c 2,35,-1
 290 62 l 1,36,37
 355 70 355 70 405.5 91.5 c 128,-1,38
 456 113 456 113 492 146.5 c 128,-1,39
 528 180 528 180 546.5 224 c 128,-1,40
 565 268 565 268 565 321 c 0,41,42
 565 367 565 367 549 400.5 c 128,-1,43
 533 434 533 434 503 453 c 128,-1,44
 473 472 473 472 430 472 c 0,31,32
EndSplineSet
EndChar

StartChar: Q
Encoding: 81 81 57
Width: 858
Flags: W
LayerCount: 2
Fore
SplineSet
680 -5 m 1,0,1
 660 -5 660 -5 641 2 c 128,-1,2
 622 9 622 9 608 26 c 1,3,-1
 608 291 l 5,4,5
 580 266 580 266 543 250.5 c 132,-1,6
 506 235 506 235 456 235 c 4,7,8
 414 235 414 235 365 258 c 132,-1,9
 316 281 316 281 274 318 c 132,-1,10
 232 355 232 355 204 401 c 132,-1,11
 176 447 176 447 176 493 c 4,12,13
 176 541 176 541 193.5 578 c 132,-1,14
 211 615 211 615 241 640.5 c 132,-1,15
 271 666 271 666 311.5 679 c 132,-1,16
 352 692 352 692 398 692 c 4,17,18
 432 692 432 692 462 684 c 4,19,20
 511 671 511 671 518 662.5 c 4,21,22
 553 622 553 622 566.5 631.5 c 4,23,24
 570 634 570 634 608 718 c 5,25,-1
 606 717 l 5,26,-1
 682 717 l 6,27,-1
 680 -5 l 1,0,1
399 292 m 4,28,29
 437 292 437 292 473 304.5 c 132,-1,30
 509 317 509 317 539 340 c 5,31,-1
 306 580 l 5,32,33
 279 556 279 556 264 521.5 c 132,-1,34
 249 487 249 487 249 442 c 4,35,36
 249 406 249 406 260.5 378 c 132,-1,37
 272 350 272 350 292 331 c 132,-1,38
 312 312 312 312 339.5 302 c 132,-1,39
 367 292 367 292 399 292 c 4,28,29
608 571 m 5,40,41
 573 598 573 598 535.5 613.5 c 132,-1,42
 498 629 498 629 449 629 c 4,43,44
 377 629 377 629 326 596 c 5,45,-1
 557 356 l 5,46,47
 573 371 573 371 586 389 c 132,-1,48
 599 407 599 407 608 427 c 5,49,-1
 608 571 l 5,40,41
EndSplineSet
EndChar

StartChar: R
Encoding: 82 82 58
Width: 858
Flags: W
AnchorPoint: "Anchor-5" 313.5 0 basechar 0
LayerCount: 2
Fore
SplineSet
446.5 744 m 4,0,1
 466.5 744 466.5 744 482 730.5 c 132,-1,2
 497.5 717 497.5 717 497.5 688 c 4,3,4
 497.5 660 497.5 660 482 646 c 132,-1,5
 466.5 632 466.5 632 446.5 632 c 4,6,7
 424.5 632 424.5 632 409.5 646 c 132,-1,8
 394.5 660 394.5 660 394.5 688 c 4,9,10
 394.5 717 394.5 717 409.5 730.5 c 132,-1,11
 424.5 744 424.5 744 446.5 744 c 4,0,1
522.5 546 m 0,12,13
 537.5 546 537.5 546 555 544.5 c 128,-1,14
 572.5 543 572.5 543 585.5 540 c 1,15,-1
 574.5 459 l 1,16,17
 561.5 462 561.5 462 546 464 c 128,-1,18
 530.5 466 530.5 466 516.5 466 c 0,19,20
 485.5 466 485.5 466 457.5 453 c 128,-1,21
 429.5 440 429.5 440 407.5 416.5 c 128,-1,22
 385.5 393 385.5 393 373 360 c 128,-1,23
 360.5 327 360.5 327 360.5 286 c 2,24,-1
 360.5 0 l 1,25,-1
 272.5 0 l 1,26,-1
 272.5 536 l 1,27,-1
 344.5 536 l 1,28,-1
 354.5 438 l 1,29,-1
 358.5 438 l 1,30,31
 375.5 468 375.5 468 399.5 492.5 c 128,-1,32
 423.5 517 423.5 517 454.5 531.5 c 128,-1,33
 485.5 546 485.5 546 522.5 546 c 0,12,13
EndSplineSet
EndChar

StartChar: S
Encoding: 83 83 59
Width: 858
Flags: W
AnchorPoint: "Anchor-5" 426.5 0 basechar 0
LayerCount: 2
Fore
SplineSet
445.5 744 m 4,0,1
 465.5 744 465.5 744 481 730.5 c 132,-1,2
 496.5 717 496.5 717 496.5 688 c 4,3,4
 496.5 660 496.5 660 481 646 c 132,-1,5
 465.5 632 465.5 632 445.5 632 c 4,6,7
 423.5 632 423.5 632 408.5 646 c 132,-1,8
 393.5 660 393.5 660 393.5 688 c 4,9,10
 393.5 717 393.5 717 408.5 730.5 c 132,-1,11
 423.5 744 423.5 744 445.5 744 c 4,0,1
620.5 148 m 0,12,13
 620.5 96 620.5 96 594.5 61 c 128,-1,14
 568.5 26 568.5 26 520.5 8 c 128,-1,15
 472.5 -10 472.5 -10 406.5 -10 c 0,16,17
 350.5 -10 350.5 -10 310 -1 c 128,-1,18
 269.5 8 269.5 8 238.5 24 c 1,19,-1
 238.5 104 l 1,20,21
 270.5 88 270.5 88 316 74.5 c 128,-1,22
 361.5 61 361.5 61 408.5 61 c 0,23,24
 475.5 61 475.5 61 505.5 82.5 c 128,-1,25
 535.5 104 535.5 104 535.5 140 c 0,26,27
 535.5 160 535.5 160 524.5 176 c 128,-1,28
 513.5 192 513.5 192 485 208 c 128,-1,29
 456.5 224 456.5 224 403.5 244 c 0,30,31
 351.5 264 351.5 264 314.5 284 c 128,-1,32
 277.5 304 277.5 304 257.5 332 c 128,-1,33
 237.5 360 237.5 360 237.5 404 c 0,34,35
 237.5 472 237.5 472 293 509 c 128,-1,36
 348.5 546 348.5 546 438.5 546 c 0,37,38
 487.5 546 487.5 546 530 536.5 c 128,-1,39
 572.5 527 572.5 527 609.5 510 c 1,40,-1
 579.5 440 l 1,41,42
 545.5 454 545.5 454 508.5 464 c 128,-1,43
 471.5 474 471.5 474 432.5 474 c 0,44,45
 378.5 474 378.5 474 350 456.5 c 128,-1,46
 321.5 439 321.5 439 321.5 409 c 0,47,48
 321.5 387 321.5 387 334.5 371.5 c 128,-1,49
 347.5 356 347.5 356 378 341.5 c 128,-1,50
 408.5 327 408.5 327 459.5 307 c 0,51,52
 510.5 288 510.5 288 546.5 268 c 128,-1,53
 582.5 248 582.5 248 601.5 219.5 c 128,-1,54
 620.5 191 620.5 191 620.5 148 c 0,12,13
EndSplineSet
EndChar

StartChar: T
Encoding: 84 84 60
Width: 858
Flags: W
LayerCount: 2
Fore
SplineSet
334.5 12 m 1,0,1
 289.5 48 289.5 48 252 87.5 c 128,-1,2
 214.5 127 214.5 127 191.5 170 c 128,-1,3
 168.5 213 168.5 213 168.5 261 c 0,4,5
 168.5 300 168.5 300 181.5 330 c 128,-1,6
 194.5 360 194.5 360 218.5 381 c 0,7,8
 248.5 407 248.5 407 296 420 c 128,-1,9
 343.5 433 343.5 433 431.5 433 c 2,10,-1
 543.5 433 l 1,11,-1
 543.5 360 l 1,12,-1
 425.5 360 l 2,13,14
 380.5 360 380.5 360 353.5 357 c 128,-1,15
 326.5 354 326.5 354 310.5 347.5 c 128,-1,16
 294.5 341 294.5 341 281.5 331 c 0,17,18
 266.5 319 266.5 319 258.5 301.5 c 128,-1,19
 250.5 284 250.5 284 250.5 261 c 0,20,21
 250.5 227 250.5 227 267 196 c 128,-1,22
 283.5 165 283.5 165 314.5 134 c 128,-1,23
 345.5 103 345.5 103 387.5 68 c 1,24,-1
 334.5 12 l 1,0,1
671.5 0 m 2,25,26
 628.5 0 628.5 0 600 9.5 c 128,-1,27
 571.5 19 571.5 19 554.5 37 c 0,28,29
 538.5 54 538.5 54 531 79 c 128,-1,30
 523.5 104 523.5 104 523.5 148 c 2,31,-1
 523.5 603 l 1,32,-1
 603.5 592 l 1,33,-1
 603.5 152 l 2,34,35
 603.5 125 603.5 125 606.5 112.5 c 128,-1,36
 609.5 100 609.5 100 615.5 92 c 0,37,38
 626.5 78 626.5 78 648 75.5 c 128,-1,39
 669.5 73 669.5 73 689.5 73 c 1,40,-1
 682.5 0 l 1,41,-1
 671.5 0 l 2,25,26
EndSplineSet
EndChar

StartChar: U
Encoding: 85 85 61
Width: 858
Flags: W
LayerCount: 2
Fore
SplineSet
652 536 m 1,0,-1
 652 0 l 1,1,-1
 580 0 l 1,2,-1
 567 71 l 1,3,-1
 563 71 l 1,4,5
 546 43 546 43 519 25 c 128,-1,6
 492 7 492 7 460 -1.5 c 128,-1,7
 428 -10 428 -10 393 -10 c 0,8,9
 329 -10 329 -10 285.5 10.5 c 128,-1,10
 242 31 242 31 220 74 c 128,-1,11
 198 117 198 117 198 185 c 2,12,-1
 198 536 l 1,13,-1
 287 536 l 1,14,-1
 287 191 l 2,15,16
 287 127 287 127 316 95 c 128,-1,17
 345 63 345 63 406 63 c 0,18,19
 466 63 466 63 500.5 85.5 c 128,-1,20
 535 108 535 108 549.5 151.5 c 128,-1,21
 564 195 564 195 564 257 c 2,22,-1
 564 536 l 1,23,-1
 652 536 l 1,0,-1
567 -116 m 0,24,25
 567 -138 567 -138 579 -149.5 c 128,-1,26
 591 -161 591 -161 612 -161 c 0,27,28
 629 -161 629 -161 640.5 -158.5 c 128,-1,29
 652 -156 652 -156 660 -155 c 1,30,-1
 660 -211 l 1,31,32
 646 -215 646 -215 632 -217.5 c 128,-1,33
 618 -220 618 -220 598 -220 c 0,34,35
 545 -220 545 -220 520 -195 c 128,-1,36
 495 -170 495 -170 495 -126 c 0,37,38
 495 -97 495 -97 509.5 -70 c 128,-1,39
 524 -43 524 -43 545.5 -21 c 128,-1,40
 567 1 567 1 587 15 c 1,41,-1
 635 0 l 1,42,43
 601 -32 601 -32 584 -58.5 c 128,-1,44
 567 -85 567 -85 567 -116 c 0,24,25
EndSplineSet
EndChar

StartChar: V
Encoding: 86 86 62
Width: 858
Flags: W
LayerCount: 2
Fore
SplineSet
417 737 m 4,0,1
 437 737 437 737 452.5 723.5 c 132,-1,2
 468 710 468 710 468 681 c 4,3,4
 468 653 468 653 452.5 639 c 132,-1,5
 437 625 437 625 417 625 c 4,6,7
 395 625 395 625 380 639 c 132,-1,8
 365 653 365 653 365 681 c 4,9,10
 365 710 365 710 380 723.5 c 132,-1,11
 395 737 395 737 417 737 c 4,0,1
376 0 m 1,12,-1
 186 536 l 1,13,-1
 277 536 l 1,14,-1
 374 247 l 2,15,16
 382 223 382 223 394 190 c 128,-1,17
 406 157 406 157 416.5 125.5 c 128,-1,18
 427 94 427 94 432 74 c 1,19,-1
 436 74 l 1,20,21
 493 137 493 137 525.5 206.5 c 128,-1,22
 558 276 558 276 571.5 357.5 c 128,-1,23
 585 439 585 439 585 536 c 1,24,-1
 672 536 l 1,25,26
 672 431 672 431 654 340.5 c 128,-1,27
 636 250 636 250 592.5 166.5 c 128,-1,28
 549 83 549 83 471 0 c 1,29,-1
 376 0 l 1,12,-1
EndSplineSet
EndChar

StartChar: W
Encoding: 87 87 63
Width: 858
Flags: W
LayerCount: 2
Fore
SplineSet
285 -10 m 0,0,1
 223 -10 223 -10 180.5 24 c 128,-1,2
 138 58 138 58 116 119 c 128,-1,3
 94 180 94 180 94 260 c 0,4,5
 94 322 94 322 105.5 467 c 128,-1,6
 117 612 117 612 136 652 c 5,7,-1
 22 652 l 5,8,-1
 22 725 l 5,9,-1
 836 725 l 5,10,-1
 836 652 l 5,11,-1
 722 652 l 5,12,13
 742 612 742 612 753 467 c 128,-1,14
 764 322 764 322 764 260 c 0,15,16
 764 180 764 180 742 119 c 128,-1,17
 720 58 720 58 677.5 24 c 128,-1,18
 635 -10 635 -10 573 -10 c 0,19,20
 518 -10 518 -10 483 15.5 c 128,-1,21
 448 41 448 41 431 100 c 1,22,-1
 426 100 l 1,23,24
 416 61 416 61 397 36.5 c 128,-1,25
 378 12 378 12 350 1 c 128,-1,26
 322 -10 322 -10 285 -10 c 0,0,1
291 63 m 0,27,28
 324 63 324 63 345.5 80 c 128,-1,29
 367 97 367 97 377 126.5 c 128,-1,30
 387 156 387 156 387 193 c 2,31,-1
 387 344 l 1,32,-1
 471 344 l 1,33,-1
 471 193 l 2,34,35
 471 152 471 152 482.5 122.5 c 128,-1,36
 494 93 494 93 515 78 c 128,-1,37
 536 63 536 63 566 63 c 0,38,39
 600 63 600 63 624.5 85 c 128,-1,40
 649 107 649 107 662.5 151 c 128,-1,41
 676 195 676 195 676 259 c 0,42,43
 676 322 676 322 665 467 c 128,-1,44
 654 612 654 612 634 652 c 5,45,-1
 225 652 l 5,46,47
 206 612 206 612 194 467 c 128,-1,48
 182 322 182 322 182 259 c 0,49,50
 182 162 182 162 212 112.5 c 128,-1,51
 242 63 242 63 291 63 c 0,27,28
EndSplineSet
EndChar

StartChar: X
Encoding: 88 88 64
Width: 858
Flags: W
LayerCount: 2
Fore
SplineSet
420 722 m 0,0,1
 440 722 440 722 455.5 708.5 c 128,-1,2
 471 695 471 695 471 666 c 0,3,4
 471 638 471 638 455.5 624 c 128,-1,5
 440 610 440 610 420 610 c 0,6,7
 398 610 398 610 383 624 c 128,-1,8
 368 638 368 638 368 666 c 0,9,10
 368 695 368 695 383 708.5 c 128,-1,11
 398 722 398 722 420 722 c 0,0,1
600 574 m 1,12,-1
 650 523 l 1,13,-1
 480 353 l 1,14,-1
 649 183 l 1,15,-1
 599 132 l 1,16,-1
 428 301 l 1,17,-1
 261 132 l 1,18,-1
 209 183 l 1,19,-1
 378 353 l 1,20,-1
 208 522 l 1,21,-1
 260 574 l 1,22,-1
 429 403 l 1,23,-1
 600 574 l 1,12,-1
EndSplineSet
EndChar

StartChar: Y
Encoding: 89 89 65
Width: 858
Flags: W
LayerCount: 2
Fore
SplineSet
432.5 744 m 4,0,1
 452.5 744 452.5 744 468 730.5 c 132,-1,2
 483.5 717 483.5 717 483.5 688 c 4,3,4
 483.5 660 483.5 660 468 646 c 132,-1,5
 452.5 632 452.5 632 432.5 632 c 4,6,7
 410.5 632 410.5 632 395.5 646 c 132,-1,8
 380.5 660 380.5 660 380.5 688 c 4,9,10
 380.5 717 380.5 717 395.5 730.5 c 132,-1,11
 410.5 744 410.5 744 432.5 744 c 4,0,1
174.5 536 m 1,12,-1
 268.5 536 l 1,13,-1
 384.5 231 l 2,14,15
 394.5 204 394.5 204 403 179 c 128,-1,16
 411.5 154 411.5 154 418.5 130.5 c 128,-1,17
 425.5 107 425.5 107 429.5 85 c 1,18,-1
 433.5 85 l 1,19,20
 439.5 110 439.5 110 452.5 150.5 c 128,-1,21
 465.5 191 465.5 191 479.5 232 c 2,22,-1
 588.5 536 l 1,23,-1
 683.5 536 l 1,24,-1
 452.5 -74 l 2,25,26
 433.5 -124 433.5 -124 408 -161.5 c 128,-1,27
 382.5 -199 382.5 -199 346 -219.5 c 128,-1,28
 309.5 -240 309.5 -240 257.5 -240 c 0,29,30
 233.5 -240 233.5 -240 215.5 -237.5 c 128,-1,31
 197.5 -235 197.5 -235 184.5 -232 c 1,32,-1
 184.5 -162 l 1,33,34
 195.5 -164 195.5 -164 211 -166 c 128,-1,35
 226.5 -168 226.5 -168 243.5 -168 c 0,36,37
 274.5 -168 274.5 -168 297 -156.5 c 128,-1,38
 319.5 -145 319.5 -145 335.5 -123.5 c 128,-1,39
 351.5 -102 351.5 -102 362.5 -73 c 2,40,-1
 390.5 -2 l 1,41,-1
 174.5 536 l 1,12,-1
EndSplineSet
EndChar

StartChar: Z
Encoding: 90 90 66
Width: 858
Flags: W
LayerCount: 2
Fore
SplineSet
218 0 m 1,0,-1
 218 56 l 1,1,-1
 521 499 l 1,2,-1
 229 499 l 1,3,-1
 229 572 l 1,4,-1
 632 572 l 1,5,-1
 632 515 l 1,6,-1
 329 73 l 1,7,-1
 640 73 l 1,8,-1
 640 0 l 1,9,-1
 218 0 l 1,0,-1
434 773 m 0,10,11
 454 773 454 773 469.5 759.5 c 128,-1,12
 485 746 485 746 485 717 c 0,13,14
 485 689 485 689 469.5 675 c 128,-1,15
 454 661 454 661 434 661 c 0,16,17
 412 661 412 661 397 675 c 128,-1,18
 382 689 382 689 382 717 c 0,19,20
 382 746 382 746 397 759.5 c 128,-1,21
 412 773 412 773 434 773 c 0,10,11
EndSplineSet
EndChar

StartChar: a
Encoding: 97 97 67
Width: 858
Flags: W
LayerCount: 2
Fore
SplineSet
376 -10 m 0,0,1
 276 -10 276 -10 216 59.5 c 128,-1,2
 156 129 156 129 156 267 c 256,3,4
 156 405 156 405 216.5 475.5 c 128,-1,5
 277 546 277 546 377 546 c 0,6,7
 439 546 439 546 478.5 523 c 128,-1,8
 518 500 518 500 543 467 c 1,9,-1
 547 467 l 1,10,-1
 561 536 l 1,11,-1
 631 536 l 1,12,-1
 631 118 l 2,13,14
 631 87 631 87 643 74.5 c 128,-1,15
 655 62 655 62 672 62 c 0,16,17
 680 62 680 62 689 64 c 128,-1,18
 698 66 698 66 702 67 c 1,19,-1
 702 3 l 1,20,21
 697 0 697 0 688 -3 c 128,-1,22
 679 -6 679 -6 668 -8 c 128,-1,23
 657 -10 657 -10 646 -10 c 0,24,25
 608 -10 608 -10 583 8 c 128,-1,26
 558 26 558 26 547 72 c 1,27,-1
 543 72 l 1,28,29
 519 38 519 38 479 14 c 128,-1,30
 439 -10 439 -10 376 -10 c 0,0,1
390 63 m 0,31,32
 447 63 447 63 480.5 83.5 c 128,-1,33
 514 104 514 104 529 146 c 128,-1,34
 544 188 544 188 544 250 c 2,35,-1
 544 266 l 2,36,37
 544 366 544 366 511 419.5 c 128,-1,38
 478 473 478 473 389 473 c 0,39,40
 318 473 318 473 282.5 416.5 c 128,-1,41
 247 360 247 360 247 265 c 0,42,43
 247 169 247 169 282.5 116 c 128,-1,44
 318 63 318 63 390 63 c 0,31,32
EndSplineSet
EndChar

StartChar: b
Encoding: 98 98 68
Width: 858
Flags: W
LayerCount: 2
Fore
SplineSet
277 151 m 0,0,1
 222 151 222 151 179.5 175.5 c 128,-1,2
 137 200 137 200 112.5 246 c 128,-1,3
 88 292 88 292 88 354 c 0,4,5
 88 447 88 447 144 509.5 c 128,-1,6
 200 572 200 572 303 603 c 1,7,-1
 326 531 l 1,8,9
 238 503 238 503 204 457 c 128,-1,10
 170 411 170 411 170 353 c 0,11,12
 170 305 170 305 186 276.5 c 128,-1,13
 202 248 202 248 227 235.5 c 128,-1,14
 252 223 252 223 278 223 c 0,15,16
 306 223 306 223 325.5 232 c 128,-1,17
 345 241 345 241 358 258 c 256,18,19
 371 275 371 275 376 299 c 128,-1,20
 381 323 381 323 381 369 c 2,21,-1
 381 447 l 1,22,-1
 461 437 l 1,23,-1
 461 335 l 2,24,25
 461 256 461 256 416.5 203.5 c 128,-1,26
 372 151 372 151 277 151 c 0,0,1
519 228 m 0,27,28
 479 228 479 228 446.5 250 c 128,-1,29
 414 272 414 272 393 333 c 1,30,-1
 448 357 l 1,31,32
 458 325 458 325 476 312.5 c 128,-1,33
 494 300 494 300 519 300 c 0,34,35
 555 300 555 300 581 318.5 c 128,-1,36
 607 337 607 337 629 371 c 1,37,-1
 646 291 l 1,38,39
 620 261 620 261 592 244.5 c 128,-1,40
 564 228 564 228 519 228 c 0,27,28
752 0 m 2,41,42
 717 0 717 0 686.5 7.5 c 128,-1,43
 656 15 656 15 635 37 c 0,44,45
 616 57 616 57 610 81.5 c 128,-1,46
 604 106 604 106 604 148 c 2,47,-1
 604 603 l 1,48,-1
 684 592 l 1,49,-1
 684 152 l 2,50,51
 684 125 684 125 687 112.5 c 128,-1,52
 690 100 690 100 696 92 c 0,53,54
 707 78 707 78 728 75.5 c 128,-1,55
 749 73 749 73 770 73 c 1,56,-1
 762 0 l 1,57,-1
 752 0 l 2,41,42
EndSplineSet
EndChar

StartChar: c
Encoding: 99 99 69
Width: 858
Flags: W
AnchorPoint: "Anchor-1" 429 536 basechar 0
AnchorPoint: "Anchor-0" 429 0 basechar 0
LayerCount: 2
Fore
SplineSet
485 -10 m 0,0,1
 367 -10 367 -10 302 57 c 128,-1,2
 237 124 237 124 237 245 c 0,3,4
 237 325 237 325 266 380.5 c 128,-1,5
 295 436 295 436 349 465 c 1,6,-1
 216 465 l 1,7,-1
 216 537 l 1,8,-1
 642 537 l 1,9,-1
 642 465 l 1,10,-1
 529 465 l 2,11,12
 435 465 435 465 381.5 411.5 c 128,-1,13
 328 358 328 358 328 252 c 0,14,15
 328 165 328 165 371 114.5 c 128,-1,16
 414 64 414 64 494 64 c 0,17,18
 531 64 531 64 565 73.5 c 128,-1,19
 599 83 599 83 631 99 c 1,20,-1
 631 21 l 1,21,22
 602 5 602 5 567 -2.5 c 128,-1,23
 532 -10 532 -10 485 -10 c 0,0,1
EndSplineSet
EndChar

StartChar: d
Encoding: 100 100 70
Width: 858
Flags: W
LayerCount: 2
Fore
SplineSet
411.5 -10 m 0,0,1
 311.5 -10 311.5 -10 251.5 59.5 c 128,-1,2
 191.5 129 191.5 129 191.5 267 c 256,3,4
 191.5 405 191.5 405 252 475.5 c 128,-1,5
 312.5 546 312.5 546 412.5 546 c 0,6,7
 454.5 546 454.5 546 485.5 535.5 c 128,-1,8
 516.5 525 516.5 525 539.5 507 c 128,-1,9
 562.5 489 562.5 489 578.5 467 c 1,10,-1
 584.5 467 l 1,11,12
 583.5 480 583.5 480 581 505.5 c 128,-1,13
 578.5 531 578.5 531 578.5 546 c 2,14,-1
 578.5 760 l 1,15,-1
 666.5 760 l 1,16,-1
 666.5 0 l 1,17,-1
 595.5 0 l 1,18,-1
 582.5 72 l 1,19,-1
 578.5 72 l 1,20,21
 562.5 49 562.5 49 539.5 30.5 c 128,-1,22
 516.5 12 516.5 12 485 1 c 128,-1,23
 453.5 -10 453.5 -10 411.5 -10 c 0,0,1
425.5 63 m 0,24,25
 510.5 63 510.5 63 545 109.5 c 128,-1,26
 579.5 156 579.5 156 579.5 250 c 2,27,-1
 579.5 266 l 2,28,29
 579.5 366 579.5 366 546.5 419.5 c 128,-1,30
 513.5 473 513.5 473 424.5 473 c 0,31,32
 353.5 473 353.5 473 318 416.5 c 128,-1,33
 282.5 360 282.5 360 282.5 265 c 0,34,35
 282.5 169 282.5 169 318 116 c 128,-1,36
 353.5 63 353.5 63 425.5 63 c 0,24,25
EndSplineSet
EndChar

StartChar: e
Encoding: 101 101 71
Width: 858
Flags: W
LayerCount: 2
Fore
SplineSet
437 546 m 0,0,1
 506 546 506 546 555.5 516 c 128,-1,2
 605 486 605 486 631.5 431.5 c 128,-1,3
 658 377 658 377 658 304 c 2,4,-1
 658 251 l 1,5,-1
 291 251 l 1,6,7
 293 160 293 160 337.5 112.5 c 128,-1,8
 382 65 382 65 462 65 c 0,9,10
 513 65 513 65 552.5 74.5 c 128,-1,11
 592 84 592 84 634 102 c 1,12,-1
 634 25 l 1,13,14
 593 7 593 7 553 -1.5 c 128,-1,15
 513 -10 513 -10 458 -10 c 0,16,17
 382 -10 382 -10 323.5 21 c 128,-1,18
 265 52 265 52 232.5 113.5 c 128,-1,19
 200 175 200 175 200 264 c 0,20,21
 200 352 200 352 229.5 415 c 128,-1,22
 259 478 259 478 312.5 512 c 128,-1,23
 366 546 366 546 437 546 c 0,0,1
436 474 m 0,24,25
 373 474 373 474 336.5 433.5 c 128,-1,26
 300 393 300 393 293 321 c 1,27,-1
 566 321 l 1,28,29
 566 367 566 367 552 401 c 128,-1,30
 538 435 538 435 509.5 454.5 c 128,-1,31
 481 474 481 474 436 474 c 0,24,25
EndSplineSet
EndChar

StartChar: f
Encoding: 102 102 72
Width: 858
Flags: W
AnchorPoint: "Anchor-3" 376 603 basechar 0
AnchorPoint: "Anchor-0" 476 603 basechar 0
LayerCount: 2
Fore
SplineSet
541 -178 m 2,0,1
 475 -178 475 -178 428 -148 c 128,-1,2
 381 -118 381 -118 346 -69 c 128,-1,3
 311 -20 311 -20 279 38 c 1,4,-1
 258 109 l 1,5,6
 287 93 287 93 310 82.5 c 128,-1,7
 333 72 333 72 358 66.5 c 128,-1,8
 383 61 383 61 419 61 c 0,9,10
 476 61 476 61 504.5 83 c 128,-1,11
 533 105 533 105 533 144 c 0,12,13
 533 163 533 163 523.5 184 c 128,-1,14
 514 205 514 205 487 230 c 128,-1,15
 460 255 460 255 408 285 c 1,16,-1
 381 306 l 2,17,18
 346 329 346 329 319.5 351.5 c 128,-1,19
 293 374 293 374 279 401 c 128,-1,20
 265 428 265 428 265 462 c 0,21,22
 265 524 265 524 312.5 563.5 c 128,-1,23
 360 603 360 603 439 603 c 0,24,25
 471 603 471 603 500 599.5 c 128,-1,26
 529 596 529 596 556 589 c 1,27,-1
 541 517 l 1,28,29
 515 523 515 523 494.5 526 c 128,-1,30
 474 529 474 529 448 529 c 0,31,32
 397 529 397 529 372 509 c 128,-1,33
 347 489 347 489 347 455 c 0,34,35
 347 437 347 437 357 419 c 128,-1,36
 367 401 367 401 389 383.5 c 128,-1,37
 411 366 411 366 447 347 c 1,38,-1
 475 322 l 1,39,40
 521 296 521 296 552 269 c 128,-1,41
 583 242 583 242 599 211 c 128,-1,42
 615 180 615 180 615 142 c 0,43,44
 615 105 615 105 596.5 70 c 128,-1,45
 578 35 578 35 535.5 12.5 c 128,-1,46
 493 -10 493 -10 421 -10 c 0,47,48
 396 -10 396 -10 367 -8 c 128,-1,49
 338 -6 338 -6 315 -4 c 0,50,51
 268 0 268 0 244.5 13.5 c 128,-1,52
 221 27 221 27 213 43.5 c 128,-1,53
 205 60 205 60 205 73 c 0,54,55
 205 96 205 96 220.5 109 c 128,-1,56
 236 122 236 122 258 122 c 0,57,58
 278 122 278 122 295.5 114 c 128,-1,59
 313 106 313 106 329.5 91.5 c 128,-1,60
 346 77 346 77 362 56 c 1,61,-1
 350 48 l 1,62,63
 384 -7 384 -7 413 -40.5 c 128,-1,64
 442 -74 442 -74 472 -88.5 c 128,-1,65
 502 -103 502 -103 540 -103 c 2,66,-1
 566 -103 l 1,67,-1
 557 -178 l 1,68,-1
 541 -178 l 2,0,1
227 211 m 1,69,-1
 200 282 l 1,70,-1
 391 350 l 1,71,-1
 626 438 l 1,72,-1
 658 368 l 1,73,-1
 451 297 l 1,74,-1
 227 211 l 1,69,-1
EndSplineSet
EndChar

StartChar: g
Encoding: 103 103 73
Width: 858
Flags: W
LayerCount: 2
Fore
SplineSet
411.5 546 m 0,0,1
 464.5 546 464.5 546 507 526 c 128,-1,2
 549.5 506 549.5 506 579.5 465 c 1,3,-1
 584.5 465 l 1,4,-1
 596.5 536 l 1,5,-1
 666.5 536 l 1,6,-1
 666.5 -9 l 2,7,8
 666.5 -85 666.5 -85 640.5 -136.5 c 128,-1,9
 614.5 -188 614.5 -188 561.5 -214 c 128,-1,10
 508.5 -240 508.5 -240 426.5 -240 c 0,11,12
 368.5 -240 368.5 -240 320 -231.5 c 128,-1,13
 271.5 -223 271.5 -223 233.5 -206 c 1,14,-1
 233.5 -125 l 1,15,16
 271.5 -145 271.5 -145 322.5 -156 c 128,-1,17
 373.5 -167 373.5 -167 431.5 -167 c 0,18,19
 500.5 -167 500.5 -167 540 -126.5 c 128,-1,20
 579.5 -86 579.5 -86 579.5 -16 c 2,21,-1
 579.5 5 l 2,22,23
 579.5 17 579.5 17 580.5 39.5 c 128,-1,24
 581.5 62 581.5 62 582.5 71 c 1,25,-1
 578.5 71 l 1,26,27
 550.5 30 550.5 30 509 10 c 128,-1,28
 467.5 -10 467.5 -10 412.5 -10 c 0,29,30
 308.5 -10 308.5 -10 250 63 c 128,-1,31
 191.5 136 191.5 136 191.5 267 c 0,32,33
 191.5 395 191.5 395 250 470.5 c 128,-1,34
 308.5 546 308.5 546 411.5 546 c 0,0,1
423.5 472 m 0,35,36
 378.5 472 378.5 472 347 448 c 128,-1,37
 315.5 424 315.5 424 299 378 c 128,-1,38
 282.5 332 282.5 332 282.5 266 c 0,39,40
 282.5 167 282.5 167 319 114.5 c 128,-1,41
 355.5 62 355.5 62 425.5 62 c 0,42,43
 466.5 62 466.5 62 495.5 72.5 c 128,-1,44
 524.5 83 524.5 83 543.5 105.5 c 128,-1,45
 562.5 128 562.5 128 571.5 163 c 128,-1,46
 580.5 198 580.5 198 580.5 246 c 2,47,-1
 580.5 267 l 2,48,49
 580.5 340 580.5 340 564 385 c 128,-1,50
 547.5 430 547.5 430 512.5 451 c 128,-1,51
 477.5 472 477.5 472 423.5 472 c 0,35,36
EndSplineSet
EndChar

StartChar: h
Encoding: 104 104 74
Width: 858
Flags: W
LayerCount: 2
Fore
SplineSet
291 537 m 2,0,1
 291 518 291 518 289.5 498 c 128,-1,2
 288 478 288 478 286 462 c 1,3,-1
 292 462 l 1,4,5
 309 490 309 490 335 508 c 128,-1,6
 361 526 361 526 393 535.5 c 128,-1,7
 425 545 425 545 459 545 c 0,8,9
 524 545 524 545 567.5 524.5 c 128,-1,10
 611 504 611 504 633 461 c 128,-1,11
 655 418 655 418 655 349 c 2,12,-1
 655 0 l 1,13,-1
 568 0 l 1,14,-1
 568 343 l 2,15,16
 568 408 568 408 539 440 c 128,-1,17
 510 472 510 472 448 472 c 0,18,19
 388 472 388 472 354 449.5 c 128,-1,20
 320 427 320 427 305.5 383.5 c 128,-1,21
 291 340 291 340 291 277 c 2,22,-1
 291 0 l 1,23,-1
 203 0 l 1,24,-1
 203 760 l 1,25,-1
 291 760 l 1,26,-1
 291 537 l 2,0,1
EndSplineSet
EndChar

StartChar: i
Encoding: 105 105 75
Width: 858
Flags: W
LayerCount: 2
Fore
SplineSet
472.5 536 m 1,0,-1
 472.5 0 l 1,1,-1
 384.5 0 l 1,2,-1
 384.5 536 l 1,3,-1
 472.5 536 l 1,0,-1
429.5 737 m 0,4,5
 449.5 737 449.5 737 465 723.5 c 128,-1,6
 480.5 710 480.5 710 480.5 681 c 0,7,8
 480.5 653 480.5 653 465 639 c 128,-1,9
 449.5 625 449.5 625 429.5 625 c 0,10,11
 407.5 625 407.5 625 392.5 639 c 128,-1,12
 377.5 653 377.5 653 377.5 681 c 0,13,14
 377.5 710 377.5 710 392.5 723.5 c 128,-1,15
 407.5 737 407.5 737 429.5 737 c 0,4,5
EndSplineSet
Substitution2: "Single Substitution lookup 105 subtable" dotlessi
Substitution2: "Single Substitution lookup 104 subtable" dotlessi
EndChar

StartChar: j
Encoding: 106 106 76
Width: 858
Flags: W
AnchorPoint: "Anchor-1" 429 536 basechar 0
AnchorPoint: "Anchor-0" 429 0 basechar 0
LayerCount: 2
Fore
SplineSet
618 536 m 1,0,-1
 618 470 l 1,1,-1
 507 313 l 1,2,-1
 608 313 l 1,3,-1
 608 243 l 1,4,-1
 457 243 l 1,5,-1
 334 68 l 1,6,-1
 625 68 l 1,7,-1
 625 0 l 1,8,-1
 233 0 l 1,9,-1
 233 58 l 1,10,-1
 363 243 l 1,11,-1
 251 243 l 1,12,-1
 251 313 l 1,13,-1
 412 313 l 1,14,-1
 521 468 l 1,15,-1
 250 468 l 1,16,-1
 250 536 l 1,17,-1
 618 536 l 1,0,-1
EndSplineSet
Substitution2: "Single Substitution lookup 105 subtable" uni0237
Substitution2: "Single Substitution lookup 104 subtable" uni0237
EndChar

StartChar: k
Encoding: 107 107 77
Width: 858
Flags: W
LayerCount: 2
Fore
SplineSet
296 363 m 2,0,1
 296 347 296 347 294.5 321 c 128,-1,2
 293 295 293 295 292 276 c 1,3,-1
 296 276 l 1,4,5
 302 284 302 284 314 299 c 128,-1,6
 326 314 326 314 338.5 329.5 c 128,-1,7
 351 345 351 345 360 355 c 2,8,-1
 531 536 l 1,9,-1
 634 536 l 1,10,-1
 417 307 l 1,11,-1
 649 0 l 1,12,-1
 543 0 l 1,13,-1
 357 250 l 1,14,-1
 296 197 l 1,15,-1
 296 0 l 1,16,-1
 209 0 l 1,17,-1
 209 760 l 1,18,-1
 296 760 l 1,19,-1
 296 363 l 2,0,1
EndSplineSet
EndChar

StartChar: l
Encoding: 108 108 78
Width: 858
Flags: W
LayerCount: 2
Fore
SplineSet
364.5 105 m 0,0,1
 293.5 105 293.5 105 240.5 133 c 128,-1,2
 187.5 161 187.5 161 158.5 213 c 128,-1,3
 129.5 265 129.5 265 129.5 337 c 0,4,5
 129.5 404 129.5 404 159.5 457.5 c 128,-1,6
 189.5 511 189.5 511 246.5 548 c 128,-1,7
 303.5 585 303.5 585 384.5 603 c 1,8,-1
 404.5 528 l 1,9,10
 311.5 509 311.5 509 261.5 462.5 c 128,-1,11
 211.5 416 211.5 416 211.5 333 c 0,12,13
 211.5 255 211.5 255 254.5 217 c 128,-1,14
 297.5 179 297.5 179 361.5 179 c 0,15,16
 393.5 179 393.5 179 418.5 184 c 128,-1,17
 443.5 189 443.5 189 465.5 199 c 1,18,-1
 496.5 132 l 1,19,20
 469.5 119 469.5 119 436 112 c 128,-1,21
 402.5 105 402.5 105 364.5 105 c 0,0,1
329.5 304 m 1,22,-1
 311.5 377 l 1,23,-1
 578.5 431 l 1,24,-1
 578.5 355 l 1,25,-1
 329.5 304 l 1,22,-1
710.5 0 m 2,26,27
 675.5 0 675.5 0 645 7.5 c 128,-1,28
 614.5 15 614.5 15 593.5 37 c 0,29,30
 574.5 57 574.5 57 568.5 81.5 c 128,-1,31
 562.5 106 562.5 106 562.5 148 c 2,32,-1
 562.5 603 l 1,33,-1
 642.5 592 l 1,34,-1
 642.5 152 l 2,35,36
 642.5 125 642.5 125 645.5 112.5 c 128,-1,37
 648.5 100 648.5 100 654.5 92 c 0,38,39
 665.5 78 665.5 78 686.5 75.5 c 128,-1,40
 707.5 73 707.5 73 728.5 73 c 1,41,-1
 720.5 0 l 1,42,-1
 710.5 0 l 2,26,27
EndSplineSet
EndChar

StartChar: m
Encoding: 109 109 79
Width: 858
Flags: W
LayerCount: 2
Fore
SplineSet
682 0 m 2,0,1
 639 0 639 0 610.5 9.5 c 128,-1,2
 582 19 582 19 565 37 c 0,3,4
 549 54 549 54 541.5 79 c 128,-1,5
 534 104 534 104 534 148 c 2,6,-1
 534 603 l 1,7,-1
 614 592 l 1,8,-1
 614 152 l 2,9,10
 614 125 614 125 617 112.5 c 128,-1,11
 620 100 620 100 626 92 c 0,12,13
 637 78 637 78 658.5 75.5 c 128,-1,14
 680 73 680 73 700 73 c 1,15,-1
 693 0 l 1,16,-1
 682 0 l 2,0,1
280 152 m 0,17,18
 260 152 260 152 240 163.5 c 128,-1,19
 220 175 220 175 203 193.5 c 128,-1,20
 186 212 186 212 175.5 233.5 c 128,-1,21
 165 255 165 255 165 274 c 0,22,23
 165 291 165 291 178 303.5 c 128,-1,24
 191 316 191 316 221 316 c 2,25,-1
 546 316 l 1,26,-1
 546 244 l 1,27,-1
 325 244 l 1,28,-1
 325 215 l 2,29,30
 325 181 325 181 311 166.5 c 128,-1,31
 297 152 297 152 280 152 c 0,17,18
245 300 m 1,32,-1
 245 440 l 2,33,34
 245 468 245 468 242 480 c 128,-1,35
 239 492 239 492 233 500 c 0,36,37
 223 514 223 514 201 517 c 128,-1,38
 179 520 179 520 158 520 c 1,39,-1
 166 592 l 1,40,-1
 177 592 l 2,41,42
 220 592 220 592 248.5 583 c 128,-1,43
 277 574 277 574 294 556 c 0,44,45
 305 545 305 545 312 530 c 128,-1,46
 319 515 319 515 322 494.5 c 128,-1,47
 325 474 325 474 325 444 c 2,48,-1
 325 300 l 1,49,-1
 245 300 l 1,32,-1
EndSplineSet
EndChar

StartChar: n
Encoding: 110 110 80
Width: 858
Flags: W
LayerCount: 2
Fore
SplineSet
668 0 m 2,0,1
 633 0 633 0 602.5 7.5 c 128,-1,2
 572 15 572 15 551 37 c 0,3,4
 532 57 532 57 526 81.5 c 128,-1,5
 520 106 520 106 520 148 c 2,6,-1
 520 603 l 1,7,-1
 600 592 l 1,8,-1
 600 152 l 2,9,10
 600 125 600 125 603 112.5 c 128,-1,11
 606 100 606 100 612 92 c 0,12,13
 623 78 623 78 644 75.5 c 128,-1,14
 665 73 665 73 686 73 c 1,15,-1
 678 0 l 1,16,-1
 668 0 l 2,0,1
288 214 m 0,17,18
 270 214 270 214 249.5 226.5 c 128,-1,19
 229 239 229 239 211.5 259 c 128,-1,20
 194 279 194 279 183 302.5 c 128,-1,21
 172 326 172 326 172 348 c 0,22,23
 172 371 172 371 185.5 385.5 c 128,-1,24
 199 400 199 400 232 400 c 2,25,-1
 556 400 l 1,26,-1
 556 328 l 1,27,-1
 339 328 l 1,28,-1
 339 271 l 2,29,30
 339 242 339 242 325 228 c 128,-1,31
 311 214 311 214 288 214 c 0,17,18
EndSplineSet
EndChar

StartChar: o
Encoding: 111 111 81
Width: 858
Flags: W
LayerCount: 2
Fore
SplineSet
677 269 m 0,0,1
 677 202 677 202 659.5 150.5 c 128,-1,2
 642 99 642 99 609.5 63 c 128,-1,3
 577 27 577 27 530.5 8.5 c 128,-1,4
 484 -10 484 -10 427 -10 c 0,5,6
 374 -10 374 -10 329 8.5 c 128,-1,7
 284 27 284 27 251 63 c 128,-1,8
 218 99 218 99 199.5 150.5 c 128,-1,9
 181 202 181 202 181 269 c 0,10,11
 181 358 181 358 211 419.5 c 128,-1,12
 241 481 241 481 297 513.5 c 128,-1,13
 353 546 353 546 430 546 c 0,14,15
 503 546 503 546 558.5 513.5 c 128,-1,16
 614 481 614 481 645.5 419.5 c 128,-1,17
 677 358 677 358 677 269 c 0,0,1
272 269 m 0,18,19
 272 206 272 206 288.5 159.5 c 128,-1,20
 305 113 305 113 340 88 c 128,-1,21
 375 63 375 63 429 63 c 256,22,23
 483 63 483 63 518 88 c 128,-1,24
 553 113 553 113 569.5 159.5 c 128,-1,25
 586 206 586 206 586 269 c 0,26,27
 586 333 586 333 569 378 c 128,-1,28
 552 423 552 423 517.5 447.5 c 128,-1,29
 483 472 483 472 428 472 c 0,30,31
 346 472 346 472 309 418 c 128,-1,32
 272 364 272 364 272 269 c 0,18,19
EndSplineSet
EndChar

StartChar: p
Encoding: 112 112 82
Width: 858
Flags: W
LayerCount: 2
Fore
SplineSet
410 161 m 0,0,1
 371 161 371 161 340 173 c 128,-1,2
 309 185 309 185 289 204 c 0,3,4
 264 229 264 229 251.5 262 c 128,-1,5
 239 295 239 295 239 350 c 2,6,-1
 239 440 l 2,7,8
 239 467 239 467 236 479.5 c 128,-1,9
 233 492 233 492 227 500 c 0,10,11
 217 514 217 514 195 516.5 c 128,-1,12
 173 519 173 519 152 519 c 1,13,-1
 160 592 l 1,14,-1
 170 592 l 2,15,16
 214 592 214 592 242.5 582.5 c 128,-1,17
 271 573 271 573 288 555 c 0,18,19
 305 538 305 538 312 513 c 128,-1,20
 319 488 319 488 319 443 c 2,21,-1
 319 357 l 2,22,23
 319 311 319 311 327 288.5 c 128,-1,24
 335 266 335 266 348 253 c 0,25,26
 359 243 359 243 376.5 238 c 128,-1,27
 394 233 394 233 418 233 c 0,28,29
 458 233 458 233 493 252.5 c 128,-1,30
 528 272 528 272 551 298 c 1,31,-1
 551 208 l 1,32,33
 523 187 523 187 488.5 174 c 128,-1,34
 454 161 454 161 410 161 c 0,0,1
688 0 m 2,35,36
 645 0 645 0 616 9.5 c 128,-1,37
 587 19 587 19 570 37 c 0,38,39
 554 54 554 54 546.5 79 c 128,-1,40
 539 104 539 104 539 148 c 2,41,-1
 539 603 l 1,42,-1
 619 592 l 1,43,-1
 619 152 l 2,44,45
 619 125 619 125 622 112.5 c 128,-1,46
 625 100 625 100 631 92 c 0,47,48
 642 78 642 78 663.5 75.5 c 128,-1,49
 685 73 685 73 706 73 c 1,50,-1
 698 0 l 1,51,-1
 688 0 l 2,35,36
EndSplineSet
EndChar

StartChar: q
Encoding: 113 113 83
Width: 858
Flags: W
AnchorPoint: "Anchor-1" 391 765 basechar 0
AnchorPoint: "Anchor-0" 391 0 basechar 0
LayerCount: 2
Fore
SplineSet
330 765 m 0,0,1
 349 765 349 765 367 761 c 128,-1,2
 385 757 385 757 395 752 c 1,3,-1
 395 679 l 1,4,5
 388 682 388 682 374 685.5 c 128,-1,6
 360 689 360 689 343 689 c 0,7,8
 321 689 321 689 308.5 676 c 128,-1,9
 296 663 296 663 296 631 c 2,10,-1
 296 363 l 2,11,12
 296 347 296 347 295 321 c 128,-1,13
 294 295 294 295 292 276 c 1,14,-1
 296 276 l 1,15,16
 302 285 302 285 314 299.5 c 128,-1,17
 326 314 326 314 338.5 329.5 c 128,-1,18
 351 345 351 345 360 355 c 2,19,-1
 531 536 l 1,20,-1
 634 536 l 1,21,-1
 417 307 l 1,22,-1
 649 0 l 1,23,-1
 543 0 l 1,24,-1
 357 250 l 1,25,-1
 296 197 l 1,26,-1
 296 0 l 1,27,-1
 209 0 l 1,28,-1
 209 625 l 2,29,30
 209 765 209 765 330 765 c 0,0,1
EndSplineSet
EndChar

StartChar: r
Encoding: 114 114 84
Width: 858
Flags: W
LayerCount: 2
Fore
SplineSet
522.5 546 m 0,0,1
 537.5 546 537.5 546 555 544.5 c 128,-1,2
 572.5 543 572.5 543 585.5 540 c 1,3,-1
 574.5 459 l 1,4,5
 561.5 462 561.5 462 546 464 c 128,-1,6
 530.5 466 530.5 466 516.5 466 c 0,7,8
 485.5 466 485.5 466 457.5 453 c 128,-1,9
 429.5 440 429.5 440 407.5 416.5 c 128,-1,10
 385.5 393 385.5 393 373 360 c 128,-1,11
 360.5 327 360.5 327 360.5 286 c 2,12,-1
 360.5 0 l 1,13,-1
 272.5 0 l 1,14,-1
 272.5 536 l 1,15,-1
 344.5 536 l 1,16,-1
 354.5 438 l 1,17,-1
 358.5 438 l 1,18,19
 375.5 468 375.5 468 399.5 492.5 c 128,-1,20
 423.5 517 423.5 517 454.5 531.5 c 128,-1,21
 485.5 546 485.5 546 522.5 546 c 0,0,1
EndSplineSet
EndChar

StartChar: s
Encoding: 115 115 85
Width: 858
Flags: W
LayerCount: 2
Fore
SplineSet
476 0 m 2,0,1
 420 0 420 0 375.5 20.5 c 128,-1,2
 331 41 331 41 295.5 74 c 128,-1,3
 260 107 260 107 231.5 146.5 c 128,-1,4
 203 186 203 186 179 225 c 1,5,-1
 190 265 l 1,6,7
 233 270 233 270 272.5 287.5 c 128,-1,8
 312 305 312 305 337.5 337 c 128,-1,9
 363 369 363 369 363 416 c 0,10,11
 363 472 363 472 331 501 c 128,-1,12
 299 530 299 530 246 530 c 0,13,14
 212 530 212 530 182.5 523 c 128,-1,15
 153 516 153 516 118 499 c 1,16,-1
 92 568 l 1,17,18
 129 584 129 584 169 593.5 c 128,-1,19
 209 603 209 603 249 603 c 0,20,21
 308 603 308 603 351.5 582 c 128,-1,22
 395 561 395 561 419.5 520 c 128,-1,23
 444 479 444 479 444 418 c 0,24,25
 444 364 444 364 421.5 321.5 c 128,-1,26
 399 279 399 279 361.5 249 c 128,-1,27
 324 219 324 219 277.5 203.5 c 128,-1,28
 231 188 231 188 184 188 c 0,29,30
 138 188 138 188 115 202.5 c 128,-1,31
 92 217 92 217 92 249 c 0,32,33
 92 274 92 274 109 287.5 c 128,-1,34
 126 301 126 301 153 301 c 0,35,36
 179 301 179 301 203.5 290 c 128,-1,37
 228 279 228 279 262 246 c 1,38,-1
 249 246 l 1,39,40
 296 178 296 178 332.5 140.5 c 128,-1,41
 369 103 369 103 405 89 c 128,-1,42
 441 75 441 75 485 75 c 2,43,-1
 499 75 l 1,44,-1
 490 0 l 1,45,-1
 476 0 l 2,0,1
498 286 m 0,46,47
 465 286 465 286 433.5 294 c 128,-1,48
 402 302 402 302 379 318 c 1,49,-1
 388 389 l 1,50,51
 409 376 409 376 436.5 366.5 c 128,-1,52
 464 357 464 357 495 357 c 0,53,54
 539 357 539 357 566.5 367 c 128,-1,55
 594 377 594 377 625 400 c 1,56,-1
 640 329 l 1,57,58
 611 309 611 309 579.5 297.5 c 128,-1,59
 548 286 548 286 498 286 c 0,46,47
748 0 m 2,60,61
 713 0 713 0 682.5 7.5 c 128,-1,62
 652 15 652 15 631 37 c 0,63,64
 612 57 612 57 606 81.5 c 128,-1,65
 600 106 600 106 600 148 c 2,66,-1
 600 603 l 1,67,-1
 680 592 l 1,68,-1
 680 152 l 2,69,70
 680 125 680 125 683 112.5 c 128,-1,71
 686 100 686 100 692 92 c 0,72,73
 703 78 703 78 724 75.5 c 128,-1,74
 745 73 745 73 766 73 c 1,75,-1
 758 0 l 1,76,-1
 748 0 l 2,60,61
EndSplineSet
EndChar

StartChar: t
Encoding: 116 116 86
Width: 858
Flags: W
AnchorPoint: "Anchor-3" 374 603 basechar 0
AnchorPoint: "Anchor-2" 399 0 basechar 0
AnchorPoint: "Anchor-1" 447 0 basechar 0
AnchorPoint: "Anchor-0" 453 603 basechar 0
LayerCount: 2
Fore
SplineSet
428 -10 m 0,0,1
 364 -10 364 -10 318.5 11.5 c 128,-1,2
 273 33 273 33 249 71.5 c 128,-1,3
 225 110 225 110 225 162 c 0,4,5
 225 230 225 230 268 274.5 c 128,-1,6
 311 319 311 319 387 359 c 0,7,8
 428 381 428 381 453.5 397 c 128,-1,9
 479 413 479 413 490.5 429 c 128,-1,10
 502 445 502 445 502 467 c 0,11,12
 502 501 502 501 478 515.5 c 128,-1,13
 454 530 454 530 416 530 c 0,14,15
 381 530 381 530 351.5 524 c 128,-1,16
 322 518 322 518 292 504 c 1,17,-1
 267 572 l 1,18,19
 300 586 300 586 337.5 594.5 c 128,-1,20
 375 603 375 603 418 603 c 0,21,22
 474 603 474 603 510 586 c 128,-1,23
 546 569 546 569 564 538.5 c 128,-1,24
 582 508 582 508 582 469 c 0,25,26
 582 427 582 427 565 398.5 c 128,-1,27
 548 370 548 370 519.5 348.5 c 128,-1,28
 491 327 491 327 454 307 c 0,29,30
 399 277 399 277 367 254.5 c 128,-1,31
 335 232 335 232 321.5 209 c 128,-1,32
 308 186 308 186 308 154 c 0,33,34
 308 114 308 114 340 88.5 c 128,-1,35
 372 63 372 63 430 63 c 0,36,37
 478 63 478 63 517 76.5 c 128,-1,38
 556 90 556 90 596 115 c 1,39,-1
 633 44 l 1,40,41
 586 18 586 18 539.5 4 c 128,-1,42
 493 -10 493 -10 428 -10 c 0,0,1
EndSplineSet
EndChar

StartChar: u
Encoding: 117 117 87
Width: 858
Flags: W
LayerCount: 2
Fore
SplineSet
656 536 m 1,0,-1
 656 0 l 1,1,-1
 584 0 l 1,2,-1
 571 71 l 1,3,-1
 567 71 l 1,4,5
 550 43 550 43 523 25 c 128,-1,6
 496 7 496 7 464 -1.5 c 128,-1,7
 432 -10 432 -10 397 -10 c 0,8,9
 333 -10 333 -10 289.5 10.5 c 128,-1,10
 246 31 246 31 224 74 c 128,-1,11
 202 117 202 117 202 185 c 2,12,-1
 202 536 l 1,13,-1
 291 536 l 1,14,-1
 291 191 l 2,15,16
 291 127 291 127 320 95 c 128,-1,17
 349 63 349 63 410 63 c 0,18,19
 470 63 470 63 504.5 85.5 c 128,-1,20
 539 108 539 108 553.5 151.5 c 128,-1,21
 568 195 568 195 568 257 c 2,22,-1
 568 536 l 1,23,-1
 656 536 l 1,0,-1
EndSplineSet
EndChar

StartChar: v
Encoding: 118 118 88
Width: 858
Flags: W
LayerCount: 2
Fore
SplineSet
378 0 m 1,0,-1
 175 536 l 1,1,-1
 269 536 l 1,2,-1
 383 220 l 2,3,4
 391 198 391 198 400 171 c 128,-1,5
 409 144 409 144 416 119.5 c 128,-1,6
 423 95 423 95 426 78 c 1,7,-1
 430 78 l 1,8,9
 434 95 434 95 441.5 120 c 128,-1,10
 449 145 449 145 458.5 172 c 128,-1,11
 468 199 468 199 475 220 c 2,12,-1
 589 536 l 1,13,-1
 683 536 l 1,14,-1
 479 0 l 1,15,-1
 378 0 l 1,0,-1
EndSplineSet
EndChar

StartChar: w
Encoding: 119 119 89
Width: 858
Flags: W
AnchorPoint: "Anchor-1" 419.5 536 basechar 0
AnchorPoint: "Anchor-0" 418.5 0 basechar 0
LayerCount: 2
Fore
SplineSet
358.5 766 m 5,0,1
 369.5 744 369.5 744 386 716.5 c 132,-1,2
 402.5 689 402.5 689 421 663 c 132,-1,3
 439.5 637 439.5 637 454.5 618 c 5,4,-1
 454.5 606 l 5,5,-1
 395.5 606 l 5,6,7
 378.5 620 378.5 620 357.5 639.5 c 132,-1,8
 336.5 659 336.5 659 316 680.5 c 132,-1,9
 295.5 702 295.5 702 279 722 c 132,-1,10
 262.5 742 262.5 742 253.5 756 c 5,11,-1
 253.5 766 l 5,12,-1
 358.5 766 l 5,0,1
656.5 541 m 0,13,14
 668.5 541 668.5 541 678.5 539 c 128,-1,15
 688.5 537 688.5 537 697.5 535 c 1,16,-1
 697.5 467 l 1,17,18
 684.5 472 684.5 472 663.5 472 c 0,19,20
 641.5 472 641.5 472 627.5 452 c 128,-1,21
 613.5 432 613.5 432 599.5 390 c 2,22,-1
 476.5 0 l 1,23,-1
 359.5 0 l 1,24,-1
 160.5 536 l 1,25,-1
 252.5 536 l 1,26,-1
 379.5 181 l 2,27,28
 394.5 139 394.5 139 404.5 107.5 c 128,-1,29
 414.5 76 414.5 76 416.5 62 c 1,30,-1
 420.5 62 l 1,31,32
 424.5 83 424.5 83 432.5 119 c 128,-1,33
 440.5 155 440.5 155 451.5 189 c 2,34,-1
 521.5 407 l 2,35,36
 538.5 459 538.5 459 555 488 c 128,-1,37
 571.5 517 571.5 517 595 529 c 128,-1,38
 618.5 541 618.5 541 656.5 541 c 0,13,14
EndSplineSet
EndChar

StartChar: x
Encoding: 120 120 90
Width: 858
Flags: W
LayerCount: 2
Fore
SplineSet
376.5 274 m 1,0,-1
 191.5 536 l 1,1,-1
 291.5 536 l 1,2,-1
 429.5 334 l 1,3,-1
 566.5 536 l 1,4,-1
 665.5 536 l 1,5,-1
 480.5 274 l 1,6,-1
 675.5 0 l 1,7,-1
 575.5 0 l 1,8,-1
 429.5 214 l 1,9,-1
 281.5 0 l 1,10,-1
 182.5 0 l 1,11,-1
 376.5 274 l 1,0,-1
EndSplineSet
EndChar

StartChar: y
Encoding: 121 121 91
Width: 858
Flags: W
LayerCount: 2
Fore
SplineSet
400 161 m 0,0,1
 343 161 343 161 299 182 c 128,-1,2
 255 203 255 203 223.5 241.5 c 128,-1,3
 192 280 192 280 172 333 c 1,4,5
 232 350 232 350 267.5 378 c 128,-1,6
 303 406 303 406 303 452 c 0,7,8
 303 489 303 489 278.5 510 c 128,-1,9
 254 531 254 531 212 531 c 0,10,11
 194 531 194 531 183.5 529.5 c 128,-1,12
 173 528 173 528 161 526 c 1,13,-1
 143 594 l 1,14,15
 154 597 154 597 171.5 600 c 128,-1,16
 189 603 189 603 217 603 c 0,17,18
 268 603 268 603 305.5 585.5 c 128,-1,19
 343 568 343 568 363.5 534.5 c 128,-1,20
 384 501 384 501 384 453 c 0,21,22
 384 393 384 393 348.5 353 c 128,-1,23
 313 313 313 313 254 290 c 1,24,-1
 271 309 l 1,25,26
 284 279 284 279 317 256 c 128,-1,27
 350 233 350 233 398 233 c 0,28,29
 450 233 450 233 487.5 253 c 128,-1,30
 525 273 525 273 550 300 c 1,31,-1
 550 209 l 1,32,33
 522 188 522 188 487 174.5 c 128,-1,34
 452 161 452 161 400 161 c 0,0,1
697 0 m 2,35,36
 654 0 654 0 626 9.5 c 128,-1,37
 598 19 598 19 580 37 c 0,38,39
 563 54 563 54 555.5 79 c 128,-1,40
 548 104 548 104 548 148 c 2,41,-1
 548 603 l 1,42,-1
 628 593 l 1,43,-1
 628 152 l 2,44,45
 628 124 628 124 631 112 c 128,-1,46
 634 100 634 100 643 90 c 0,47,48
 654 77 654 77 673.5 75 c 128,-1,49
 693 73 693 73 715 73 c 1,50,-1
 707 0 l 1,51,-1
 697 0 l 2,35,36
EndSplineSet
EndChar

StartChar: z
Encoding: 122 122 92
Width: 858
Flags: W
LayerCount: 2
Fore
SplineSet
625 0 m 1,0,-1
 233 0 l 1,1,-1
 233 58 l 1,2,-1
 521 468 l 1,3,-1
 250 468 l 1,4,-1
 250 536 l 1,5,-1
 618 536 l 1,6,-1
 618 470 l 1,7,-1
 334 68 l 1,8,-1
 625 68 l 1,9,-1
 625 0 l 1,0,-1
EndSplineSet
EndChar

StartChar: at
Encoding: 64 64 93
Width: 858
Flags: W
LayerCount: 2
Fore
SplineSet
820.5 357 m 0,0,1
 820.5 311 820.5 311 810 267 c 128,-1,2
 799.5 223 799.5 223 777.5 187.5 c 128,-1,3
 755.5 152 755.5 152 723.5 130.5 c 128,-1,4
 691.5 109 691.5 109 647.5 109 c 0,5,6
 601.5 109 601.5 109 575 135.5 c 128,-1,7
 548.5 162 548.5 162 542.5 196 c 1,8,-1
 537.5 196 l 1,9,10
 519.5 159 519.5 159 484.5 134 c 128,-1,11
 449.5 109 449.5 109 396.5 109 c 0,12,13
 320.5 109 320.5 109 279 160 c 128,-1,14
 237.5 211 237.5 211 237.5 295 c 0,15,16
 237.5 361 237.5 361 263.5 411.5 c 128,-1,17
 289.5 462 289.5 462 337 491 c 128,-1,18
 384.5 520 384.5 520 449.5 520 c 0,19,20
 493.5 520 493.5 520 536 512.5 c 128,-1,21
 578.5 505 578.5 505 602.5 496 c 1,22,-1
 592.5 293 l 2,23,24
 591.5 275 591.5 275 591.5 267.5 c 128,-1,25
 591.5 260 591.5 260 591.5 257 c 0,26,27
 591.5 205 591.5 205 610 188 c 128,-1,28
 628.5 171 628.5 171 653.5 171 c 0,29,30
 684.5 171 684.5 171 706 196.5 c 128,-1,31
 727.5 222 727.5 222 739 264.5 c 128,-1,32
 750.5 307 750.5 307 750.5 358 c 0,33,34
 750.5 451 750.5 451 713 515.5 c 128,-1,35
 675.5 580 675.5 580 610 614 c 128,-1,36
 544.5 648 544.5 648 461.5 648 c 0,37,38
 376.5 648 376.5 648 310.5 621 c 128,-1,39
 244.5 594 244.5 594 200 545 c 128,-1,40
 155.5 496 155.5 496 132.5 429.5 c 128,-1,41
 109.5 363 109.5 363 109.5 283 c 0,42,43
 109.5 185 109.5 185 144.5 116.5 c 128,-1,44
 179.5 48 179.5 48 247 12.5 c 128,-1,45
 314.5 -23 314.5 -23 412.5 -23 c 0,46,47
 473.5 -23 473.5 -23 529 -9.5 c 128,-1,48
 584.5 4 584.5 4 627.5 20 c 1,49,-1
 627.5 -48 l 1,50,51
 584.5 -66 584.5 -66 531 -77.5 c 128,-1,52
 477.5 -89 477.5 -89 412.5 -89 c 0,53,54
 294.5 -89 294.5 -89 210.5 -45 c 128,-1,55
 126.5 -1 126.5 -1 82 81.5 c 128,-1,56
 37.5 164 37.5 164 37.5 280 c 0,57,58
 37.5 373 37.5 373 66.5 452.5 c 128,-1,59
 95.5 532 95.5 532 150.5 590.5 c 128,-1,60
 205.5 649 205.5 649 284 681.5 c 128,-1,61
 362.5 714 362.5 714 461.5 714 c 0,62,63
 539.5 714 539.5 714 605 689.5 c 128,-1,64
 670.5 665 670.5 665 719 618.5 c 128,-1,65
 767.5 572 767.5 572 794 506 c 128,-1,66
 820.5 440 820.5 440 820.5 357 c 0,0,1
315.5 293 m 0,67,68
 315.5 229 315.5 229 341 200 c 128,-1,69
 366.5 171 366.5 171 409.5 171 c 0,70,71
 465.5 171 465.5 171 490 213 c 128,-1,72
 514.5 255 514.5 255 518.5 322 c 2,73,-1
 524.5 447 l 1,74,75
 511.5 451 511.5 451 491.5 454 c 128,-1,76
 471.5 457 471.5 457 450.5 457 c 0,77,78
 401.5 457 401.5 457 371.5 433 c 128,-1,79
 341.5 409 341.5 409 328.5 371.5 c 128,-1,80
 315.5 334 315.5 334 315.5 293 c 0,67,68
EndSplineSet
EndChar

StartChar: ampersand
Encoding: 38 38 94
Width: 858
Flags: W
LayerCount: 2
Fore
SplineSet
341.5 725 m 0,0,1
 395.5 725 395.5 725 434 706.5 c 128,-1,2
 472.5 688 472.5 688 493.5 654 c 128,-1,3
 514.5 620 514.5 620 514.5 571 c 0,4,5
 514.5 508 514.5 508 474 464 c 128,-1,6
 433.5 420 433.5 420 371.5 384 c 1,7,-1
 564.5 198 l 1,8,9
 590.5 229 590.5 229 607 269.5 c 128,-1,10
 623.5 310 623.5 310 634.5 357 c 1,11,-1
 723.5 357 l 1,12,13
 707.5 293 707.5 293 683.5 238 c 128,-1,14
 659.5 183 659.5 183 621.5 142 c 1,15,-1
 767.5 0 l 1,16,-1
 648.5 0 l 1,17,-1
 561.5 84 l 1,18,19
 530.5 56 530.5 56 494.5 35 c 128,-1,20
 458.5 14 458.5 14 415 2 c 128,-1,21
 371.5 -10 371.5 -10 315.5 -10 c 0,22,23
 246.5 -10 246.5 -10 196 12.5 c 128,-1,24
 145.5 35 145.5 35 118 79 c 128,-1,25
 90.5 123 90.5 123 90.5 186 c 0,26,27
 90.5 237 90.5 237 109 274 c 128,-1,28
 127.5 311 127.5 311 162.5 340 c 128,-1,29
 197.5 369 197.5 369 244.5 396 c 1,30,31
 223.5 420 223.5 420 203.5 446 c 128,-1,32
 183.5 472 183.5 472 170.5 502.5 c 128,-1,33
 157.5 533 157.5 533 157.5 569 c 0,34,35
 157.5 618 157.5 618 179.5 653 c 128,-1,36
 201.5 688 201.5 688 243 706.5 c 128,-1,37
 284.5 725 284.5 725 341.5 725 c 0,0,1
297.5 341 m 1,38,39
 261.5 320 261.5 320 236 298.5 c 128,-1,40
 210.5 277 210.5 277 196.5 251 c 128,-1,41
 182.5 225 182.5 225 182.5 189 c 0,42,43
 182.5 134 182.5 134 219.5 101 c 128,-1,44
 256.5 68 256.5 68 318.5 68 c 0,45,46
 382.5 68 382.5 68 428.5 89 c 128,-1,47
 474.5 110 474.5 110 505.5 139 c 1,48,-1
 297.5 341 l 1,38,39
338.5 653 m 0,49,50
 296.5 653 296.5 653 270 631 c 128,-1,51
 243.5 609 243.5 609 243.5 570 c 0,52,53
 243.5 534 243.5 534 262.5 503.5 c 128,-1,54
 281.5 473 281.5 473 317.5 436 c 1,55,56
 376.5 470 376.5 470 402 500.5 c 128,-1,57
 427.5 531 427.5 531 427.5 571 c 0,58,59
 427.5 607 427.5 607 403.5 630 c 128,-1,60
 379.5 653 379.5 653 338.5 653 c 0,49,50
EndSplineSet
EndChar

StartChar: dollar
Encoding: 36 36 95
Width: 858
Flags: W
LayerCount: 2
Fore
SplineSet
393 49 m 1,0,1
 338 50 338 50 286 58.5 c 128,-1,2
 234 67 234 67 202 82 c 1,3,-1
 202 167 l 1,4,5
 236 151 236 151 289 139 c 128,-1,6
 342 127 342 127 393 126 c 1,7,-1
 393 328 l 1,8,9
 327 346 327 346 285 369.5 c 128,-1,10
 243 393 243 393 222.5 427 c 128,-1,11
 202 461 202 461 202 508 c 0,12,13
 202 557 202 557 225.5 592 c 128,-1,14
 249 627 249 627 292 647.5 c 128,-1,15
 335 668 335 668 393 671 c 1,16,-1
 393 759 l 1,17,-1
 457 759 l 1,18,-1
 457 672 l 1,19,20
 510 671 510 671 553.5 660.5 c 128,-1,21
 597 650 597 650 633 635 c 1,22,-1
 606 561 l 1,23,24
 574 574 574 574 535.5 583.5 c 128,-1,25
 497 593 497 593 457 596 c 1,26,-1
 457 395 l 1,27,28
 523 376 523 376 567 354.5 c 128,-1,29
 611 333 611 333 633.5 301.5 c 128,-1,30
 656 270 656 270 656 220 c 0,31,32
 656 150 656 150 604 106.5 c 128,-1,33
 552 63 552 63 457 53 c 1,34,-1
 457 -58 l 1,35,-1
 393 -58 l 1,36,-1
 393 49 l 1,0,1
457 131 m 1,37,38
 516 137 516 137 543 158.5 c 128,-1,39
 570 180 570 180 570 214 c 0,40,41
 570 239 570 239 560 255.5 c 128,-1,42
 550 272 550 272 525.5 284 c 128,-1,43
 501 296 501 296 457 307 c 1,44,-1
 457 131 l 1,37,38
393 594 m 1,45,46
 357 592 357 592 334 581.5 c 128,-1,47
 311 571 311 571 299.5 554 c 128,-1,48
 288 537 288 537 288 515 c 0,49,50
 288 489 288 489 297.5 470.5 c 128,-1,51
 307 452 307 452 330 439.5 c 128,-1,52
 353 427 353 427 393 417 c 1,53,-1
 393 594 l 1,45,46
EndSplineSet
EndChar

StartChar: grave
Encoding: 96 96 96
Width: 858
Flags: W
LayerCount: 2
Fore
SplineSet
433.5 766 m 1,0,1
 444.5 744 444.5 744 461 716.5 c 128,-1,2
 477.5 689 477.5 689 496 663 c 128,-1,3
 514.5 637 514.5 637 529.5 618 c 1,4,-1
 529.5 606 l 1,5,-1
 470.5 606 l 1,6,7
 453.5 620 453.5 620 432.5 639.5 c 128,-1,8
 411.5 659 411.5 659 391 680.5 c 128,-1,9
 370.5 702 370.5 702 354 722 c 128,-1,10
 337.5 742 337.5 742 328.5 756 c 1,11,-1
 328.5 766 l 1,12,-1
 433.5 766 l 1,0,1
EndSplineSet
EndChar

StartChar: uni0080
Encoding: 128 128 97
Width: 858
Flags: W
LayerCount: 2
Fore
SplineSet
223.5 85 m 0,0,1
 223.5 103 223.5 103 239 118 c 128,-1,2
 254.5 133 254.5 133 282.5 144.5 c 128,-1,3
 310.5 156 310.5 156 348 162.5 c 128,-1,4
 385.5 169 385.5 169 428.5 169 c 0,5,6
 472.5 169 472.5 169 510 162.5 c 128,-1,7
 547.5 156 547.5 156 575 144.5 c 128,-1,8
 602.5 133 602.5 133 618.5 118 c 128,-1,9
 634.5 103 634.5 103 634.5 85 c 0,10,11
 634.5 68 634.5 68 618.5 53 c 128,-1,12
 602.5 38 602.5 38 575 27 c 128,-1,13
 547.5 16 547.5 16 510 9.5 c 128,-1,14
 472.5 3 472.5 3 428.5 3 c 0,15,16
 385.5 3 385.5 3 348 9.5 c 128,-1,17
 310.5 16 310.5 16 282.5 27 c 128,-1,18
 254.5 38 254.5 38 239 53 c 128,-1,19
 223.5 68 223.5 68 223.5 85 c 0,0,1
303.5 85 m 256,20,21
 303.5 74 303.5 74 313 64.5 c 128,-1,22
 322.5 55 322.5 55 339.5 48.5 c 128,-1,23
 356.5 42 356.5 42 379.5 38 c 128,-1,24
 402.5 34 402.5 34 428.5 34 c 0,25,26
 455.5 34 455.5 34 478 38 c 128,-1,27
 500.5 42 500.5 42 517.5 48.5 c 128,-1,28
 534.5 55 534.5 55 544 64.5 c 128,-1,29
 553.5 74 553.5 74 553.5 85 c 256,30,31
 553.5 96 553.5 96 544 105.5 c 128,-1,32
 534.5 115 534.5 115 517.5 122 c 128,-1,33
 500.5 129 500.5 129 478 133 c 128,-1,34
 455.5 137 455.5 137 428.5 137 c 0,35,36
 402.5 137 402.5 137 379.5 133 c 128,-1,37
 356.5 129 356.5 129 339.5 122 c 128,-1,38
 322.5 115 322.5 115 313 105.5 c 128,-1,39
 303.5 96 303.5 96 303.5 85 c 256,20,21
223.5 272 m 0,40,41
 223.5 290 223.5 290 239 305 c 128,-1,42
 254.5 320 254.5 320 282.5 331.5 c 128,-1,43
 310.5 343 310.5 343 348 349 c 128,-1,44
 385.5 355 385.5 355 428.5 355 c 0,45,46
 472.5 355 472.5 355 510 349 c 128,-1,47
 547.5 343 547.5 343 575 331.5 c 128,-1,48
 602.5 320 602.5 320 618.5 305 c 128,-1,49
 634.5 290 634.5 290 634.5 272 c 0,50,51
 634.5 255 634.5 255 618.5 240 c 128,-1,52
 602.5 225 602.5 225 575 214 c 128,-1,53
 547.5 203 547.5 203 510 196 c 128,-1,54
 472.5 189 472.5 189 428.5 189 c 0,55,56
 385.5 189 385.5 189 348 196 c 128,-1,57
 310.5 203 310.5 203 282.5 214 c 128,-1,58
 254.5 225 254.5 225 239 240 c 128,-1,59
 223.5 255 223.5 255 223.5 272 c 0,40,41
303.5 272 m 256,60,61
 303.5 261 303.5 261 313 251.5 c 128,-1,62
 322.5 242 322.5 242 339.5 235 c 128,-1,63
 356.5 228 356.5 228 379.5 224 c 128,-1,64
 402.5 220 402.5 220 428.5 220 c 0,65,66
 455.5 220 455.5 220 478 224 c 128,-1,67
 500.5 228 500.5 228 517.5 235 c 128,-1,68
 534.5 242 534.5 242 544 251.5 c 128,-1,69
 553.5 261 553.5 261 553.5 272 c 256,70,71
 553.5 283 553.5 283 544 292.5 c 128,-1,72
 534.5 302 534.5 302 517.5 309 c 128,-1,73
 500.5 316 500.5 316 478 320 c 128,-1,74
 455.5 324 455.5 324 428.5 324 c 0,75,76
 402.5 324 402.5 324 379.5 320 c 128,-1,77
 356.5 316 356.5 316 339.5 309 c 128,-1,78
 322.5 302 322.5 302 313 292.5 c 128,-1,79
 303.5 283 303.5 283 303.5 272 c 256,60,61
223.5 461 m 256,80,81
 223.5 478 223.5 478 239 493.5 c 128,-1,82
 254.5 509 254.5 509 282.5 520 c 128,-1,83
 310.5 531 310.5 531 348 537.5 c 128,-1,84
 385.5 544 385.5 544 428.5 544 c 0,85,86
 472.5 544 472.5 544 510 537.5 c 128,-1,87
 547.5 531 547.5 531 575 520 c 128,-1,88
 602.5 509 602.5 509 618.5 493.5 c 128,-1,89
 634.5 478 634.5 478 634.5 461 c 256,90,91
 634.5 444 634.5 444 618.5 429 c 128,-1,92
 602.5 414 602.5 414 575 402.5 c 128,-1,93
 547.5 391 547.5 391 510 384.5 c 128,-1,94
 472.5 378 472.5 378 428.5 378 c 0,95,96
 385.5 378 385.5 378 348 384.5 c 128,-1,97
 310.5 391 310.5 391 282.5 402.5 c 128,-1,98
 254.5 414 254.5 414 239 429 c 128,-1,99
 223.5 444 223.5 444 223.5 461 c 256,80,81
303.5 461 m 256,100,101
 303.5 450 303.5 450 313 440.5 c 128,-1,102
 322.5 431 322.5 431 339.5 424 c 128,-1,103
 356.5 417 356.5 417 379.5 413 c 128,-1,104
 402.5 409 402.5 409 428.5 409 c 0,105,106
 455.5 409 455.5 409 478 413 c 128,-1,107
 500.5 417 500.5 417 517.5 424 c 128,-1,108
 534.5 431 534.5 431 544 440.5 c 128,-1,109
 553.5 450 553.5 450 553.5 461 c 256,110,111
 553.5 472 553.5 472 544 481.5 c 128,-1,112
 534.5 491 534.5 491 517.5 498 c 128,-1,113
 500.5 505 500.5 505 478 509 c 128,-1,114
 455.5 513 455.5 513 428.5 513 c 0,115,116
 402.5 513 402.5 513 379.5 509 c 128,-1,117
 356.5 505 356.5 505 339.5 498 c 128,-1,118
 322.5 491 322.5 491 313 481.5 c 128,-1,119
 303.5 472 303.5 472 303.5 461 c 256,100,101
223.5 648 m 256,120,121
 223.5 665 223.5 665 239 680.5 c 128,-1,122
 254.5 696 254.5 696 282.5 707 c 128,-1,123
 310.5 718 310.5 718 348 724.5 c 128,-1,124
 385.5 731 385.5 731 428.5 731 c 0,125,126
 472.5 731 472.5 731 510 724.5 c 128,-1,127
 547.5 718 547.5 718 575 707 c 128,-1,128
 602.5 696 602.5 696 618.5 680.5 c 128,-1,129
 634.5 665 634.5 665 634.5 648 c 256,130,131
 634.5 631 634.5 631 618.5 616 c 128,-1,132
 602.5 601 602.5 601 575 589.5 c 128,-1,133
 547.5 578 547.5 578 510 571.5 c 128,-1,134
 472.5 565 472.5 565 428.5 565 c 0,135,136
 385.5 565 385.5 565 348 571.5 c 128,-1,137
 310.5 578 310.5 578 282.5 589.5 c 128,-1,138
 254.5 601 254.5 601 239 616 c 128,-1,139
 223.5 631 223.5 631 223.5 648 c 256,120,121
303.5 648 m 0,140,141
 303.5 637 303.5 637 313 627.5 c 128,-1,142
 322.5 618 322.5 618 339.5 611 c 128,-1,143
 356.5 604 356.5 604 379.5 600 c 128,-1,144
 402.5 596 402.5 596 428.5 596 c 0,145,146
 455.5 596 455.5 596 478 600 c 128,-1,147
 500.5 604 500.5 604 517.5 611 c 128,-1,148
 534.5 618 534.5 618 544 627.5 c 128,-1,149
 553.5 637 553.5 637 553.5 648 c 0,150,151
 553.5 658 553.5 658 544 668 c 128,-1,152
 534.5 678 534.5 678 517.5 685 c 128,-1,153
 500.5 692 500.5 692 478 696 c 128,-1,154
 455.5 700 455.5 700 428.5 700 c 0,155,156
 402.5 700 402.5 700 379.5 696 c 128,-1,157
 356.5 692 356.5 692 339.5 685 c 128,-1,158
 322.5 678 322.5 678 313 668 c 128,-1,159
 303.5 658 303.5 658 303.5 648 c 0,140,141
EndSplineSet
EndChar

StartChar: uni0081
Encoding: 129 129 98
Width: 858
Flags: W
LayerCount: 2
Fore
SplineSet
223.5 85 m 0,0,1
 223.5 103 223.5 103 239 118 c 128,-1,2
 254.5 133 254.5 133 282.5 144.5 c 128,-1,3
 310.5 156 310.5 156 348 162.5 c 128,-1,4
 385.5 169 385.5 169 428.5 169 c 0,5,6
 472.5 169 472.5 169 510 162.5 c 128,-1,7
 547.5 156 547.5 156 575 144.5 c 128,-1,8
 602.5 133 602.5 133 618.5 118 c 128,-1,9
 634.5 103 634.5 103 634.5 85 c 0,10,11
 634.5 68 634.5 68 618.5 53 c 128,-1,12
 602.5 38 602.5 38 575 27 c 128,-1,13
 547.5 16 547.5 16 510 9.5 c 128,-1,14
 472.5 3 472.5 3 428.5 3 c 0,15,16
 385.5 3 385.5 3 348 9.5 c 128,-1,17
 310.5 16 310.5 16 282.5 27 c 128,-1,18
 254.5 38 254.5 38 239 53 c 128,-1,19
 223.5 68 223.5 68 223.5 85 c 0,0,1
223.5 272 m 0,20,21
 223.5 290 223.5 290 239 305 c 128,-1,22
 254.5 320 254.5 320 282.5 331.5 c 128,-1,23
 310.5 343 310.5 343 348 349 c 128,-1,24
 385.5 355 385.5 355 428.5 355 c 0,25,26
 472.5 355 472.5 355 510 349 c 128,-1,27
 547.5 343 547.5 343 575 331.5 c 128,-1,28
 602.5 320 602.5 320 618.5 305 c 128,-1,29
 634.5 290 634.5 290 634.5 272 c 0,30,31
 634.5 255 634.5 255 618.5 240 c 128,-1,32
 602.5 225 602.5 225 575 214 c 128,-1,33
 547.5 203 547.5 203 510 196 c 128,-1,34
 472.5 189 472.5 189 428.5 189 c 0,35,36
 385.5 189 385.5 189 348 196 c 128,-1,37
 310.5 203 310.5 203 282.5 214 c 128,-1,38
 254.5 225 254.5 225 239 240 c 128,-1,39
 223.5 255 223.5 255 223.5 272 c 0,20,21
303.5 272 m 256,40,41
 303.5 261 303.5 261 313 251.5 c 128,-1,42
 322.5 242 322.5 242 339.5 235 c 128,-1,43
 356.5 228 356.5 228 379.5 224 c 128,-1,44
 402.5 220 402.5 220 428.5 220 c 0,45,46
 455.5 220 455.5 220 478 224 c 128,-1,47
 500.5 228 500.5 228 517.5 235 c 128,-1,48
 534.5 242 534.5 242 544 251.5 c 128,-1,49
 553.5 261 553.5 261 553.5 272 c 256,50,51
 553.5 283 553.5 283 544 292.5 c 128,-1,52
 534.5 302 534.5 302 517.5 309 c 128,-1,53
 500.5 316 500.5 316 478 320 c 128,-1,54
 455.5 324 455.5 324 428.5 324 c 0,55,56
 402.5 324 402.5 324 379.5 320 c 128,-1,57
 356.5 316 356.5 316 339.5 309 c 128,-1,58
 322.5 302 322.5 302 313 292.5 c 128,-1,59
 303.5 283 303.5 283 303.5 272 c 256,40,41
223.5 461 m 256,60,61
 223.5 478 223.5 478 239 493.5 c 128,-1,62
 254.5 509 254.5 509 282.5 520 c 128,-1,63
 310.5 531 310.5 531 348 537.5 c 128,-1,64
 385.5 544 385.5 544 428.5 544 c 0,65,66
 472.5 544 472.5 544 510 537.5 c 128,-1,67
 547.5 531 547.5 531 575 520 c 128,-1,68
 602.5 509 602.5 509 618.5 493.5 c 128,-1,69
 634.5 478 634.5 478 634.5 461 c 256,70,71
 634.5 444 634.5 444 618.5 429 c 128,-1,72
 602.5 414 602.5 414 575 402.5 c 128,-1,73
 547.5 391 547.5 391 510 384.5 c 128,-1,74
 472.5 378 472.5 378 428.5 378 c 0,75,76
 385.5 378 385.5 378 348 384.5 c 128,-1,77
 310.5 391 310.5 391 282.5 402.5 c 128,-1,78
 254.5 414 254.5 414 239 429 c 128,-1,79
 223.5 444 223.5 444 223.5 461 c 256,60,61
303.5 461 m 256,80,81
 303.5 450 303.5 450 313 440.5 c 128,-1,82
 322.5 431 322.5 431 339.5 424 c 128,-1,83
 356.5 417 356.5 417 379.5 413 c 128,-1,84
 402.5 409 402.5 409 428.5 409 c 0,85,86
 455.5 409 455.5 409 478 413 c 128,-1,87
 500.5 417 500.5 417 517.5 424 c 128,-1,88
 534.5 431 534.5 431 544 440.5 c 128,-1,89
 553.5 450 553.5 450 553.5 461 c 256,90,91
 553.5 472 553.5 472 544 481.5 c 128,-1,92
 534.5 491 534.5 491 517.5 498 c 128,-1,93
 500.5 505 500.5 505 478 509 c 128,-1,94
 455.5 513 455.5 513 428.5 513 c 0,95,96
 402.5 513 402.5 513 379.5 509 c 128,-1,97
 356.5 505 356.5 505 339.5 498 c 128,-1,98
 322.5 491 322.5 491 313 481.5 c 128,-1,99
 303.5 472 303.5 472 303.5 461 c 256,80,81
223.5 648 m 256,100,101
 223.5 665 223.5 665 239 680.5 c 128,-1,102
 254.5 696 254.5 696 282.5 707 c 128,-1,103
 310.5 718 310.5 718 348 724.5 c 128,-1,104
 385.5 731 385.5 731 428.5 731 c 0,105,106
 472.5 731 472.5 731 510 724.5 c 128,-1,107
 547.5 718 547.5 718 575 707 c 128,-1,108
 602.5 696 602.5 696 618.5 680.5 c 128,-1,109
 634.5 665 634.5 665 634.5 648 c 256,110,111
 634.5 631 634.5 631 618.5 616 c 128,-1,112
 602.5 601 602.5 601 575 589.5 c 128,-1,113
 547.5 578 547.5 578 510 571.5 c 128,-1,114
 472.5 565 472.5 565 428.5 565 c 0,115,116
 385.5 565 385.5 565 348 571.5 c 128,-1,117
 310.5 578 310.5 578 282.5 589.5 c 128,-1,118
 254.5 601 254.5 601 239 616 c 128,-1,119
 223.5 631 223.5 631 223.5 648 c 256,100,101
303.5 648 m 0,120,121
 303.5 637 303.5 637 313 627.5 c 128,-1,122
 322.5 618 322.5 618 339.5 611 c 128,-1,123
 356.5 604 356.5 604 379.5 600 c 128,-1,124
 402.5 596 402.5 596 428.5 596 c 0,125,126
 455.5 596 455.5 596 478 600 c 128,-1,127
 500.5 604 500.5 604 517.5 611 c 128,-1,128
 534.5 618 534.5 618 544 627.5 c 128,-1,129
 553.5 637 553.5 637 553.5 648 c 0,130,131
 553.5 658 553.5 658 544 668 c 128,-1,132
 534.5 678 534.5 678 517.5 685 c 128,-1,133
 500.5 692 500.5 692 478 696 c 128,-1,134
 455.5 700 455.5 700 428.5 700 c 0,135,136
 402.5 700 402.5 700 379.5 696 c 128,-1,137
 356.5 692 356.5 692 339.5 685 c 128,-1,138
 322.5 678 322.5 678 313 668 c 128,-1,139
 303.5 658 303.5 658 303.5 648 c 0,120,121
EndSplineSet
EndChar

StartChar: uni0082
Encoding: 130 130 99
Width: 858
Flags: W
LayerCount: 2
Fore
SplineSet
223.5 85 m 0,0,1
 223.5 103 223.5 103 239 118 c 128,-1,2
 254.5 133 254.5 133 282.5 144.5 c 128,-1,3
 310.5 156 310.5 156 348 162.5 c 128,-1,4
 385.5 169 385.5 169 428.5 169 c 0,5,6
 472.5 169 472.5 169 510 162.5 c 128,-1,7
 547.5 156 547.5 156 575 144.5 c 128,-1,8
 602.5 133 602.5 133 618.5 118 c 128,-1,9
 634.5 103 634.5 103 634.5 85 c 0,10,11
 634.5 68 634.5 68 618.5 53 c 128,-1,12
 602.5 38 602.5 38 575 27 c 128,-1,13
 547.5 16 547.5 16 510 9.5 c 128,-1,14
 472.5 3 472.5 3 428.5 3 c 0,15,16
 385.5 3 385.5 3 348 9.5 c 128,-1,17
 310.5 16 310.5 16 282.5 27 c 128,-1,18
 254.5 38 254.5 38 239 53 c 128,-1,19
 223.5 68 223.5 68 223.5 85 c 0,0,1
303.5 85 m 256,20,21
 303.5 74 303.5 74 313 64.5 c 128,-1,22
 322.5 55 322.5 55 339.5 48.5 c 128,-1,23
 356.5 42 356.5 42 379.5 38 c 128,-1,24
 402.5 34 402.5 34 428.5 34 c 0,25,26
 455.5 34 455.5 34 478 38 c 128,-1,27
 500.5 42 500.5 42 517.5 48.5 c 128,-1,28
 534.5 55 534.5 55 544 64.5 c 128,-1,29
 553.5 74 553.5 74 553.5 85 c 256,30,31
 553.5 96 553.5 96 544 105.5 c 128,-1,32
 534.5 115 534.5 115 517.5 122 c 128,-1,33
 500.5 129 500.5 129 478 133 c 128,-1,34
 455.5 137 455.5 137 428.5 137 c 0,35,36
 402.5 137 402.5 137 379.5 133 c 128,-1,37
 356.5 129 356.5 129 339.5 122 c 128,-1,38
 322.5 115 322.5 115 313 105.5 c 128,-1,39
 303.5 96 303.5 96 303.5 85 c 256,20,21
223.5 272 m 0,40,41
 223.5 290 223.5 290 239 305 c 128,-1,42
 254.5 320 254.5 320 282.5 331.5 c 128,-1,43
 310.5 343 310.5 343 348 349 c 128,-1,44
 385.5 355 385.5 355 428.5 355 c 0,45,46
 472.5 355 472.5 355 510 349 c 128,-1,47
 547.5 343 547.5 343 575 331.5 c 128,-1,48
 602.5 320 602.5 320 618.5 305 c 128,-1,49
 634.5 290 634.5 290 634.5 272 c 0,50,51
 634.5 255 634.5 255 618.5 240 c 128,-1,52
 602.5 225 602.5 225 575 214 c 128,-1,53
 547.5 203 547.5 203 510 196 c 128,-1,54
 472.5 189 472.5 189 428.5 189 c 0,55,56
 385.5 189 385.5 189 348 196 c 128,-1,57
 310.5 203 310.5 203 282.5 214 c 128,-1,58
 254.5 225 254.5 225 239 240 c 128,-1,59
 223.5 255 223.5 255 223.5 272 c 0,40,41
223.5 461 m 256,60,61
 223.5 478 223.5 478 239 493.5 c 128,-1,62
 254.5 509 254.5 509 282.5 520 c 128,-1,63
 310.5 531 310.5 531 348 537.5 c 128,-1,64
 385.5 544 385.5 544 428.5 544 c 0,65,66
 472.5 544 472.5 544 510 537.5 c 128,-1,67
 547.5 531 547.5 531 575 520 c 128,-1,68
 602.5 509 602.5 509 618.5 493.5 c 128,-1,69
 634.5 478 634.5 478 634.5 461 c 256,70,71
 634.5 444 634.5 444 618.5 429 c 128,-1,72
 602.5 414 602.5 414 575 402.5 c 128,-1,73
 547.5 391 547.5 391 510 384.5 c 128,-1,74
 472.5 378 472.5 378 428.5 378 c 0,75,76
 385.5 378 385.5 378 348 384.5 c 128,-1,77
 310.5 391 310.5 391 282.5 402.5 c 128,-1,78
 254.5 414 254.5 414 239 429 c 128,-1,79
 223.5 444 223.5 444 223.5 461 c 256,60,61
303.5 461 m 256,80,81
 303.5 450 303.5 450 313 440.5 c 128,-1,82
 322.5 431 322.5 431 339.5 424 c 128,-1,83
 356.5 417 356.5 417 379.5 413 c 128,-1,84
 402.5 409 402.5 409 428.5 409 c 0,85,86
 455.5 409 455.5 409 478 413 c 128,-1,87
 500.5 417 500.5 417 517.5 424 c 128,-1,88
 534.5 431 534.5 431 544 440.5 c 128,-1,89
 553.5 450 553.5 450 553.5 461 c 256,90,91
 553.5 472 553.5 472 544 481.5 c 128,-1,92
 534.5 491 534.5 491 517.5 498 c 128,-1,93
 500.5 505 500.5 505 478 509 c 128,-1,94
 455.5 513 455.5 513 428.5 513 c 0,95,96
 402.5 513 402.5 513 379.5 509 c 128,-1,97
 356.5 505 356.5 505 339.5 498 c 128,-1,98
 322.5 491 322.5 491 313 481.5 c 128,-1,99
 303.5 472 303.5 472 303.5 461 c 256,80,81
223.5 648 m 256,100,101
 223.5 665 223.5 665 239 680.5 c 128,-1,102
 254.5 696 254.5 696 282.5 707 c 128,-1,103
 310.5 718 310.5 718 348 724.5 c 128,-1,104
 385.5 731 385.5 731 428.5 731 c 0,105,106
 472.5 731 472.5 731 510 724.5 c 128,-1,107
 547.5 718 547.5 718 575 707 c 128,-1,108
 602.5 696 602.5 696 618.5 680.5 c 128,-1,109
 634.5 665 634.5 665 634.5 648 c 256,110,111
 634.5 631 634.5 631 618.5 616 c 128,-1,112
 602.5 601 602.5 601 575 589.5 c 128,-1,113
 547.5 578 547.5 578 510 571.5 c 128,-1,114
 472.5 565 472.5 565 428.5 565 c 0,115,116
 385.5 565 385.5 565 348 571.5 c 128,-1,117
 310.5 578 310.5 578 282.5 589.5 c 128,-1,118
 254.5 601 254.5 601 239 616 c 128,-1,119
 223.5 631 223.5 631 223.5 648 c 256,100,101
303.5 648 m 0,120,121
 303.5 637 303.5 637 313 627.5 c 128,-1,122
 322.5 618 322.5 618 339.5 611 c 128,-1,123
 356.5 604 356.5 604 379.5 600 c 128,-1,124
 402.5 596 402.5 596 428.5 596 c 0,125,126
 455.5 596 455.5 596 478 600 c 128,-1,127
 500.5 604 500.5 604 517.5 611 c 128,-1,128
 534.5 618 534.5 618 544 627.5 c 128,-1,129
 553.5 637 553.5 637 553.5 648 c 0,130,131
 553.5 658 553.5 658 544 668 c 128,-1,132
 534.5 678 534.5 678 517.5 685 c 128,-1,133
 500.5 692 500.5 692 478 696 c 128,-1,134
 455.5 700 455.5 700 428.5 700 c 0,135,136
 402.5 700 402.5 700 379.5 696 c 128,-1,137
 356.5 692 356.5 692 339.5 685 c 128,-1,138
 322.5 678 322.5 678 313 668 c 128,-1,139
 303.5 658 303.5 658 303.5 648 c 0,120,121
EndSplineSet
EndChar

StartChar: uni0083
Encoding: 131 131 100
Width: 858
Flags: W
LayerCount: 2
Fore
SplineSet
223.5 85 m 0,0,1
 223.5 103 223.5 103 239 118 c 128,-1,2
 254.5 133 254.5 133 282.5 144.5 c 128,-1,3
 310.5 156 310.5 156 348 162.5 c 128,-1,4
 385.5 169 385.5 169 428.5 169 c 0,5,6
 472.5 169 472.5 169 510 162.5 c 128,-1,7
 547.5 156 547.5 156 575 144.5 c 128,-1,8
 602.5 133 602.5 133 618.5 118 c 128,-1,9
 634.5 103 634.5 103 634.5 85 c 0,10,11
 634.5 68 634.5 68 618.5 53 c 128,-1,12
 602.5 38 602.5 38 575 27 c 128,-1,13
 547.5 16 547.5 16 510 9.5 c 128,-1,14
 472.5 3 472.5 3 428.5 3 c 0,15,16
 385.5 3 385.5 3 348 9.5 c 128,-1,17
 310.5 16 310.5 16 282.5 27 c 128,-1,18
 254.5 38 254.5 38 239 53 c 128,-1,19
 223.5 68 223.5 68 223.5 85 c 0,0,1
223.5 272 m 0,20,21
 223.5 290 223.5 290 239 305 c 128,-1,22
 254.5 320 254.5 320 282.5 331.5 c 128,-1,23
 310.5 343 310.5 343 348 349 c 128,-1,24
 385.5 355 385.5 355 428.5 355 c 0,25,26
 472.5 355 472.5 355 510 349 c 128,-1,27
 547.5 343 547.5 343 575 331.5 c 128,-1,28
 602.5 320 602.5 320 618.5 305 c 128,-1,29
 634.5 290 634.5 290 634.5 272 c 0,30,31
 634.5 255 634.5 255 618.5 240 c 128,-1,32
 602.5 225 602.5 225 575 214 c 128,-1,33
 547.5 203 547.5 203 510 196 c 128,-1,34
 472.5 189 472.5 189 428.5 189 c 0,35,36
 385.5 189 385.5 189 348 196 c 128,-1,37
 310.5 203 310.5 203 282.5 214 c 128,-1,38
 254.5 225 254.5 225 239 240 c 128,-1,39
 223.5 255 223.5 255 223.5 272 c 0,20,21
223.5 461 m 256,40,41
 223.5 478 223.5 478 239 493.5 c 128,-1,42
 254.5 509 254.5 509 282.5 520 c 128,-1,43
 310.5 531 310.5 531 348 537.5 c 128,-1,44
 385.5 544 385.5 544 428.5 544 c 0,45,46
 472.5 544 472.5 544 510 537.5 c 128,-1,47
 547.5 531 547.5 531 575 520 c 128,-1,48
 602.5 509 602.5 509 618.5 493.5 c 128,-1,49
 634.5 478 634.5 478 634.5 461 c 256,50,51
 634.5 444 634.5 444 618.5 429 c 128,-1,52
 602.5 414 602.5 414 575 402.5 c 128,-1,53
 547.5 391 547.5 391 510 384.5 c 128,-1,54
 472.5 378 472.5 378 428.5 378 c 0,55,56
 385.5 378 385.5 378 348 384.5 c 128,-1,57
 310.5 391 310.5 391 282.5 402.5 c 128,-1,58
 254.5 414 254.5 414 239 429 c 128,-1,59
 223.5 444 223.5 444 223.5 461 c 256,40,41
303.5 461 m 256,60,61
 303.5 450 303.5 450 313 440.5 c 128,-1,62
 322.5 431 322.5 431 339.5 424 c 128,-1,63
 356.5 417 356.5 417 379.5 413 c 128,-1,64
 402.5 409 402.5 409 428.5 409 c 0,65,66
 455.5 409 455.5 409 478 413 c 128,-1,67
 500.5 417 500.5 417 517.5 424 c 128,-1,68
 534.5 431 534.5 431 544 440.5 c 128,-1,69
 553.5 450 553.5 450 553.5 461 c 256,70,71
 553.5 472 553.5 472 544 481.5 c 128,-1,72
 534.5 491 534.5 491 517.5 498 c 128,-1,73
 500.5 505 500.5 505 478 509 c 128,-1,74
 455.5 513 455.5 513 428.5 513 c 0,75,76
 402.5 513 402.5 513 379.5 509 c 128,-1,77
 356.5 505 356.5 505 339.5 498 c 128,-1,78
 322.5 491 322.5 491 313 481.5 c 128,-1,79
 303.5 472 303.5 472 303.5 461 c 256,60,61
223.5 648 m 256,80,81
 223.5 665 223.5 665 239 680.5 c 128,-1,82
 254.5 696 254.5 696 282.5 707 c 128,-1,83
 310.5 718 310.5 718 348 724.5 c 128,-1,84
 385.5 731 385.5 731 428.5 731 c 0,85,86
 472.5 731 472.5 731 510 724.5 c 128,-1,87
 547.5 718 547.5 718 575 707 c 128,-1,88
 602.5 696 602.5 696 618.5 680.5 c 128,-1,89
 634.5 665 634.5 665 634.5 648 c 256,90,91
 634.5 631 634.5 631 618.5 616 c 128,-1,92
 602.5 601 602.5 601 575 589.5 c 128,-1,93
 547.5 578 547.5 578 510 571.5 c 128,-1,94
 472.5 565 472.5 565 428.5 565 c 0,95,96
 385.5 565 385.5 565 348 571.5 c 128,-1,97
 310.5 578 310.5 578 282.5 589.5 c 128,-1,98
 254.5 601 254.5 601 239 616 c 128,-1,99
 223.5 631 223.5 631 223.5 648 c 256,80,81
303.5 648 m 0,100,101
 303.5 637 303.5 637 313 627.5 c 128,-1,102
 322.5 618 322.5 618 339.5 611 c 128,-1,103
 356.5 604 356.5 604 379.5 600 c 128,-1,104
 402.5 596 402.5 596 428.5 596 c 0,105,106
 455.5 596 455.5 596 478 600 c 128,-1,107
 500.5 604 500.5 604 517.5 611 c 128,-1,108
 534.5 618 534.5 618 544 627.5 c 128,-1,109
 553.5 637 553.5 637 553.5 648 c 0,110,111
 553.5 658 553.5 658 544 668 c 128,-1,112
 534.5 678 534.5 678 517.5 685 c 128,-1,113
 500.5 692 500.5 692 478 696 c 128,-1,114
 455.5 700 455.5 700 428.5 700 c 0,115,116
 402.5 700 402.5 700 379.5 696 c 128,-1,117
 356.5 692 356.5 692 339.5 685 c 128,-1,118
 322.5 678 322.5 678 313 668 c 128,-1,119
 303.5 658 303.5 658 303.5 648 c 0,100,101
EndSplineSet
EndChar

StartChar: uni0084
Encoding: 132 132 101
Width: 858
Flags: W
LayerCount: 2
Fore
SplineSet
223.5 85 m 0,0,1
 223.5 103 223.5 103 239 118 c 128,-1,2
 254.5 133 254.5 133 282.5 144.5 c 128,-1,3
 310.5 156 310.5 156 348 162.5 c 128,-1,4
 385.5 169 385.5 169 428.5 169 c 0,5,6
 472.5 169 472.5 169 510 162.5 c 128,-1,7
 547.5 156 547.5 156 575 144.5 c 128,-1,8
 602.5 133 602.5 133 618.5 118 c 128,-1,9
 634.5 103 634.5 103 634.5 85 c 0,10,11
 634.5 68 634.5 68 618.5 53 c 128,-1,12
 602.5 38 602.5 38 575 27 c 128,-1,13
 547.5 16 547.5 16 510 9.5 c 128,-1,14
 472.5 3 472.5 3 428.5 3 c 0,15,16
 385.5 3 385.5 3 348 9.5 c 128,-1,17
 310.5 16 310.5 16 282.5 27 c 128,-1,18
 254.5 38 254.5 38 239 53 c 128,-1,19
 223.5 68 223.5 68 223.5 85 c 0,0,1
303.5 85 m 256,20,21
 303.5 74 303.5 74 313 64.5 c 128,-1,22
 322.5 55 322.5 55 339.5 48.5 c 128,-1,23
 356.5 42 356.5 42 379.5 38 c 128,-1,24
 402.5 34 402.5 34 428.5 34 c 0,25,26
 455.5 34 455.5 34 478 38 c 128,-1,27
 500.5 42 500.5 42 517.5 48.5 c 128,-1,28
 534.5 55 534.5 55 544 64.5 c 128,-1,29
 553.5 74 553.5 74 553.5 85 c 256,30,31
 553.5 96 553.5 96 544 105.5 c 128,-1,32
 534.5 115 534.5 115 517.5 122 c 128,-1,33
 500.5 129 500.5 129 478 133 c 128,-1,34
 455.5 137 455.5 137 428.5 137 c 0,35,36
 402.5 137 402.5 137 379.5 133 c 128,-1,37
 356.5 129 356.5 129 339.5 122 c 128,-1,38
 322.5 115 322.5 115 313 105.5 c 128,-1,39
 303.5 96 303.5 96 303.5 85 c 256,20,21
223.5 272 m 0,40,41
 223.5 290 223.5 290 239 305 c 128,-1,42
 254.5 320 254.5 320 282.5 331.5 c 128,-1,43
 310.5 343 310.5 343 348 349 c 128,-1,44
 385.5 355 385.5 355 428.5 355 c 0,45,46
 472.5 355 472.5 355 510 349 c 128,-1,47
 547.5 343 547.5 343 575 331.5 c 128,-1,48
 602.5 320 602.5 320 618.5 305 c 128,-1,49
 634.5 290 634.5 290 634.5 272 c 0,50,51
 634.5 255 634.5 255 618.5 240 c 128,-1,52
 602.5 225 602.5 225 575 214 c 128,-1,53
 547.5 203 547.5 203 510 196 c 128,-1,54
 472.5 189 472.5 189 428.5 189 c 0,55,56
 385.5 189 385.5 189 348 196 c 128,-1,57
 310.5 203 310.5 203 282.5 214 c 128,-1,58
 254.5 225 254.5 225 239 240 c 128,-1,59
 223.5 255 223.5 255 223.5 272 c 0,40,41
303.5 272 m 256,60,61
 303.5 261 303.5 261 313 251.5 c 128,-1,62
 322.5 242 322.5 242 339.5 235 c 128,-1,63
 356.5 228 356.5 228 379.5 224 c 128,-1,64
 402.5 220 402.5 220 428.5 220 c 0,65,66
 455.5 220 455.5 220 478 224 c 128,-1,67
 500.5 228 500.5 228 517.5 235 c 128,-1,68
 534.5 242 534.5 242 544 251.5 c 128,-1,69
 553.5 261 553.5 261 553.5 272 c 256,70,71
 553.5 283 553.5 283 544 292.5 c 128,-1,72
 534.5 302 534.5 302 517.5 309 c 128,-1,73
 500.5 316 500.5 316 478 320 c 128,-1,74
 455.5 324 455.5 324 428.5 324 c 0,75,76
 402.5 324 402.5 324 379.5 320 c 128,-1,77
 356.5 316 356.5 316 339.5 309 c 128,-1,78
 322.5 302 322.5 302 313 292.5 c 128,-1,79
 303.5 283 303.5 283 303.5 272 c 256,60,61
223.5 461 m 256,80,81
 223.5 478 223.5 478 239 493.5 c 128,-1,82
 254.5 509 254.5 509 282.5 520 c 128,-1,83
 310.5 531 310.5 531 348 537.5 c 128,-1,84
 385.5 544 385.5 544 428.5 544 c 0,85,86
 472.5 544 472.5 544 510 537.5 c 128,-1,87
 547.5 531 547.5 531 575 520 c 128,-1,88
 602.5 509 602.5 509 618.5 493.5 c 128,-1,89
 634.5 478 634.5 478 634.5 461 c 256,90,91
 634.5 444 634.5 444 618.5 429 c 128,-1,92
 602.5 414 602.5 414 575 402.5 c 128,-1,93
 547.5 391 547.5 391 510 384.5 c 128,-1,94
 472.5 378 472.5 378 428.5 378 c 0,95,96
 385.5 378 385.5 378 348 384.5 c 128,-1,97
 310.5 391 310.5 391 282.5 402.5 c 128,-1,98
 254.5 414 254.5 414 239 429 c 128,-1,99
 223.5 444 223.5 444 223.5 461 c 256,80,81
223.5 648 m 256,100,101
 223.5 665 223.5 665 239 680.5 c 128,-1,102
 254.5 696 254.5 696 282.5 707 c 128,-1,103
 310.5 718 310.5 718 348 724.5 c 128,-1,104
 385.5 731 385.5 731 428.5 731 c 0,105,106
 472.5 731 472.5 731 510 724.5 c 128,-1,107
 547.5 718 547.5 718 575 707 c 128,-1,108
 602.5 696 602.5 696 618.5 680.5 c 128,-1,109
 634.5 665 634.5 665 634.5 648 c 256,110,111
 634.5 631 634.5 631 618.5 616 c 128,-1,112
 602.5 601 602.5 601 575 589.5 c 128,-1,113
 547.5 578 547.5 578 510 571.5 c 128,-1,114
 472.5 565 472.5 565 428.5 565 c 0,115,116
 385.5 565 385.5 565 348 571.5 c 128,-1,117
 310.5 578 310.5 578 282.5 589.5 c 128,-1,118
 254.5 601 254.5 601 239 616 c 128,-1,119
 223.5 631 223.5 631 223.5 648 c 256,100,101
303.5 648 m 0,120,121
 303.5 637 303.5 637 313 627.5 c 128,-1,122
 322.5 618 322.5 618 339.5 611 c 128,-1,123
 356.5 604 356.5 604 379.5 600 c 128,-1,124
 402.5 596 402.5 596 428.5 596 c 0,125,126
 455.5 596 455.5 596 478 600 c 128,-1,127
 500.5 604 500.5 604 517.5 611 c 128,-1,128
 534.5 618 534.5 618 544 627.5 c 128,-1,129
 553.5 637 553.5 637 553.5 648 c 0,130,131
 553.5 658 553.5 658 544 668 c 128,-1,132
 534.5 678 534.5 678 517.5 685 c 128,-1,133
 500.5 692 500.5 692 478 696 c 128,-1,134
 455.5 700 455.5 700 428.5 700 c 0,135,136
 402.5 700 402.5 700 379.5 696 c 128,-1,137
 356.5 692 356.5 692 339.5 685 c 128,-1,138
 322.5 678 322.5 678 313 668 c 128,-1,139
 303.5 658 303.5 658 303.5 648 c 0,120,121
EndSplineSet
EndChar

StartChar: uni0085
Encoding: 133 133 102
Width: 858
Flags: W
LayerCount: 2
Fore
SplineSet
223.5 85 m 0,0,1
 223.5 103 223.5 103 239 118 c 128,-1,2
 254.5 133 254.5 133 282.5 144.5 c 128,-1,3
 310.5 156 310.5 156 348 162.5 c 128,-1,4
 385.5 169 385.5 169 428.5 169 c 0,5,6
 472.5 169 472.5 169 510 162.5 c 128,-1,7
 547.5 156 547.5 156 575 144.5 c 128,-1,8
 602.5 133 602.5 133 618.5 118 c 128,-1,9
 634.5 103 634.5 103 634.5 85 c 0,10,11
 634.5 68 634.5 68 618.5 53 c 128,-1,12
 602.5 38 602.5 38 575 27 c 128,-1,13
 547.5 16 547.5 16 510 9.5 c 128,-1,14
 472.5 3 472.5 3 428.5 3 c 0,15,16
 385.5 3 385.5 3 348 9.5 c 128,-1,17
 310.5 16 310.5 16 282.5 27 c 128,-1,18
 254.5 38 254.5 38 239 53 c 128,-1,19
 223.5 68 223.5 68 223.5 85 c 0,0,1
223.5 272 m 0,20,21
 223.5 290 223.5 290 239 305 c 128,-1,22
 254.5 320 254.5 320 282.5 331.5 c 128,-1,23
 310.5 343 310.5 343 348 349 c 128,-1,24
 385.5 355 385.5 355 428.5 355 c 0,25,26
 472.5 355 472.5 355 510 349 c 128,-1,27
 547.5 343 547.5 343 575 331.5 c 128,-1,28
 602.5 320 602.5 320 618.5 305 c 128,-1,29
 634.5 290 634.5 290 634.5 272 c 0,30,31
 634.5 255 634.5 255 618.5 240 c 128,-1,32
 602.5 225 602.5 225 575 214 c 128,-1,33
 547.5 203 547.5 203 510 196 c 128,-1,34
 472.5 189 472.5 189 428.5 189 c 0,35,36
 385.5 189 385.5 189 348 196 c 128,-1,37
 310.5 203 310.5 203 282.5 214 c 128,-1,38
 254.5 225 254.5 225 239 240 c 128,-1,39
 223.5 255 223.5 255 223.5 272 c 0,20,21
303.5 272 m 256,40,41
 303.5 261 303.5 261 313 251.5 c 128,-1,42
 322.5 242 322.5 242 339.5 235 c 128,-1,43
 356.5 228 356.5 228 379.5 224 c 128,-1,44
 402.5 220 402.5 220 428.5 220 c 0,45,46
 455.5 220 455.5 220 478 224 c 128,-1,47
 500.5 228 500.5 228 517.5 235 c 128,-1,48
 534.5 242 534.5 242 544 251.5 c 128,-1,49
 553.5 261 553.5 261 553.5 272 c 256,50,51
 553.5 283 553.5 283 544 292.5 c 128,-1,52
 534.5 302 534.5 302 517.5 309 c 128,-1,53
 500.5 316 500.5 316 478 320 c 128,-1,54
 455.5 324 455.5 324 428.5 324 c 0,55,56
 402.5 324 402.5 324 379.5 320 c 128,-1,57
 356.5 316 356.5 316 339.5 309 c 128,-1,58
 322.5 302 322.5 302 313 292.5 c 128,-1,59
 303.5 283 303.5 283 303.5 272 c 256,40,41
223.5 461 m 256,60,61
 223.5 478 223.5 478 239 493.5 c 128,-1,62
 254.5 509 254.5 509 282.5 520 c 128,-1,63
 310.5 531 310.5 531 348 537.5 c 128,-1,64
 385.5 544 385.5 544 428.5 544 c 0,65,66
 472.5 544 472.5 544 510 537.5 c 128,-1,67
 547.5 531 547.5 531 575 520 c 128,-1,68
 602.5 509 602.5 509 618.5 493.5 c 128,-1,69
 634.5 478 634.5 478 634.5 461 c 256,70,71
 634.5 444 634.5 444 618.5 429 c 128,-1,72
 602.5 414 602.5 414 575 402.5 c 128,-1,73
 547.5 391 547.5 391 510 384.5 c 128,-1,74
 472.5 378 472.5 378 428.5 378 c 0,75,76
 385.5 378 385.5 378 348 384.5 c 128,-1,77
 310.5 391 310.5 391 282.5 402.5 c 128,-1,78
 254.5 414 254.5 414 239 429 c 128,-1,79
 223.5 444 223.5 444 223.5 461 c 256,60,61
223.5 648 m 256,80,81
 223.5 665 223.5 665 239 680.5 c 128,-1,82
 254.5 696 254.5 696 282.5 707 c 128,-1,83
 310.5 718 310.5 718 348 724.5 c 128,-1,84
 385.5 731 385.5 731 428.5 731 c 0,85,86
 472.5 731 472.5 731 510 724.5 c 128,-1,87
 547.5 718 547.5 718 575 707 c 128,-1,88
 602.5 696 602.5 696 618.5 680.5 c 128,-1,89
 634.5 665 634.5 665 634.5 648 c 256,90,91
 634.5 631 634.5 631 618.5 616 c 128,-1,92
 602.5 601 602.5 601 575 589.5 c 128,-1,93
 547.5 578 547.5 578 510 571.5 c 128,-1,94
 472.5 565 472.5 565 428.5 565 c 0,95,96
 385.5 565 385.5 565 348 571.5 c 128,-1,97
 310.5 578 310.5 578 282.5 589.5 c 128,-1,98
 254.5 601 254.5 601 239 616 c 128,-1,99
 223.5 631 223.5 631 223.5 648 c 256,80,81
303.5 648 m 0,100,101
 303.5 637 303.5 637 313 627.5 c 128,-1,102
 322.5 618 322.5 618 339.5 611 c 128,-1,103
 356.5 604 356.5 604 379.5 600 c 128,-1,104
 402.5 596 402.5 596 428.5 596 c 0,105,106
 455.5 596 455.5 596 478 600 c 128,-1,107
 500.5 604 500.5 604 517.5 611 c 128,-1,108
 534.5 618 534.5 618 544 627.5 c 128,-1,109
 553.5 637 553.5 637 553.5 648 c 0,110,111
 553.5 658 553.5 658 544 668 c 128,-1,112
 534.5 678 534.5 678 517.5 685 c 128,-1,113
 500.5 692 500.5 692 478 696 c 128,-1,114
 455.5 700 455.5 700 428.5 700 c 0,115,116
 402.5 700 402.5 700 379.5 696 c 128,-1,117
 356.5 692 356.5 692 339.5 685 c 128,-1,118
 322.5 678 322.5 678 313 668 c 128,-1,119
 303.5 658 303.5 658 303.5 648 c 0,100,101
EndSplineSet
EndChar

StartChar: uni0086
Encoding: 134 134 103
Width: 858
Flags: W
LayerCount: 2
Fore
SplineSet
223.5 85 m 0,0,1
 223.5 103 223.5 103 239 118 c 128,-1,2
 254.5 133 254.5 133 282.5 144.5 c 128,-1,3
 310.5 156 310.5 156 348 162.5 c 128,-1,4
 385.5 169 385.5 169 428.5 169 c 0,5,6
 472.5 169 472.5 169 510 162.5 c 128,-1,7
 547.5 156 547.5 156 575 144.5 c 128,-1,8
 602.5 133 602.5 133 618.5 118 c 128,-1,9
 634.5 103 634.5 103 634.5 85 c 0,10,11
 634.5 68 634.5 68 618.5 53 c 128,-1,12
 602.5 38 602.5 38 575 27 c 128,-1,13
 547.5 16 547.5 16 510 9.5 c 128,-1,14
 472.5 3 472.5 3 428.5 3 c 0,15,16
 385.5 3 385.5 3 348 9.5 c 128,-1,17
 310.5 16 310.5 16 282.5 27 c 128,-1,18
 254.5 38 254.5 38 239 53 c 128,-1,19
 223.5 68 223.5 68 223.5 85 c 0,0,1
303.5 85 m 256,20,21
 303.5 74 303.5 74 313 64.5 c 128,-1,22
 322.5 55 322.5 55 339.5 48.5 c 128,-1,23
 356.5 42 356.5 42 379.5 38 c 128,-1,24
 402.5 34 402.5 34 428.5 34 c 0,25,26
 455.5 34 455.5 34 478 38 c 128,-1,27
 500.5 42 500.5 42 517.5 48.5 c 128,-1,28
 534.5 55 534.5 55 544 64.5 c 128,-1,29
 553.5 74 553.5 74 553.5 85 c 256,30,31
 553.5 96 553.5 96 544 105.5 c 128,-1,32
 534.5 115 534.5 115 517.5 122 c 128,-1,33
 500.5 129 500.5 129 478 133 c 128,-1,34
 455.5 137 455.5 137 428.5 137 c 0,35,36
 402.5 137 402.5 137 379.5 133 c 128,-1,37
 356.5 129 356.5 129 339.5 122 c 128,-1,38
 322.5 115 322.5 115 313 105.5 c 128,-1,39
 303.5 96 303.5 96 303.5 85 c 256,20,21
223.5 272 m 0,40,41
 223.5 290 223.5 290 239 305 c 128,-1,42
 254.5 320 254.5 320 282.5 331.5 c 128,-1,43
 310.5 343 310.5 343 348 349 c 128,-1,44
 385.5 355 385.5 355 428.5 355 c 0,45,46
 472.5 355 472.5 355 510 349 c 128,-1,47
 547.5 343 547.5 343 575 331.5 c 128,-1,48
 602.5 320 602.5 320 618.5 305 c 128,-1,49
 634.5 290 634.5 290 634.5 272 c 0,50,51
 634.5 255 634.5 255 618.5 240 c 128,-1,52
 602.5 225 602.5 225 575 214 c 128,-1,53
 547.5 203 547.5 203 510 196 c 128,-1,54
 472.5 189 472.5 189 428.5 189 c 0,55,56
 385.5 189 385.5 189 348 196 c 128,-1,57
 310.5 203 310.5 203 282.5 214 c 128,-1,58
 254.5 225 254.5 225 239 240 c 128,-1,59
 223.5 255 223.5 255 223.5 272 c 0,40,41
223.5 461 m 256,60,61
 223.5 478 223.5 478 239 493.5 c 128,-1,62
 254.5 509 254.5 509 282.5 520 c 128,-1,63
 310.5 531 310.5 531 348 537.5 c 128,-1,64
 385.5 544 385.5 544 428.5 544 c 0,65,66
 472.5 544 472.5 544 510 537.5 c 128,-1,67
 547.5 531 547.5 531 575 520 c 128,-1,68
 602.5 509 602.5 509 618.5 493.5 c 128,-1,69
 634.5 478 634.5 478 634.5 461 c 256,70,71
 634.5 444 634.5 444 618.5 429 c 128,-1,72
 602.5 414 602.5 414 575 402.5 c 128,-1,73
 547.5 391 547.5 391 510 384.5 c 128,-1,74
 472.5 378 472.5 378 428.5 378 c 0,75,76
 385.5 378 385.5 378 348 384.5 c 128,-1,77
 310.5 391 310.5 391 282.5 402.5 c 128,-1,78
 254.5 414 254.5 414 239 429 c 128,-1,79
 223.5 444 223.5 444 223.5 461 c 256,60,61
223.5 648 m 256,80,81
 223.5 665 223.5 665 239 680.5 c 128,-1,82
 254.5 696 254.5 696 282.5 707 c 128,-1,83
 310.5 718 310.5 718 348 724.5 c 128,-1,84
 385.5 731 385.5 731 428.5 731 c 0,85,86
 472.5 731 472.5 731 510 724.5 c 128,-1,87
 547.5 718 547.5 718 575 707 c 128,-1,88
 602.5 696 602.5 696 618.5 680.5 c 128,-1,89
 634.5 665 634.5 665 634.5 648 c 256,90,91
 634.5 631 634.5 631 618.5 616 c 128,-1,92
 602.5 601 602.5 601 575 589.5 c 128,-1,93
 547.5 578 547.5 578 510 571.5 c 128,-1,94
 472.5 565 472.5 565 428.5 565 c 0,95,96
 385.5 565 385.5 565 348 571.5 c 128,-1,97
 310.5 578 310.5 578 282.5 589.5 c 128,-1,98
 254.5 601 254.5 601 239 616 c 128,-1,99
 223.5 631 223.5 631 223.5 648 c 256,80,81
303.5 648 m 0,100,101
 303.5 637 303.5 637 313 627.5 c 128,-1,102
 322.5 618 322.5 618 339.5 611 c 128,-1,103
 356.5 604 356.5 604 379.5 600 c 128,-1,104
 402.5 596 402.5 596 428.5 596 c 0,105,106
 455.5 596 455.5 596 478 600 c 128,-1,107
 500.5 604 500.5 604 517.5 611 c 128,-1,108
 534.5 618 534.5 618 544 627.5 c 128,-1,109
 553.5 637 553.5 637 553.5 648 c 0,110,111
 553.5 658 553.5 658 544 668 c 128,-1,112
 534.5 678 534.5 678 517.5 685 c 128,-1,113
 500.5 692 500.5 692 478 696 c 128,-1,114
 455.5 700 455.5 700 428.5 700 c 0,115,116
 402.5 700 402.5 700 379.5 696 c 128,-1,117
 356.5 692 356.5 692 339.5 685 c 128,-1,118
 322.5 678 322.5 678 313 668 c 128,-1,119
 303.5 658 303.5 658 303.5 648 c 0,100,101
EndSplineSet
EndChar

StartChar: uni0087
Encoding: 135 135 104
Width: 858
Flags: W
LayerCount: 2
Fore
SplineSet
223.5 85 m 0,0,1
 223.5 103 223.5 103 239 118 c 128,-1,2
 254.5 133 254.5 133 282.5 144.5 c 128,-1,3
 310.5 156 310.5 156 348 162.5 c 128,-1,4
 385.5 169 385.5 169 428.5 169 c 0,5,6
 472.5 169 472.5 169 510 162.5 c 128,-1,7
 547.5 156 547.5 156 575 144.5 c 128,-1,8
 602.5 133 602.5 133 618.5 118 c 128,-1,9
 634.5 103 634.5 103 634.5 85 c 0,10,11
 634.5 68 634.5 68 618.5 53 c 128,-1,12
 602.5 38 602.5 38 575 27 c 128,-1,13
 547.5 16 547.5 16 510 9.5 c 128,-1,14
 472.5 3 472.5 3 428.5 3 c 0,15,16
 385.5 3 385.5 3 348 9.5 c 128,-1,17
 310.5 16 310.5 16 282.5 27 c 128,-1,18
 254.5 38 254.5 38 239 53 c 128,-1,19
 223.5 68 223.5 68 223.5 85 c 0,0,1
223.5 272 m 0,20,21
 223.5 290 223.5 290 239 305 c 128,-1,22
 254.5 320 254.5 320 282.5 331.5 c 128,-1,23
 310.5 343 310.5 343 348 349 c 128,-1,24
 385.5 355 385.5 355 428.5 355 c 0,25,26
 472.5 355 472.5 355 510 349 c 128,-1,27
 547.5 343 547.5 343 575 331.5 c 128,-1,28
 602.5 320 602.5 320 618.5 305 c 128,-1,29
 634.5 290 634.5 290 634.5 272 c 0,30,31
 634.5 255 634.5 255 618.5 240 c 128,-1,32
 602.5 225 602.5 225 575 214 c 128,-1,33
 547.5 203 547.5 203 510 196 c 128,-1,34
 472.5 189 472.5 189 428.5 189 c 0,35,36
 385.5 189 385.5 189 348 196 c 128,-1,37
 310.5 203 310.5 203 282.5 214 c 128,-1,38
 254.5 225 254.5 225 239 240 c 128,-1,39
 223.5 255 223.5 255 223.5 272 c 0,20,21
223.5 461 m 256,40,41
 223.5 478 223.5 478 239 493.5 c 128,-1,42
 254.5 509 254.5 509 282.5 520 c 128,-1,43
 310.5 531 310.5 531 348 537.5 c 128,-1,44
 385.5 544 385.5 544 428.5 544 c 0,45,46
 472.5 544 472.5 544 510 537.5 c 128,-1,47
 547.5 531 547.5 531 575 520 c 128,-1,48
 602.5 509 602.5 509 618.5 493.5 c 128,-1,49
 634.5 478 634.5 478 634.5 461 c 256,50,51
 634.5 444 634.5 444 618.5 429 c 128,-1,52
 602.5 414 602.5 414 575 402.5 c 128,-1,53
 547.5 391 547.5 391 510 384.5 c 128,-1,54
 472.5 378 472.5 378 428.5 378 c 0,55,56
 385.5 378 385.5 378 348 384.5 c 128,-1,57
 310.5 391 310.5 391 282.5 402.5 c 128,-1,58
 254.5 414 254.5 414 239 429 c 128,-1,59
 223.5 444 223.5 444 223.5 461 c 256,40,41
223.5 648 m 256,60,61
 223.5 665 223.5 665 239 680.5 c 128,-1,62
 254.5 696 254.5 696 282.5 707 c 128,-1,63
 310.5 718 310.5 718 348 724.5 c 128,-1,64
 385.5 731 385.5 731 428.5 731 c 0,65,66
 472.5 731 472.5 731 510 724.5 c 128,-1,67
 547.5 718 547.5 718 575 707 c 128,-1,68
 602.5 696 602.5 696 618.5 680.5 c 128,-1,69
 634.5 665 634.5 665 634.5 648 c 256,70,71
 634.5 631 634.5 631 618.5 616 c 128,-1,72
 602.5 601 602.5 601 575 589.5 c 128,-1,73
 547.5 578 547.5 578 510 571.5 c 128,-1,74
 472.5 565 472.5 565 428.5 565 c 0,75,76
 385.5 565 385.5 565 348 571.5 c 128,-1,77
 310.5 578 310.5 578 282.5 589.5 c 128,-1,78
 254.5 601 254.5 601 239 616 c 128,-1,79
 223.5 631 223.5 631 223.5 648 c 256,60,61
303.5 648 m 0,80,81
 303.5 637 303.5 637 313 627.5 c 128,-1,82
 322.5 618 322.5 618 339.5 611 c 128,-1,83
 356.5 604 356.5 604 379.5 600 c 128,-1,84
 402.5 596 402.5 596 428.5 596 c 0,85,86
 455.5 596 455.5 596 478 600 c 128,-1,87
 500.5 604 500.5 604 517.5 611 c 128,-1,88
 534.5 618 534.5 618 544 627.5 c 128,-1,89
 553.5 637 553.5 637 553.5 648 c 0,90,91
 553.5 658 553.5 658 544 668 c 128,-1,92
 534.5 678 534.5 678 517.5 685 c 128,-1,93
 500.5 692 500.5 692 478 696 c 128,-1,94
 455.5 700 455.5 700 428.5 700 c 0,95,96
 402.5 700 402.5 700 379.5 696 c 128,-1,97
 356.5 692 356.5 692 339.5 685 c 128,-1,98
 322.5 678 322.5 678 313 668 c 128,-1,99
 303.5 658 303.5 658 303.5 648 c 0,80,81
EndSplineSet
EndChar

StartChar: uni0088
Encoding: 136 136 105
Width: 858
Flags: W
LayerCount: 2
Fore
SplineSet
223.5 85 m 0,0,1
 223.5 103 223.5 103 239 118 c 128,-1,2
 254.5 133 254.5 133 282.5 144.5 c 128,-1,3
 310.5 156 310.5 156 348 162.5 c 128,-1,4
 385.5 169 385.5 169 428.5 169 c 0,5,6
 472.5 169 472.5 169 510 162.5 c 128,-1,7
 547.5 156 547.5 156 575 144.5 c 128,-1,8
 602.5 133 602.5 133 618.5 118 c 128,-1,9
 634.5 103 634.5 103 634.5 85 c 0,10,11
 634.5 68 634.5 68 618.5 53 c 128,-1,12
 602.5 38 602.5 38 575 27 c 128,-1,13
 547.5 16 547.5 16 510 9.5 c 128,-1,14
 472.5 3 472.5 3 428.5 3 c 0,15,16
 385.5 3 385.5 3 348 9.5 c 128,-1,17
 310.5 16 310.5 16 282.5 27 c 128,-1,18
 254.5 38 254.5 38 239 53 c 128,-1,19
 223.5 68 223.5 68 223.5 85 c 0,0,1
303.5 85 m 256,20,21
 303.5 74 303.5 74 313 64.5 c 128,-1,22
 322.5 55 322.5 55 339.5 48.5 c 128,-1,23
 356.5 42 356.5 42 379.5 38 c 128,-1,24
 402.5 34 402.5 34 428.5 34 c 0,25,26
 455.5 34 455.5 34 478 38 c 128,-1,27
 500.5 42 500.5 42 517.5 48.5 c 128,-1,28
 534.5 55 534.5 55 544 64.5 c 128,-1,29
 553.5 74 553.5 74 553.5 85 c 256,30,31
 553.5 96 553.5 96 544 105.5 c 128,-1,32
 534.5 115 534.5 115 517.5 122 c 128,-1,33
 500.5 129 500.5 129 478 133 c 128,-1,34
 455.5 137 455.5 137 428.5 137 c 0,35,36
 402.5 137 402.5 137 379.5 133 c 128,-1,37
 356.5 129 356.5 129 339.5 122 c 128,-1,38
 322.5 115 322.5 115 313 105.5 c 128,-1,39
 303.5 96 303.5 96 303.5 85 c 256,20,21
223.5 272 m 0,40,41
 223.5 290 223.5 290 239 305 c 128,-1,42
 254.5 320 254.5 320 282.5 331.5 c 128,-1,43
 310.5 343 310.5 343 348 349 c 128,-1,44
 385.5 355 385.5 355 428.5 355 c 0,45,46
 472.5 355 472.5 355 510 349 c 128,-1,47
 547.5 343 547.5 343 575 331.5 c 128,-1,48
 602.5 320 602.5 320 618.5 305 c 128,-1,49
 634.5 290 634.5 290 634.5 272 c 0,50,51
 634.5 255 634.5 255 618.5 240 c 128,-1,52
 602.5 225 602.5 225 575 214 c 128,-1,53
 547.5 203 547.5 203 510 196 c 128,-1,54
 472.5 189 472.5 189 428.5 189 c 0,55,56
 385.5 189 385.5 189 348 196 c 128,-1,57
 310.5 203 310.5 203 282.5 214 c 128,-1,58
 254.5 225 254.5 225 239 240 c 128,-1,59
 223.5 255 223.5 255 223.5 272 c 0,40,41
303.5 272 m 256,60,61
 303.5 261 303.5 261 313 251.5 c 128,-1,62
 322.5 242 322.5 242 339.5 235 c 128,-1,63
 356.5 228 356.5 228 379.5 224 c 128,-1,64
 402.5 220 402.5 220 428.5 220 c 0,65,66
 455.5 220 455.5 220 478 224 c 128,-1,67
 500.5 228 500.5 228 517.5 235 c 128,-1,68
 534.5 242 534.5 242 544 251.5 c 128,-1,69
 553.5 261 553.5 261 553.5 272 c 256,70,71
 553.5 283 553.5 283 544 292.5 c 128,-1,72
 534.5 302 534.5 302 517.5 309 c 128,-1,73
 500.5 316 500.5 316 478 320 c 128,-1,74
 455.5 324 455.5 324 428.5 324 c 0,75,76
 402.5 324 402.5 324 379.5 320 c 128,-1,77
 356.5 316 356.5 316 339.5 309 c 128,-1,78
 322.5 302 322.5 302 313 292.5 c 128,-1,79
 303.5 283 303.5 283 303.5 272 c 256,60,61
223.5 461 m 256,80,81
 223.5 478 223.5 478 239 493.5 c 128,-1,82
 254.5 509 254.5 509 282.5 520 c 128,-1,83
 310.5 531 310.5 531 348 537.5 c 128,-1,84
 385.5 544 385.5 544 428.5 544 c 0,85,86
 472.5 544 472.5 544 510 537.5 c 128,-1,87
 547.5 531 547.5 531 575 520 c 128,-1,88
 602.5 509 602.5 509 618.5 493.5 c 128,-1,89
 634.5 478 634.5 478 634.5 461 c 256,90,91
 634.5 444 634.5 444 618.5 429 c 128,-1,92
 602.5 414 602.5 414 575 402.5 c 128,-1,93
 547.5 391 547.5 391 510 384.5 c 128,-1,94
 472.5 378 472.5 378 428.5 378 c 0,95,96
 385.5 378 385.5 378 348 384.5 c 128,-1,97
 310.5 391 310.5 391 282.5 402.5 c 128,-1,98
 254.5 414 254.5 414 239 429 c 128,-1,99
 223.5 444 223.5 444 223.5 461 c 256,80,81
303.5 461 m 256,100,101
 303.5 450 303.5 450 313 440.5 c 128,-1,102
 322.5 431 322.5 431 339.5 424 c 128,-1,103
 356.5 417 356.5 417 379.5 413 c 128,-1,104
 402.5 409 402.5 409 428.5 409 c 0,105,106
 455.5 409 455.5 409 478 413 c 128,-1,107
 500.5 417 500.5 417 517.5 424 c 128,-1,108
 534.5 431 534.5 431 544 440.5 c 128,-1,109
 553.5 450 553.5 450 553.5 461 c 256,110,111
 553.5 472 553.5 472 544 481.5 c 128,-1,112
 534.5 491 534.5 491 517.5 498 c 128,-1,113
 500.5 505 500.5 505 478 509 c 128,-1,114
 455.5 513 455.5 513 428.5 513 c 0,115,116
 402.5 513 402.5 513 379.5 509 c 128,-1,117
 356.5 505 356.5 505 339.5 498 c 128,-1,118
 322.5 491 322.5 491 313 481.5 c 128,-1,119
 303.5 472 303.5 472 303.5 461 c 256,100,101
223.5 648 m 256,120,121
 223.5 665 223.5 665 239 680.5 c 128,-1,122
 254.5 696 254.5 696 282.5 707 c 128,-1,123
 310.5 718 310.5 718 348 724.5 c 128,-1,124
 385.5 731 385.5 731 428.5 731 c 0,125,126
 472.5 731 472.5 731 510 724.5 c 128,-1,127
 547.5 718 547.5 718 575 707 c 128,-1,128
 602.5 696 602.5 696 618.5 680.5 c 128,-1,129
 634.5 665 634.5 665 634.5 648 c 256,130,131
 634.5 631 634.5 631 618.5 616 c 128,-1,132
 602.5 601 602.5 601 575 589.5 c 128,-1,133
 547.5 578 547.5 578 510 571.5 c 128,-1,134
 472.5 565 472.5 565 428.5 565 c 0,135,136
 385.5 565 385.5 565 348 571.5 c 128,-1,137
 310.5 578 310.5 578 282.5 589.5 c 128,-1,138
 254.5 601 254.5 601 239 616 c 128,-1,139
 223.5 631 223.5 631 223.5 648 c 256,120,121
EndSplineSet
EndChar

StartChar: uni0089
Encoding: 137 137 106
Width: 858
Flags: W
LayerCount: 2
Fore
SplineSet
223.5 85 m 0,0,1
 223.5 103 223.5 103 239 118 c 128,-1,2
 254.5 133 254.5 133 282.5 144.5 c 128,-1,3
 310.5 156 310.5 156 348 162.5 c 128,-1,4
 385.5 169 385.5 169 428.5 169 c 0,5,6
 472.5 169 472.5 169 510 162.5 c 128,-1,7
 547.5 156 547.5 156 575 144.5 c 128,-1,8
 602.5 133 602.5 133 618.5 118 c 128,-1,9
 634.5 103 634.5 103 634.5 85 c 0,10,11
 634.5 68 634.5 68 618.5 53 c 128,-1,12
 602.5 38 602.5 38 575 27 c 128,-1,13
 547.5 16 547.5 16 510 9.5 c 128,-1,14
 472.5 3 472.5 3 428.5 3 c 0,15,16
 385.5 3 385.5 3 348 9.5 c 128,-1,17
 310.5 16 310.5 16 282.5 27 c 128,-1,18
 254.5 38 254.5 38 239 53 c 128,-1,19
 223.5 68 223.5 68 223.5 85 c 0,0,1
223.5 272 m 0,20,21
 223.5 290 223.5 290 239 305 c 128,-1,22
 254.5 320 254.5 320 282.5 331.5 c 128,-1,23
 310.5 343 310.5 343 348 349 c 128,-1,24
 385.5 355 385.5 355 428.5 355 c 0,25,26
 472.5 355 472.5 355 510 349 c 128,-1,27
 547.5 343 547.5 343 575 331.5 c 128,-1,28
 602.5 320 602.5 320 618.5 305 c 128,-1,29
 634.5 290 634.5 290 634.5 272 c 0,30,31
 634.5 255 634.5 255 618.5 240 c 128,-1,32
 602.5 225 602.5 225 575 214 c 128,-1,33
 547.5 203 547.5 203 510 196 c 128,-1,34
 472.5 189 472.5 189 428.5 189 c 0,35,36
 385.5 189 385.5 189 348 196 c 128,-1,37
 310.5 203 310.5 203 282.5 214 c 128,-1,38
 254.5 225 254.5 225 239 240 c 128,-1,39
 223.5 255 223.5 255 223.5 272 c 0,20,21
303.5 272 m 256,40,41
 303.5 261 303.5 261 313 251.5 c 128,-1,42
 322.5 242 322.5 242 339.5 235 c 128,-1,43
 356.5 228 356.5 228 379.5 224 c 128,-1,44
 402.5 220 402.5 220 428.5 220 c 0,45,46
 455.5 220 455.5 220 478 224 c 128,-1,47
 500.5 228 500.5 228 517.5 235 c 128,-1,48
 534.5 242 534.5 242 544 251.5 c 128,-1,49
 553.5 261 553.5 261 553.5 272 c 256,50,51
 553.5 283 553.5 283 544 292.5 c 128,-1,52
 534.5 302 534.5 302 517.5 309 c 128,-1,53
 500.5 316 500.5 316 478 320 c 128,-1,54
 455.5 324 455.5 324 428.5 324 c 0,55,56
 402.5 324 402.5 324 379.5 320 c 128,-1,57
 356.5 316 356.5 316 339.5 309 c 128,-1,58
 322.5 302 322.5 302 313 292.5 c 128,-1,59
 303.5 283 303.5 283 303.5 272 c 256,40,41
223.5 461 m 256,60,61
 223.5 478 223.5 478 239 493.5 c 128,-1,62
 254.5 509 254.5 509 282.5 520 c 128,-1,63
 310.5 531 310.5 531 348 537.5 c 128,-1,64
 385.5 544 385.5 544 428.5 544 c 0,65,66
 472.5 544 472.5 544 510 537.5 c 128,-1,67
 547.5 531 547.5 531 575 520 c 128,-1,68
 602.5 509 602.5 509 618.5 493.5 c 128,-1,69
 634.5 478 634.5 478 634.5 461 c 256,70,71
 634.5 444 634.5 444 618.5 429 c 128,-1,72
 602.5 414 602.5 414 575 402.5 c 128,-1,73
 547.5 391 547.5 391 510 384.5 c 128,-1,74
 472.5 378 472.5 378 428.5 378 c 0,75,76
 385.5 378 385.5 378 348 384.5 c 128,-1,77
 310.5 391 310.5 391 282.5 402.5 c 128,-1,78
 254.5 414 254.5 414 239 429 c 128,-1,79
 223.5 444 223.5 444 223.5 461 c 256,60,61
303.5 461 m 256,80,81
 303.5 450 303.5 450 313 440.5 c 128,-1,82
 322.5 431 322.5 431 339.5 424 c 128,-1,83
 356.5 417 356.5 417 379.5 413 c 128,-1,84
 402.5 409 402.5 409 428.5 409 c 0,85,86
 455.5 409 455.5 409 478 413 c 128,-1,87
 500.5 417 500.5 417 517.5 424 c 128,-1,88
 534.5 431 534.5 431 544 440.5 c 128,-1,89
 553.5 450 553.5 450 553.5 461 c 256,90,91
 553.5 472 553.5 472 544 481.5 c 128,-1,92
 534.5 491 534.5 491 517.5 498 c 128,-1,93
 500.5 505 500.5 505 478 509 c 128,-1,94
 455.5 513 455.5 513 428.5 513 c 0,95,96
 402.5 513 402.5 513 379.5 509 c 128,-1,97
 356.5 505 356.5 505 339.5 498 c 128,-1,98
 322.5 491 322.5 491 313 481.5 c 128,-1,99
 303.5 472 303.5 472 303.5 461 c 256,80,81
223.5 648 m 256,100,101
 223.5 665 223.5 665 239 680.5 c 128,-1,102
 254.5 696 254.5 696 282.5 707 c 128,-1,103
 310.5 718 310.5 718 348 724.5 c 128,-1,104
 385.5 731 385.5 731 428.5 731 c 0,105,106
 472.5 731 472.5 731 510 724.5 c 128,-1,107
 547.5 718 547.5 718 575 707 c 128,-1,108
 602.5 696 602.5 696 618.5 680.5 c 128,-1,109
 634.5 665 634.5 665 634.5 648 c 256,110,111
 634.5 631 634.5 631 618.5 616 c 128,-1,112
 602.5 601 602.5 601 575 589.5 c 128,-1,113
 547.5 578 547.5 578 510 571.5 c 128,-1,114
 472.5 565 472.5 565 428.5 565 c 0,115,116
 385.5 565 385.5 565 348 571.5 c 128,-1,117
 310.5 578 310.5 578 282.5 589.5 c 128,-1,118
 254.5 601 254.5 601 239 616 c 128,-1,119
 223.5 631 223.5 631 223.5 648 c 256,100,101
EndSplineSet
EndChar

StartChar: uni008A
Encoding: 138 138 107
Width: 858
Flags: W
LayerCount: 2
Fore
SplineSet
223.5 85 m 0,0,1
 223.5 103 223.5 103 239 118 c 128,-1,2
 254.5 133 254.5 133 282.5 144.5 c 128,-1,3
 310.5 156 310.5 156 348 162.5 c 128,-1,4
 385.5 169 385.5 169 428.5 169 c 0,5,6
 472.5 169 472.5 169 510 162.5 c 128,-1,7
 547.5 156 547.5 156 575 144.5 c 128,-1,8
 602.5 133 602.5 133 618.5 118 c 128,-1,9
 634.5 103 634.5 103 634.5 85 c 0,10,11
 634.5 68 634.5 68 618.5 53 c 128,-1,12
 602.5 38 602.5 38 575 27 c 128,-1,13
 547.5 16 547.5 16 510 9.5 c 128,-1,14
 472.5 3 472.5 3 428.5 3 c 0,15,16
 385.5 3 385.5 3 348 9.5 c 128,-1,17
 310.5 16 310.5 16 282.5 27 c 128,-1,18
 254.5 38 254.5 38 239 53 c 128,-1,19
 223.5 68 223.5 68 223.5 85 c 0,0,1
303.5 85 m 256,20,21
 303.5 74 303.5 74 313 64.5 c 128,-1,22
 322.5 55 322.5 55 339.5 48.5 c 128,-1,23
 356.5 42 356.5 42 379.5 38 c 128,-1,24
 402.5 34 402.5 34 428.5 34 c 0,25,26
 455.5 34 455.5 34 478 38 c 128,-1,27
 500.5 42 500.5 42 517.5 48.5 c 128,-1,28
 534.5 55 534.5 55 544 64.5 c 128,-1,29
 553.5 74 553.5 74 553.5 85 c 256,30,31
 553.5 96 553.5 96 544 105.5 c 128,-1,32
 534.5 115 534.5 115 517.5 122 c 128,-1,33
 500.5 129 500.5 129 478 133 c 128,-1,34
 455.5 137 455.5 137 428.5 137 c 0,35,36
 402.5 137 402.5 137 379.5 133 c 128,-1,37
 356.5 129 356.5 129 339.5 122 c 128,-1,38
 322.5 115 322.5 115 313 105.5 c 128,-1,39
 303.5 96 303.5 96 303.5 85 c 256,20,21
223.5 272 m 0,40,41
 223.5 290 223.5 290 239 305 c 128,-1,42
 254.5 320 254.5 320 282.5 331.5 c 128,-1,43
 310.5 343 310.5 343 348 349 c 128,-1,44
 385.5 355 385.5 355 428.5 355 c 0,45,46
 472.5 355 472.5 355 510 349 c 128,-1,47
 547.5 343 547.5 343 575 331.5 c 128,-1,48
 602.5 320 602.5 320 618.5 305 c 128,-1,49
 634.5 290 634.5 290 634.5 272 c 0,50,51
 634.5 255 634.5 255 618.5 240 c 128,-1,52
 602.5 225 602.5 225 575 214 c 128,-1,53
 547.5 203 547.5 203 510 196 c 128,-1,54
 472.5 189 472.5 189 428.5 189 c 0,55,56
 385.5 189 385.5 189 348 196 c 128,-1,57
 310.5 203 310.5 203 282.5 214 c 128,-1,58
 254.5 225 254.5 225 239 240 c 128,-1,59
 223.5 255 223.5 255 223.5 272 c 0,40,41
223.5 461 m 256,60,61
 223.5 478 223.5 478 239 493.5 c 128,-1,62
 254.5 509 254.5 509 282.5 520 c 128,-1,63
 310.5 531 310.5 531 348 537.5 c 128,-1,64
 385.5 544 385.5 544 428.5 544 c 0,65,66
 472.5 544 472.5 544 510 537.5 c 128,-1,67
 547.5 531 547.5 531 575 520 c 128,-1,68
 602.5 509 602.5 509 618.5 493.5 c 128,-1,69
 634.5 478 634.5 478 634.5 461 c 256,70,71
 634.5 444 634.5 444 618.5 429 c 128,-1,72
 602.5 414 602.5 414 575 402.5 c 128,-1,73
 547.5 391 547.5 391 510 384.5 c 128,-1,74
 472.5 378 472.5 378 428.5 378 c 0,75,76
 385.5 378 385.5 378 348 384.5 c 128,-1,77
 310.5 391 310.5 391 282.5 402.5 c 128,-1,78
 254.5 414 254.5 414 239 429 c 128,-1,79
 223.5 444 223.5 444 223.5 461 c 256,60,61
303.5 461 m 256,80,81
 303.5 450 303.5 450 313 440.5 c 128,-1,82
 322.5 431 322.5 431 339.5 424 c 128,-1,83
 356.5 417 356.5 417 379.5 413 c 128,-1,84
 402.5 409 402.5 409 428.5 409 c 0,85,86
 455.5 409 455.5 409 478 413 c 128,-1,87
 500.5 417 500.5 417 517.5 424 c 128,-1,88
 534.5 431 534.5 431 544 440.5 c 128,-1,89
 553.5 450 553.5 450 553.5 461 c 256,90,91
 553.5 472 553.5 472 544 481.5 c 128,-1,92
 534.5 491 534.5 491 517.5 498 c 128,-1,93
 500.5 505 500.5 505 478 509 c 128,-1,94
 455.5 513 455.5 513 428.5 513 c 0,95,96
 402.5 513 402.5 513 379.5 509 c 128,-1,97
 356.5 505 356.5 505 339.5 498 c 128,-1,98
 322.5 491 322.5 491 313 481.5 c 128,-1,99
 303.5 472 303.5 472 303.5 461 c 256,80,81
223.5 648 m 256,100,101
 223.5 665 223.5 665 239 680.5 c 128,-1,102
 254.5 696 254.5 696 282.5 707 c 128,-1,103
 310.5 718 310.5 718 348 724.5 c 128,-1,104
 385.5 731 385.5 731 428.5 731 c 0,105,106
 472.5 731 472.5 731 510 724.5 c 128,-1,107
 547.5 718 547.5 718 575 707 c 128,-1,108
 602.5 696 602.5 696 618.5 680.5 c 128,-1,109
 634.5 665 634.5 665 634.5 648 c 256,110,111
 634.5 631 634.5 631 618.5 616 c 128,-1,112
 602.5 601 602.5 601 575 589.5 c 128,-1,113
 547.5 578 547.5 578 510 571.5 c 128,-1,114
 472.5 565 472.5 565 428.5 565 c 0,115,116
 385.5 565 385.5 565 348 571.5 c 128,-1,117
 310.5 578 310.5 578 282.5 589.5 c 128,-1,118
 254.5 601 254.5 601 239 616 c 128,-1,119
 223.5 631 223.5 631 223.5 648 c 256,100,101
EndSplineSet
EndChar

StartChar: uni008B
Encoding: 139 139 108
Width: 858
Flags: W
LayerCount: 2
Fore
SplineSet
223.5 85 m 0,0,1
 223.5 103 223.5 103 239 118 c 128,-1,2
 254.5 133 254.5 133 282.5 144.5 c 128,-1,3
 310.5 156 310.5 156 348 162.5 c 128,-1,4
 385.5 169 385.5 169 428.5 169 c 0,5,6
 472.5 169 472.5 169 510 162.5 c 128,-1,7
 547.5 156 547.5 156 575 144.5 c 128,-1,8
 602.5 133 602.5 133 618.5 118 c 128,-1,9
 634.5 103 634.5 103 634.5 85 c 0,10,11
 634.5 68 634.5 68 618.5 53 c 128,-1,12
 602.5 38 602.5 38 575 27 c 128,-1,13
 547.5 16 547.5 16 510 9.5 c 128,-1,14
 472.5 3 472.5 3 428.5 3 c 0,15,16
 385.5 3 385.5 3 348 9.5 c 128,-1,17
 310.5 16 310.5 16 282.5 27 c 128,-1,18
 254.5 38 254.5 38 239 53 c 128,-1,19
 223.5 68 223.5 68 223.5 85 c 0,0,1
223.5 272 m 0,20,21
 223.5 290 223.5 290 239 305 c 128,-1,22
 254.5 320 254.5 320 282.5 331.5 c 128,-1,23
 310.5 343 310.5 343 348 349 c 128,-1,24
 385.5 355 385.5 355 428.5 355 c 0,25,26
 472.5 355 472.5 355 510 349 c 128,-1,27
 547.5 343 547.5 343 575 331.5 c 128,-1,28
 602.5 320 602.5 320 618.5 305 c 128,-1,29
 634.5 290 634.5 290 634.5 272 c 0,30,31
 634.5 255 634.5 255 618.5 240 c 128,-1,32
 602.5 225 602.5 225 575 214 c 128,-1,33
 547.5 203 547.5 203 510 196 c 128,-1,34
 472.5 189 472.5 189 428.5 189 c 0,35,36
 385.5 189 385.5 189 348 196 c 128,-1,37
 310.5 203 310.5 203 282.5 214 c 128,-1,38
 254.5 225 254.5 225 239 240 c 128,-1,39
 223.5 255 223.5 255 223.5 272 c 0,20,21
223.5 461 m 256,40,41
 223.5 478 223.5 478 239 493.5 c 128,-1,42
 254.5 509 254.5 509 282.5 520 c 128,-1,43
 310.5 531 310.5 531 348 537.5 c 128,-1,44
 385.5 544 385.5 544 428.5 544 c 0,45,46
 472.5 544 472.5 544 510 537.5 c 128,-1,47
 547.5 531 547.5 531 575 520 c 128,-1,48
 602.5 509 602.5 509 618.5 493.5 c 128,-1,49
 634.5 478 634.5 478 634.5 461 c 256,50,51
 634.5 444 634.5 444 618.5 429 c 128,-1,52
 602.5 414 602.5 414 575 402.5 c 128,-1,53
 547.5 391 547.5 391 510 384.5 c 128,-1,54
 472.5 378 472.5 378 428.5 378 c 0,55,56
 385.5 378 385.5 378 348 384.5 c 128,-1,57
 310.5 391 310.5 391 282.5 402.5 c 128,-1,58
 254.5 414 254.5 414 239 429 c 128,-1,59
 223.5 444 223.5 444 223.5 461 c 256,40,41
303.5 461 m 256,60,61
 303.5 450 303.5 450 313 440.5 c 128,-1,62
 322.5 431 322.5 431 339.5 424 c 128,-1,63
 356.5 417 356.5 417 379.5 413 c 128,-1,64
 402.5 409 402.5 409 428.5 409 c 0,65,66
 455.5 409 455.5 409 478 413 c 128,-1,67
 500.5 417 500.5 417 517.5 424 c 128,-1,68
 534.5 431 534.5 431 544 440.5 c 128,-1,69
 553.5 450 553.5 450 553.5 461 c 256,70,71
 553.5 472 553.5 472 544 481.5 c 128,-1,72
 534.5 491 534.5 491 517.5 498 c 128,-1,73
 500.5 505 500.5 505 478 509 c 128,-1,74
 455.5 513 455.5 513 428.5 513 c 0,75,76
 402.5 513 402.5 513 379.5 509 c 128,-1,77
 356.5 505 356.5 505 339.5 498 c 128,-1,78
 322.5 491 322.5 491 313 481.5 c 128,-1,79
 303.5 472 303.5 472 303.5 461 c 256,60,61
223.5 648 m 256,80,81
 223.5 665 223.5 665 239 680.5 c 128,-1,82
 254.5 696 254.5 696 282.5 707 c 128,-1,83
 310.5 718 310.5 718 348 724.5 c 128,-1,84
 385.5 731 385.5 731 428.5 731 c 0,85,86
 472.5 731 472.5 731 510 724.5 c 128,-1,87
 547.5 718 547.5 718 575 707 c 128,-1,88
 602.5 696 602.5 696 618.5 680.5 c 128,-1,89
 634.5 665 634.5 665 634.5 648 c 256,90,91
 634.5 631 634.5 631 618.5 616 c 128,-1,92
 602.5 601 602.5 601 575 589.5 c 128,-1,93
 547.5 578 547.5 578 510 571.5 c 128,-1,94
 472.5 565 472.5 565 428.5 565 c 0,95,96
 385.5 565 385.5 565 348 571.5 c 128,-1,97
 310.5 578 310.5 578 282.5 589.5 c 128,-1,98
 254.5 601 254.5 601 239 616 c 128,-1,99
 223.5 631 223.5 631 223.5 648 c 256,80,81
EndSplineSet
EndChar

StartChar: uni008C
Encoding: 140 140 109
Width: 858
Flags: W
LayerCount: 2
Fore
SplineSet
223.5 85 m 0,0,1
 223.5 103 223.5 103 239 118 c 128,-1,2
 254.5 133 254.5 133 282.5 144.5 c 128,-1,3
 310.5 156 310.5 156 348 162.5 c 128,-1,4
 385.5 169 385.5 169 428.5 169 c 0,5,6
 472.5 169 472.5 169 510 162.5 c 128,-1,7
 547.5 156 547.5 156 575 144.5 c 128,-1,8
 602.5 133 602.5 133 618.5 118 c 128,-1,9
 634.5 103 634.5 103 634.5 85 c 0,10,11
 634.5 68 634.5 68 618.5 53 c 128,-1,12
 602.5 38 602.5 38 575 27 c 128,-1,13
 547.5 16 547.5 16 510 9.5 c 128,-1,14
 472.5 3 472.5 3 428.5 3 c 0,15,16
 385.5 3 385.5 3 348 9.5 c 128,-1,17
 310.5 16 310.5 16 282.5 27 c 128,-1,18
 254.5 38 254.5 38 239 53 c 128,-1,19
 223.5 68 223.5 68 223.5 85 c 0,0,1
303.5 85 m 256,20,21
 303.5 74 303.5 74 313 64.5 c 128,-1,22
 322.5 55 322.5 55 339.5 48.5 c 128,-1,23
 356.5 42 356.5 42 379.5 38 c 128,-1,24
 402.5 34 402.5 34 428.5 34 c 0,25,26
 455.5 34 455.5 34 478 38 c 128,-1,27
 500.5 42 500.5 42 517.5 48.5 c 128,-1,28
 534.5 55 534.5 55 544 64.5 c 128,-1,29
 553.5 74 553.5 74 553.5 85 c 256,30,31
 553.5 96 553.5 96 544 105.5 c 128,-1,32
 534.5 115 534.5 115 517.5 122 c 128,-1,33
 500.5 129 500.5 129 478 133 c 128,-1,34
 455.5 137 455.5 137 428.5 137 c 0,35,36
 402.5 137 402.5 137 379.5 133 c 128,-1,37
 356.5 129 356.5 129 339.5 122 c 128,-1,38
 322.5 115 322.5 115 313 105.5 c 128,-1,39
 303.5 96 303.5 96 303.5 85 c 256,20,21
223.5 272 m 0,40,41
 223.5 290 223.5 290 239 305 c 128,-1,42
 254.5 320 254.5 320 282.5 331.5 c 128,-1,43
 310.5 343 310.5 343 348 349 c 128,-1,44
 385.5 355 385.5 355 428.5 355 c 0,45,46
 472.5 355 472.5 355 510 349 c 128,-1,47
 547.5 343 547.5 343 575 331.5 c 128,-1,48
 602.5 320 602.5 320 618.5 305 c 128,-1,49
 634.5 290 634.5 290 634.5 272 c 0,50,51
 634.5 255 634.5 255 618.5 240 c 128,-1,52
 602.5 225 602.5 225 575 214 c 128,-1,53
 547.5 203 547.5 203 510 196 c 128,-1,54
 472.5 189 472.5 189 428.5 189 c 0,55,56
 385.5 189 385.5 189 348 196 c 128,-1,57
 310.5 203 310.5 203 282.5 214 c 128,-1,58
 254.5 225 254.5 225 239 240 c 128,-1,59
 223.5 255 223.5 255 223.5 272 c 0,40,41
303.5 272 m 256,60,61
 303.5 261 303.5 261 313 251.5 c 128,-1,62
 322.5 242 322.5 242 339.5 235 c 128,-1,63
 356.5 228 356.5 228 379.5 224 c 128,-1,64
 402.5 220 402.5 220 428.5 220 c 0,65,66
 455.5 220 455.5 220 478 224 c 128,-1,67
 500.5 228 500.5 228 517.5 235 c 128,-1,68
 534.5 242 534.5 242 544 251.5 c 128,-1,69
 553.5 261 553.5 261 553.5 272 c 256,70,71
 553.5 283 553.5 283 544 292.5 c 128,-1,72
 534.5 302 534.5 302 517.5 309 c 128,-1,73
 500.5 316 500.5 316 478 320 c 128,-1,74
 455.5 324 455.5 324 428.5 324 c 0,75,76
 402.5 324 402.5 324 379.5 320 c 128,-1,77
 356.5 316 356.5 316 339.5 309 c 128,-1,78
 322.5 302 322.5 302 313 292.5 c 128,-1,79
 303.5 283 303.5 283 303.5 272 c 256,60,61
223.5 461 m 256,80,81
 223.5 478 223.5 478 239 493.5 c 128,-1,82
 254.5 509 254.5 509 282.5 520 c 128,-1,83
 310.5 531 310.5 531 348 537.5 c 128,-1,84
 385.5 544 385.5 544 428.5 544 c 0,85,86
 472.5 544 472.5 544 510 537.5 c 128,-1,87
 547.5 531 547.5 531 575 520 c 128,-1,88
 602.5 509 602.5 509 618.5 493.5 c 128,-1,89
 634.5 478 634.5 478 634.5 461 c 256,90,91
 634.5 444 634.5 444 618.5 429 c 128,-1,92
 602.5 414 602.5 414 575 402.5 c 128,-1,93
 547.5 391 547.5 391 510 384.5 c 128,-1,94
 472.5 378 472.5 378 428.5 378 c 0,95,96
 385.5 378 385.5 378 348 384.5 c 128,-1,97
 310.5 391 310.5 391 282.5 402.5 c 128,-1,98
 254.5 414 254.5 414 239 429 c 128,-1,99
 223.5 444 223.5 444 223.5 461 c 256,80,81
223.5 648 m 256,100,101
 223.5 665 223.5 665 239 680.5 c 128,-1,102
 254.5 696 254.5 696 282.5 707 c 128,-1,103
 310.5 718 310.5 718 348 724.5 c 128,-1,104
 385.5 731 385.5 731 428.5 731 c 0,105,106
 472.5 731 472.5 731 510 724.5 c 128,-1,107
 547.5 718 547.5 718 575 707 c 128,-1,108
 602.5 696 602.5 696 618.5 680.5 c 128,-1,109
 634.5 665 634.5 665 634.5 648 c 256,110,111
 634.5 631 634.5 631 618.5 616 c 128,-1,112
 602.5 601 602.5 601 575 589.5 c 128,-1,113
 547.5 578 547.5 578 510 571.5 c 128,-1,114
 472.5 565 472.5 565 428.5 565 c 0,115,116
 385.5 565 385.5 565 348 571.5 c 128,-1,117
 310.5 578 310.5 578 282.5 589.5 c 128,-1,118
 254.5 601 254.5 601 239 616 c 128,-1,119
 223.5 631 223.5 631 223.5 648 c 256,100,101
EndSplineSet
EndChar

StartChar: uni008D
Encoding: 141 141 110
Width: 858
Flags: W
LayerCount: 2
Fore
SplineSet
223.5 85 m 0,0,1
 223.5 103 223.5 103 239 118 c 128,-1,2
 254.5 133 254.5 133 282.5 144.5 c 128,-1,3
 310.5 156 310.5 156 348 162.5 c 128,-1,4
 385.5 169 385.5 169 428.5 169 c 0,5,6
 472.5 169 472.5 169 510 162.5 c 128,-1,7
 547.5 156 547.5 156 575 144.5 c 128,-1,8
 602.5 133 602.5 133 618.5 118 c 128,-1,9
 634.5 103 634.5 103 634.5 85 c 0,10,11
 634.5 68 634.5 68 618.5 53 c 128,-1,12
 602.5 38 602.5 38 575 27 c 128,-1,13
 547.5 16 547.5 16 510 9.5 c 128,-1,14
 472.5 3 472.5 3 428.5 3 c 0,15,16
 385.5 3 385.5 3 348 9.5 c 128,-1,17
 310.5 16 310.5 16 282.5 27 c 128,-1,18
 254.5 38 254.5 38 239 53 c 128,-1,19
 223.5 68 223.5 68 223.5 85 c 0,0,1
223.5 272 m 0,20,21
 223.5 290 223.5 290 239 305 c 128,-1,22
 254.5 320 254.5 320 282.5 331.5 c 128,-1,23
 310.5 343 310.5 343 348 349 c 128,-1,24
 385.5 355 385.5 355 428.5 355 c 0,25,26
 472.5 355 472.5 355 510 349 c 128,-1,27
 547.5 343 547.5 343 575 331.5 c 128,-1,28
 602.5 320 602.5 320 618.5 305 c 128,-1,29
 634.5 290 634.5 290 634.5 272 c 0,30,31
 634.5 255 634.5 255 618.5 240 c 128,-1,32
 602.5 225 602.5 225 575 214 c 128,-1,33
 547.5 203 547.5 203 510 196 c 128,-1,34
 472.5 189 472.5 189 428.5 189 c 0,35,36
 385.5 189 385.5 189 348 196 c 128,-1,37
 310.5 203 310.5 203 282.5 214 c 128,-1,38
 254.5 225 254.5 225 239 240 c 128,-1,39
 223.5 255 223.5 255 223.5 272 c 0,20,21
303.5 272 m 256,40,41
 303.5 261 303.5 261 313 251.5 c 128,-1,42
 322.5 242 322.5 242 339.5 235 c 128,-1,43
 356.5 228 356.5 228 379.5 224 c 128,-1,44
 402.5 220 402.5 220 428.5 220 c 0,45,46
 455.5 220 455.5 220 478 224 c 128,-1,47
 500.5 228 500.5 228 517.5 235 c 128,-1,48
 534.5 242 534.5 242 544 251.5 c 128,-1,49
 553.5 261 553.5 261 553.5 272 c 256,50,51
 553.5 283 553.5 283 544 292.5 c 128,-1,52
 534.5 302 534.5 302 517.5 309 c 128,-1,53
 500.5 316 500.5 316 478 320 c 128,-1,54
 455.5 324 455.5 324 428.5 324 c 0,55,56
 402.5 324 402.5 324 379.5 320 c 128,-1,57
 356.5 316 356.5 316 339.5 309 c 128,-1,58
 322.5 302 322.5 302 313 292.5 c 128,-1,59
 303.5 283 303.5 283 303.5 272 c 256,40,41
223.5 461 m 256,60,61
 223.5 478 223.5 478 239 493.5 c 128,-1,62
 254.5 509 254.5 509 282.5 520 c 128,-1,63
 310.5 531 310.5 531 348 537.5 c 128,-1,64
 385.5 544 385.5 544 428.5 544 c 0,65,66
 472.5 544 472.5 544 510 537.5 c 128,-1,67
 547.5 531 547.5 531 575 520 c 128,-1,68
 602.5 509 602.5 509 618.5 493.5 c 128,-1,69
 634.5 478 634.5 478 634.5 461 c 256,70,71
 634.5 444 634.5 444 618.5 429 c 128,-1,72
 602.5 414 602.5 414 575 402.5 c 128,-1,73
 547.5 391 547.5 391 510 384.5 c 128,-1,74
 472.5 378 472.5 378 428.5 378 c 0,75,76
 385.5 378 385.5 378 348 384.5 c 128,-1,77
 310.5 391 310.5 391 282.5 402.5 c 128,-1,78
 254.5 414 254.5 414 239 429 c 128,-1,79
 223.5 444 223.5 444 223.5 461 c 256,60,61
223.5 648 m 256,80,81
 223.5 665 223.5 665 239 680.5 c 128,-1,82
 254.5 696 254.5 696 282.5 707 c 128,-1,83
 310.5 718 310.5 718 348 724.5 c 128,-1,84
 385.5 731 385.5 731 428.5 731 c 0,85,86
 472.5 731 472.5 731 510 724.5 c 128,-1,87
 547.5 718 547.5 718 575 707 c 128,-1,88
 602.5 696 602.5 696 618.5 680.5 c 128,-1,89
 634.5 665 634.5 665 634.5 648 c 256,90,91
 634.5 631 634.5 631 618.5 616 c 128,-1,92
 602.5 601 602.5 601 575 589.5 c 128,-1,93
 547.5 578 547.5 578 510 571.5 c 128,-1,94
 472.5 565 472.5 565 428.5 565 c 0,95,96
 385.5 565 385.5 565 348 571.5 c 128,-1,97
 310.5 578 310.5 578 282.5 589.5 c 128,-1,98
 254.5 601 254.5 601 239 616 c 128,-1,99
 223.5 631 223.5 631 223.5 648 c 256,80,81
EndSplineSet
EndChar

StartChar: uni008E
Encoding: 142 142 111
Width: 858
Flags: W
LayerCount: 2
Fore
SplineSet
223.5 85 m 0,0,1
 223.5 103 223.5 103 239 118 c 128,-1,2
 254.5 133 254.5 133 282.5 144.5 c 128,-1,3
 310.5 156 310.5 156 348 162.5 c 128,-1,4
 385.5 169 385.5 169 428.5 169 c 0,5,6
 472.5 169 472.5 169 510 162.5 c 128,-1,7
 547.5 156 547.5 156 575 144.5 c 128,-1,8
 602.5 133 602.5 133 618.5 118 c 128,-1,9
 634.5 103 634.5 103 634.5 85 c 0,10,11
 634.5 68 634.5 68 618.5 53 c 128,-1,12
 602.5 38 602.5 38 575 27 c 128,-1,13
 547.5 16 547.5 16 510 9.5 c 128,-1,14
 472.5 3 472.5 3 428.5 3 c 0,15,16
 385.5 3 385.5 3 348 9.5 c 128,-1,17
 310.5 16 310.5 16 282.5 27 c 128,-1,18
 254.5 38 254.5 38 239 53 c 128,-1,19
 223.5 68 223.5 68 223.5 85 c 0,0,1
303.5 85 m 256,20,21
 303.5 74 303.5 74 313 64.5 c 128,-1,22
 322.5 55 322.5 55 339.5 48.5 c 128,-1,23
 356.5 42 356.5 42 379.5 38 c 128,-1,24
 402.5 34 402.5 34 428.5 34 c 0,25,26
 455.5 34 455.5 34 478 38 c 128,-1,27
 500.5 42 500.5 42 517.5 48.5 c 128,-1,28
 534.5 55 534.5 55 544 64.5 c 128,-1,29
 553.5 74 553.5 74 553.5 85 c 256,30,31
 553.5 96 553.5 96 544 105.5 c 128,-1,32
 534.5 115 534.5 115 517.5 122 c 128,-1,33
 500.5 129 500.5 129 478 133 c 128,-1,34
 455.5 137 455.5 137 428.5 137 c 0,35,36
 402.5 137 402.5 137 379.5 133 c 128,-1,37
 356.5 129 356.5 129 339.5 122 c 128,-1,38
 322.5 115 322.5 115 313 105.5 c 128,-1,39
 303.5 96 303.5 96 303.5 85 c 256,20,21
223.5 272 m 0,40,41
 223.5 290 223.5 290 239 305 c 128,-1,42
 254.5 320 254.5 320 282.5 331.5 c 128,-1,43
 310.5 343 310.5 343 348 349 c 128,-1,44
 385.5 355 385.5 355 428.5 355 c 0,45,46
 472.5 355 472.5 355 510 349 c 128,-1,47
 547.5 343 547.5 343 575 331.5 c 128,-1,48
 602.5 320 602.5 320 618.5 305 c 128,-1,49
 634.5 290 634.5 290 634.5 272 c 0,50,51
 634.5 255 634.5 255 618.5 240 c 128,-1,52
 602.5 225 602.5 225 575 214 c 128,-1,53
 547.5 203 547.5 203 510 196 c 128,-1,54
 472.5 189 472.5 189 428.5 189 c 0,55,56
 385.5 189 385.5 189 348 196 c 128,-1,57
 310.5 203 310.5 203 282.5 214 c 128,-1,58
 254.5 225 254.5 225 239 240 c 128,-1,59
 223.5 255 223.5 255 223.5 272 c 0,40,41
223.5 461 m 256,60,61
 223.5 478 223.5 478 239 493.5 c 128,-1,62
 254.5 509 254.5 509 282.5 520 c 128,-1,63
 310.5 531 310.5 531 348 537.5 c 128,-1,64
 385.5 544 385.5 544 428.5 544 c 0,65,66
 472.5 544 472.5 544 510 537.5 c 128,-1,67
 547.5 531 547.5 531 575 520 c 128,-1,68
 602.5 509 602.5 509 618.5 493.5 c 128,-1,69
 634.5 478 634.5 478 634.5 461 c 256,70,71
 634.5 444 634.5 444 618.5 429 c 128,-1,72
 602.5 414 602.5 414 575 402.5 c 128,-1,73
 547.5 391 547.5 391 510 384.5 c 128,-1,74
 472.5 378 472.5 378 428.5 378 c 0,75,76
 385.5 378 385.5 378 348 384.5 c 128,-1,77
 310.5 391 310.5 391 282.5 402.5 c 128,-1,78
 254.5 414 254.5 414 239 429 c 128,-1,79
 223.5 444 223.5 444 223.5 461 c 256,60,61
223.5 648 m 256,80,81
 223.5 665 223.5 665 239 680.5 c 128,-1,82
 254.5 696 254.5 696 282.5 707 c 128,-1,83
 310.5 718 310.5 718 348 724.5 c 128,-1,84
 385.5 731 385.5 731 428.5 731 c 0,85,86
 472.5 731 472.5 731 510 724.5 c 128,-1,87
 547.5 718 547.5 718 575 707 c 128,-1,88
 602.5 696 602.5 696 618.5 680.5 c 128,-1,89
 634.5 665 634.5 665 634.5 648 c 256,90,91
 634.5 631 634.5 631 618.5 616 c 128,-1,92
 602.5 601 602.5 601 575 589.5 c 128,-1,93
 547.5 578 547.5 578 510 571.5 c 128,-1,94
 472.5 565 472.5 565 428.5 565 c 0,95,96
 385.5 565 385.5 565 348 571.5 c 128,-1,97
 310.5 578 310.5 578 282.5 589.5 c 128,-1,98
 254.5 601 254.5 601 239 616 c 128,-1,99
 223.5 631 223.5 631 223.5 648 c 256,80,81
EndSplineSet
EndChar

StartChar: uni008F
Encoding: 143 143 112
Width: 858
Flags: W
LayerCount: 2
Fore
SplineSet
223.5 85 m 0,0,1
 223.5 103 223.5 103 239 118 c 128,-1,2
 254.5 133 254.5 133 282.5 144.5 c 128,-1,3
 310.5 156 310.5 156 348 162.5 c 128,-1,4
 385.5 169 385.5 169 428.5 169 c 0,5,6
 472.5 169 472.5 169 510 162.5 c 128,-1,7
 547.5 156 547.5 156 575 144.5 c 128,-1,8
 602.5 133 602.5 133 618.5 118 c 128,-1,9
 634.5 103 634.5 103 634.5 85 c 0,10,11
 634.5 68 634.5 68 618.5 53 c 128,-1,12
 602.5 38 602.5 38 575 27 c 128,-1,13
 547.5 16 547.5 16 510 9.5 c 128,-1,14
 472.5 3 472.5 3 428.5 3 c 0,15,16
 385.5 3 385.5 3 348 9.5 c 128,-1,17
 310.5 16 310.5 16 282.5 27 c 128,-1,18
 254.5 38 254.5 38 239 53 c 128,-1,19
 223.5 68 223.5 68 223.5 85 c 0,0,1
223.5 272 m 0,20,21
 223.5 290 223.5 290 239 305 c 128,-1,22
 254.5 320 254.5 320 282.5 331.5 c 128,-1,23
 310.5 343 310.5 343 348 349 c 128,-1,24
 385.5 355 385.5 355 428.5 355 c 0,25,26
 472.5 355 472.5 355 510 349 c 128,-1,27
 547.5 343 547.5 343 575 331.5 c 128,-1,28
 602.5 320 602.5 320 618.5 305 c 128,-1,29
 634.5 290 634.5 290 634.5 272 c 0,30,31
 634.5 255 634.5 255 618.5 240 c 128,-1,32
 602.5 225 602.5 225 575 214 c 128,-1,33
 547.5 203 547.5 203 510 196 c 128,-1,34
 472.5 189 472.5 189 428.5 189 c 0,35,36
 385.5 189 385.5 189 348 196 c 128,-1,37
 310.5 203 310.5 203 282.5 214 c 128,-1,38
 254.5 225 254.5 225 239 240 c 128,-1,39
 223.5 255 223.5 255 223.5 272 c 0,20,21
223.5 461 m 256,40,41
 223.5 478 223.5 478 239 493.5 c 128,-1,42
 254.5 509 254.5 509 282.5 520 c 128,-1,43
 310.5 531 310.5 531 348 537.5 c 128,-1,44
 385.5 544 385.5 544 428.5 544 c 0,45,46
 472.5 544 472.5 544 510 537.5 c 128,-1,47
 547.5 531 547.5 531 575 520 c 128,-1,48
 602.5 509 602.5 509 618.5 493.5 c 128,-1,49
 634.5 478 634.5 478 634.5 461 c 256,50,51
 634.5 444 634.5 444 618.5 429 c 128,-1,52
 602.5 414 602.5 414 575 402.5 c 128,-1,53
 547.5 391 547.5 391 510 384.5 c 128,-1,54
 472.5 378 472.5 378 428.5 378 c 0,55,56
 385.5 378 385.5 378 348 384.5 c 128,-1,57
 310.5 391 310.5 391 282.5 402.5 c 128,-1,58
 254.5 414 254.5 414 239 429 c 128,-1,59
 223.5 444 223.5 444 223.5 461 c 256,40,41
223.5 648 m 256,60,61
 223.5 665 223.5 665 239 680.5 c 128,-1,62
 254.5 696 254.5 696 282.5 707 c 128,-1,63
 310.5 718 310.5 718 348 724.5 c 128,-1,64
 385.5 731 385.5 731 428.5 731 c 0,65,66
 472.5 731 472.5 731 510 724.5 c 128,-1,67
 547.5 718 547.5 718 575 707 c 128,-1,68
 602.5 696 602.5 696 618.5 680.5 c 128,-1,69
 634.5 665 634.5 665 634.5 648 c 256,70,71
 634.5 631 634.5 631 618.5 616 c 128,-1,72
 602.5 601 602.5 601 575 589.5 c 128,-1,73
 547.5 578 547.5 578 510 571.5 c 128,-1,74
 472.5 565 472.5 565 428.5 565 c 0,75,76
 385.5 565 385.5 565 348 571.5 c 128,-1,77
 310.5 578 310.5 578 282.5 589.5 c 128,-1,78
 254.5 601 254.5 601 239 616 c 128,-1,79
 223.5 631 223.5 631 223.5 648 c 256,60,61
EndSplineSet
EndChar

StartChar: uni0090
Encoding: 144 144 113
Width: 858
Flags: W
LayerCount: 2
Fore
SplineSet
428 -10 m 0,0,1
 313 -10 313 -10 257 87.5 c 128,-1,2
 201 185 201 185 201 358 c 0,3,4
 201 474 201 474 223.5 556 c 128,-1,5
 246 638 246 638 296 681.5 c 128,-1,6
 346 725 346 725 428 725 c 0,7,8
 544 725 544 725 600.5 628.5 c 128,-1,9
 657 532 657 532 657 358 c 0,10,11
 657 271 657 271 644.5 203 c 128,-1,12
 632 135 632 135 605 87.5 c 128,-1,13
 578 40 578 40 534 15 c 128,-1,14
 490 -10 490 -10 428 -10 c 0,0,1
428 66 m 256,15,16
 503 66 503 66 535 138 c 128,-1,17
 567 210 567 210 567 358 c 0,18,19
 567 504 567 504 535 576.5 c 128,-1,20
 503 649 503 649 428 649 c 256,21,22
 353 649 353 649 322 576.5 c 128,-1,23
 291 504 291 504 291 358 c 256,24,25
 291 212 291 212 322 139 c 128,-1,26
 353 66 353 66 428 66 c 256,15,16
EndSplineSet
EndChar

StartChar: uni0091
Encoding: 145 145 114
Width: 858
Flags: W
LayerCount: 2
Fore
SplineSet
473 0 m 1,0,-1
 473 446 l 2,1,2
 473 477 473 477 473.5 507 c 128,-1,3
 474 537 474 537 475 566 c 128,-1,4
 476 595 476 595 477 622 c 1,5,6
 463 606 463 606 447.5 592 c 128,-1,7
 432 578 432 578 418 567 c 2,8,-1
 346 508 l 1,9,-1
 299 568 l 1,10,-1
 486 714 l 1,11,-1
 559 714 l 1,12,-1
 559 0 l 1,13,-1
 473 0 l 1,0,-1
EndSplineSet
EndChar

StartChar: uni0092
Encoding: 146 146 115
Width: 858
Flags: W
LayerCount: 2
Fore
SplineSet
206.5 0 m 1,0,-1
 206.5 76 l 1,1,-1
 377.5 262 l 2,2,3
 429.5 319 429.5 319 464 361.5 c 128,-1,4
 498.5 404 498.5 404 516 443.5 c 128,-1,5
 533.5 483 533.5 483 533.5 530 c 0,6,7
 533.5 587 533.5 587 501.5 618 c 128,-1,8
 469.5 649 469.5 649 418.5 649 c 0,9,10
 374.5 649 374.5 649 337.5 631 c 128,-1,11
 300.5 613 300.5 613 262.5 581 c 1,12,-1
 215.5 640 l 1,13,14
 241.5 664 241.5 664 272 683 c 128,-1,15
 302.5 702 302.5 702 339.5 713 c 128,-1,16
 376.5 724 376.5 724 419.5 724 c 0,17,18
 482.5 724 482.5 724 528 700.5 c 128,-1,19
 573.5 677 573.5 677 598.5 634.5 c 128,-1,20
 623.5 592 623.5 592 623.5 533 c 0,21,22
 623.5 477 623.5 477 602.5 429.5 c 128,-1,23
 581.5 382 581.5 382 543.5 334.5 c 128,-1,24
 505.5 287 505.5 287 452.5 231 c 2,25,-1
 315.5 85 l 1,26,-1
 315.5 81 l 1,27,-1
 651.5 81 l 1,28,-1
 651.5 0 l 1,29,-1
 206.5 0 l 1,0,-1
EndSplineSet
EndChar

StartChar: uni0093
Encoding: 147 147 116
Width: 858
Flags: W
LayerCount: 2
Fore
SplineSet
392.5 -10 m 0,0,1
 338.5 -10 338.5 -10 292.5 -1.5 c 128,-1,2
 246.5 7 246.5 7 203.5 29 c 1,3,-1
 203.5 111 l 1,4,5
 246.5 89 246.5 89 295.5 77 c 128,-1,6
 344.5 65 344.5 65 390.5 65 c 0,7,8
 479.5 65 479.5 65 521.5 102.5 c 128,-1,9
 563.5 140 563.5 140 563.5 205 c 0,10,11
 563.5 248 563.5 248 542 276 c 128,-1,12
 520.5 304 520.5 304 479 318 c 128,-1,13
 437.5 332 437.5 332 377.5 332 c 2,14,-1
 312.5 332 l 1,15,-1
 312.5 406 l 1,16,-1
 377.5 406 l 2,17,18
 457.5 406 457.5 406 499.5 443 c 128,-1,19
 541.5 480 541.5 480 541.5 541 c 0,20,21
 541.5 573 541.5 573 526.5 597.5 c 128,-1,22
 511.5 622 511.5 622 484.5 635.5 c 128,-1,23
 457.5 649 457.5 649 419.5 649 c 0,24,25
 365.5 649 365.5 649 327 632.5 c 128,-1,26
 288.5 616 288.5 616 251.5 590 c 1,27,-1
 206.5 651 l 1,28,29
 243.5 680 243.5 680 297 702 c 128,-1,30
 350.5 724 350.5 724 419.5 724 c 0,31,32
 490.5 724 490.5 724 538 701 c 128,-1,33
 585.5 678 585.5 678 609 638 c 128,-1,34
 632.5 598 632.5 598 632.5 547 c 0,35,36
 632.5 499 632.5 499 613.5 464 c 128,-1,37
 594.5 429 594.5 429 560 407 c 128,-1,38
 525.5 385 525.5 385 478.5 376 c 1,39,-1
 478.5 373 l 1,40,41
 567.5 363 567.5 363 611 317.5 c 128,-1,42
 654.5 272 654.5 272 654.5 203 c 0,43,44
 654.5 141 654.5 141 626.5 92.5 c 128,-1,45
 598.5 44 598.5 44 540.5 17 c 128,-1,46
 482.5 -10 482.5 -10 392.5 -10 c 0,0,1
EndSplineSet
EndChar

StartChar: uni0094
Encoding: 148 148 117
Width: 858
Flags: W
LayerCount: 2
Fore
SplineSet
499 0 m 1,0,-1
 499 160 l 1,1,-1
 169 160 l 1,2,-1
 169 238 l 1,3,-1
 493 718 l 1,4,-1
 585 718 l 1,5,-1
 585 241 l 1,6,-1
 689 241 l 1,7,-1
 689 160 l 1,8,-1
 585 160 l 1,9,-1
 585 0 l 1,10,-1
 499 0 l 1,0,-1
256 241 m 1,11,-1
 499 241 l 1,12,-1
 499 415 l 2,13,14
 499 445 499 445 499.5 474 c 128,-1,15
 500 503 500 503 501 529.5 c 128,-1,16
 502 556 502 556 503 580 c 128,-1,17
 504 604 504 604 505 626 c 1,18,-1
 501 626 l 1,19,20
 491 600 491 600 480 578 c 128,-1,21
 469 556 469 556 457 538 c 2,22,-1
 256 241 l 1,11,-1
EndSplineSet
EndChar

StartChar: uni0095
Encoding: 149 149 118
Width: 858
Flags: W
LayerCount: 2
Fore
SplineSet
387.5 -10 m 0,0,1
 337.5 -10 337.5 -10 291.5 -0.5 c 128,-1,2
 245.5 9 245.5 9 213.5 29 c 1,3,-1
 213.5 113 l 1,4,5
 235.5 98 235.5 98 266 87.5 c 128,-1,6
 296.5 77 296.5 77 329.5 71.5 c 128,-1,7
 362.5 66 362.5 66 389.5 66 c 0,8,9
 466.5 66 466.5 66 510 103 c 128,-1,10
 553.5 140 553.5 140 553.5 219 c 0,11,12
 553.5 290 553.5 290 510.5 326.5 c 128,-1,13
 467.5 363 467.5 363 385.5 363 c 0,14,15
 359.5 363 359.5 363 326 358.5 c 128,-1,16
 292.5 354 292.5 354 272.5 350 c 1,17,-1
 228.5 378 l 1,18,-1
 255.5 714 l 1,19,-1
 592.5 714 l 1,20,-1
 592.5 633 l 1,21,-1
 332.5 633 l 1,22,-1
 313.5 428 l 1,23,24
 329.5 432 329.5 432 357 435 c 128,-1,25
 384.5 438 384.5 438 415.5 438 c 0,26,27
 480.5 438 480.5 438 532 414.5 c 128,-1,28
 583.5 391 583.5 391 614 344.5 c 128,-1,29
 644.5 298 644.5 298 644.5 229 c 0,30,31
 644.5 117 644.5 117 578.5 53.5 c 128,-1,32
 512.5 -10 512.5 -10 387.5 -10 c 0,0,1
EndSplineSet
EndChar

StartChar: uni0096
Encoding: 150 150 119
Width: 858
Flags: W
LayerCount: 2
Fore
SplineSet
437 -10 m 0,0,1
 372 -10 372 -10 319 24 c 128,-1,2
 266 58 266 58 235 128 c 128,-1,3
 204 198 204 198 204 305 c 0,4,5
 204 367 204 367 211.5 427 c 128,-1,6
 219 487 219 487 239 540.5 c 128,-1,7
 259 594 259 594 294 635.5 c 128,-1,8
 329 677 329 677 383.5 700.5 c 128,-1,9
 438 724 438 724 516 724 c 0,10,11
 535 724 535 724 559.5 722 c 128,-1,12
 584 720 584 720 600 715 c 1,13,-1
 600 639 l 1,14,15
 583 645 583 645 561.5 648 c 128,-1,16
 540 651 540 651 519 651 c 0,17,18
 453 651 453 651 410.5 628 c 128,-1,19
 368 605 368 605 343.5 565.5 c 128,-1,20
 319 526 319 526 308 474 c 128,-1,21
 297 422 297 422 295 364 c 1,22,-1
 301 364 l 1,23,24
 321 399 321 399 357 423 c 128,-1,25
 393 447 393 447 451 447 c 0,26,27
 513 447 513 447 558.5 421.5 c 128,-1,28
 604 396 604 396 629 347.5 c 128,-1,29
 654 299 654 299 654 230 c 0,30,31
 654 156 654 156 627.5 102 c 128,-1,32
 601 48 601 48 552.5 19 c 128,-1,33
 504 -10 504 -10 437 -10 c 0,0,1
436 65 m 0,34,35
 495 65 495 65 531.5 105 c 128,-1,36
 568 145 568 145 568 230 c 0,37,38
 568 298 568 298 536 337.5 c 128,-1,39
 504 377 504 377 439 377 c 0,40,41
 395 377 395 377 362 357.5 c 128,-1,42
 329 338 329 338 311 308.5 c 128,-1,43
 293 279 293 279 293 247 c 0,44,45
 293 204 293 204 309 162 c 128,-1,46
 325 120 325 120 357 92.5 c 128,-1,47
 389 65 389 65 436 65 c 0,34,35
EndSplineSet
EndChar

StartChar: uni0097
Encoding: 151 151 120
Width: 858
Flags: W
LayerCount: 2
Fore
SplineSet
292.5 0 m 1,0,-1
 567.5 633 l 1,1,-1
 199.5 633 l 1,2,-1
 199.5 714 l 1,3,-1
 658.5 714 l 1,4,-1
 658.5 643 l 1,5,-1
 387.5 0 l 1,6,-1
 292.5 0 l 1,0,-1
EndSplineSet
EndChar

StartChar: uni0098
Encoding: 152 152 121
Width: 858
Flags: W
LayerCount: 2
Fore
SplineSet
429 -10 m 0,0,1
 322 -10 322 -10 263.5 41.5 c 128,-1,2
 205 93 205 93 205 182 c 0,3,4
 205 231 205 231 223.5 267 c 128,-1,5
 242 303 242 303 273.5 329.5 c 128,-1,6
 305 356 305 356 343 374 c 1,7,8
 311 395 311 395 285 420 c 128,-1,9
 259 445 259 445 243.5 478 c 128,-1,10
 228 511 228 511 228 554 c 0,11,12
 228 611 228 611 256 649 c 128,-1,13
 284 687 284 687 330 706 c 128,-1,14
 376 725 376 725 429 725 c 0,15,16
 484 725 484 725 529.5 706 c 128,-1,17
 575 687 575 687 602.5 649 c 128,-1,18
 630 611 630 611 630 553 c 0,19,20
 630 510 630 510 613 477.5 c 128,-1,21
 596 445 596 445 567.5 421 c 128,-1,22
 539 397 539 397 502 378 c 1,23,24
 540 358 540 358 574.5 331.5 c 128,-1,25
 609 305 609 305 631 269.5 c 128,-1,26
 653 234 653 234 653 186 c 0,27,28
 653 126 653 126 624.5 82 c 128,-1,29
 596 38 596 38 546 14 c 128,-1,30
 496 -10 496 -10 429 -10 c 0,0,1
427 64 m 0,31,32
 496 64 496 64 531 97 c 128,-1,33
 566 130 566 130 566 185 c 0,34,35
 566 233 566 233 529.5 268.5 c 128,-1,36
 493 304 493 304 416 340 c 1,37,38
 375 321 375 321 347.5 297.5 c 128,-1,39
 320 274 320 274 306 245.5 c 128,-1,40
 292 217 292 217 292 181 c 0,41,42
 292 129 292 129 324.5 96.5 c 128,-1,43
 357 64 357 64 427 64 c 0,31,32
430 414 m 1,44,45
 462 429 462 429 487.5 447 c 128,-1,46
 513 465 513 465 528 490 c 128,-1,47
 543 515 543 515 543 550 c 0,48,49
 543 600 543 600 512.5 625.5 c 128,-1,50
 482 651 482 651 428 651 c 0,51,52
 394 651 394 651 368.5 639.5 c 128,-1,53
 343 628 343 628 329 605.5 c 128,-1,54
 315 583 315 583 315 550 c 0,55,56
 315 514 315 514 330 489.5 c 128,-1,57
 345 465 345 465 371 447.5 c 128,-1,58
 397 430 397 430 430 414 c 1,44,45
EndSplineSet
EndChar

StartChar: uni0099
Encoding: 153 153 122
Width: 858
Flags: W
LayerCount: 2
Fore
SplineSet
342 -10 m 0,0,1
 323 -10 323 -10 299 -7.5 c 128,-1,2
 275 -5 275 -5 258 -1 c 1,3,-1
 258 75 l 1,4,5
 275 69 275 69 296.5 66 c 128,-1,6
 318 63 318 63 339 63 c 0,7,8
 405 63 405 63 448 86 c 128,-1,9
 491 109 491 109 515 148.5 c 128,-1,10
 539 188 539 188 550 240 c 128,-1,11
 561 292 561 292 563 350 c 1,12,-1
 557 350 l 1,13,14
 544 327 544 327 523.5 308 c 128,-1,15
 503 289 503 289 474.5 278 c 128,-1,16
 446 267 446 267 407 267 c 0,17,18
 346 267 346 267 300 292.5 c 128,-1,19
 254 318 254 318 229 366.5 c 128,-1,20
 204 415 204 415 204 484 c 0,21,22
 204 559 204 559 230.5 612.5 c 128,-1,23
 257 666 257 666 306 695 c 128,-1,24
 355 724 355 724 421 724 c 256,25,26
 487 724 487 724 539.5 690 c 128,-1,27
 592 656 592 656 623 586 c 128,-1,28
 654 516 654 516 654 409 c 0,29,30
 654 348 654 348 646.5 287.5 c 128,-1,31
 639 227 639 227 619 173.5 c 128,-1,32
 599 120 599 120 564 78.5 c 128,-1,33
 529 37 529 37 474.5 13.5 c 128,-1,34
 420 -10 420 -10 342 -10 c 0,0,1
419 337 m 0,35,36
 463 337 463 337 496 356.5 c 128,-1,37
 529 376 529 376 547 406 c 128,-1,38
 565 436 565 436 565 467 c 0,39,40
 565 500 565 500 556 532 c 128,-1,41
 547 564 547 564 529 590.5 c 128,-1,42
 511 617 511 617 484.5 633 c 128,-1,43
 458 649 458 649 422 649 c 0,44,45
 364 649 364 649 327 609 c 128,-1,46
 290 569 290 569 290 484 c 0,47,48
 290 416 290 416 322.5 376.5 c 128,-1,49
 355 337 355 337 419 337 c 0,35,36
EndSplineSet
EndChar

StartChar: uni009A
Encoding: 154 154 123
Width: 858
Flags: W
LayerCount: 2
Fore
SplineSet
479.5 723 m 0,0,1
 534.5 723 534.5 723 578.5 711 c 128,-1,2
 622.5 699 622.5 699 656.5 682 c 1,3,-1
 625.5 612 l 1,4,5
 595.5 626 595.5 626 559 638 c 128,-1,6
 522.5 650 522.5 650 481.5 650 c 0,7,8
 424.5 650 424.5 650 394.5 620.5 c 128,-1,9
 364.5 591 364.5 591 364.5 525 c 2,10,-1
 364.5 386 l 1,11,-1
 568.5 386 l 1,12,-1
 568.5 320 l 1,13,-1
 364.5 320 l 1,14,-1
 364.5 216 l 2,15,16
 364.5 176 364.5 176 355 149.5 c 128,-1,17
 345.5 123 345.5 123 330 107 c 128,-1,18
 314.5 91 314.5 91 296.5 80 c 1,19,-1
 680.5 80 l 1,20,-1
 680.5 0 l 1,21,-1
 177.5 0 l 1,22,-1
 177.5 74 l 1,23,24
 206.5 81 206.5 81 228.5 97.5 c 128,-1,25
 250.5 114 250.5 114 263.5 142.5 c 128,-1,26
 276.5 171 276.5 171 276.5 215 c 2,27,-1
 276.5 320 l 1,28,-1
 180.5 320 l 1,29,-1
 180.5 386 l 1,30,-1
 276.5 386 l 1,31,-1
 276.5 534 l 2,32,33
 276.5 594 276.5 594 301.5 636 c 128,-1,34
 326.5 678 326.5 678 372.5 700.5 c 128,-1,35
 418.5 723 418.5 723 479.5 723 c 0,0,1
EndSplineSet
EndChar

StartChar: uni009B
Encoding: 155 155 124
Width: 858
Flags: W
LayerCount: 2
Fore
SplineSet
378.5 -8 m 4,0,1
 323.5 -8 323.5 -8 279.5 4 c 132,-1,2
 235.5 16 235.5 16 201.5 33 c 5,3,-1
 232.5 103 l 5,4,5
 262.5 89 262.5 89 299 77 c 132,-1,6
 335.5 65 335.5 65 376.5 65 c 4,7,8
 433.5 65 433.5 65 463.5 94.5 c 132,-1,9
 493.5 124 493.5 124 493.5 190 c 6,10,-1
 493.5 329 l 5,11,-1
 289.5 329 l 5,12,-1
 289.5 395 l 5,13,-1
 493.5 395 l 5,14,-1
 493.5 499 l 6,15,16
 493.5 539 493.5 539 503 565.5 c 132,-1,17
 512.5 592 512.5 592 528 608 c 132,-1,18
 543.5 624 543.5 624 561.5 635 c 5,19,-1
 177.5 635 l 5,20,-1
 177.5 715 l 5,21,-1
 680.5 715 l 5,22,-1
 680.5 641 l 5,23,24
 651.5 634 651.5 634 629.5 617.5 c 132,-1,25
 607.5 601 607.5 601 594.5 572.5 c 132,-1,26
 581.5 544 581.5 544 581.5 500 c 6,27,-1
 581.5 395 l 5,28,-1
 677.5 395 l 5,29,-1
 677.5 329 l 5,30,-1
 581.5 329 l 5,31,-1
 581.5 181 l 6,32,33
 581.5 121 581.5 121 556.5 79 c 132,-1,34
 531.5 37 531.5 37 485.5 14.5 c 132,-1,35
 439.5 -8 439.5 -8 378.5 -8 c 4,0,1
EndSplineSet
EndChar

StartChar: uni009C
Encoding: 156 156 125
Width: 858
Flags: W
LayerCount: 2
Fore
SplineSet
615.5 617 m 0,0,1
 615.5 583 615.5 583 601.5 557.5 c 128,-1,2
 587.5 532 587.5 532 566.5 512.5 c 128,-1,3
 545.5 493 545.5 493 524.5 477 c 128,-1,4
 503.5 461 503.5 461 489.5 445.5 c 128,-1,5
 475.5 430 475.5 430 475.5 412 c 0,6,7
 475.5 399 475.5 399 482 388 c 128,-1,8
 488.5 377 488.5 377 507.5 362.5 c 128,-1,9
 526.5 348 526.5 348 563.5 323 c 0,10,11
 599.5 299 599.5 299 625.5 275 c 128,-1,12
 651.5 251 651.5 251 665.5 222 c 128,-1,13
 679.5 193 679.5 193 679.5 153 c 0,14,15
 679.5 96 679.5 96 656 60 c 128,-1,16
 632.5 24 632.5 24 590.5 7 c 128,-1,17
 548.5 -10 548.5 -10 493.5 -10 c 0,18,19
 446.5 -10 446.5 -10 410.5 -1 c 128,-1,20
 374.5 8 374.5 8 348.5 24 c 1,21,-1
 348.5 103 l 1,22,23
 365.5 93 365.5 93 388.5 83 c 128,-1,24
 411.5 73 411.5 73 438 67 c 128,-1,25
 464.5 61 464.5 61 490.5 61 c 0,26,27
 545.5 61 545.5 61 569.5 84 c 128,-1,28
 593.5 107 593.5 107 593.5 147 c 0,29,30
 593.5 171 593.5 171 585 189.5 c 128,-1,31
 576.5 208 576.5 208 556 226 c 128,-1,32
 535.5 244 535.5 244 499.5 267 c 0,33,34
 457.5 294 457.5 294 434 315.5 c 128,-1,35
 410.5 337 410.5 337 400.5 359 c 128,-1,36
 390.5 381 390.5 381 390.5 407 c 0,37,38
 390.5 438 390.5 438 404 460 c 128,-1,39
 417.5 482 417.5 482 438 498.5 c 128,-1,40
 458.5 515 458.5 515 479 531 c 128,-1,41
 499.5 547 499.5 547 513 566 c 128,-1,42
 526.5 585 526.5 585 526.5 612 c 0,43,44
 526.5 654 526.5 654 491 673 c 128,-1,45
 455.5 692 455.5 692 399.5 692 c 0,46,47
 364.5 692 364.5 692 334 682.5 c 128,-1,48
 303.5 673 303.5 673 285 650 c 128,-1,49
 266.5 627 266.5 627 266.5 584 c 2,50,-1
 266.5 0 l 1,51,-1
 178.5 0 l 1,52,-1
 178.5 584 l 2,53,54
 178.5 651 178.5 651 207.5 690.5 c 128,-1,55
 236.5 730 236.5 730 286.5 747.5 c 128,-1,56
 336.5 765 336.5 765 399.5 765 c 0,57,58
 464.5 765 464.5 765 513 748.5 c 128,-1,59
 561.5 732 561.5 732 588.5 699.5 c 128,-1,60
 615.5 667 615.5 667 615.5 617 c 0,0,1
EndSplineSet
EndChar

StartChar: uni009D
Encoding: 157 157 126
Width: 858
Flags: W
LayerCount: 2
Fore
SplineSet
285 -10 m 0,0,1
 223 -10 223 -10 180.5 24 c 128,-1,2
 138 58 138 58 116 119 c 128,-1,3
 94 180 94 180 94 260 c 0,4,5
 94 322 94 322 105.5 467 c 128,-1,6
 117 612 117 612 136 652 c 5,7,-1
 22 652 l 5,8,-1
 22 725 l 5,9,-1
 836 725 l 5,10,-1
 836 652 l 5,11,-1
 722 652 l 5,12,13
 742 612 742 612 753 467 c 128,-1,14
 764 322 764 322 764 260 c 0,15,16
 764 180 764 180 742 119 c 128,-1,17
 720 58 720 58 677.5 24 c 128,-1,18
 635 -10 635 -10 573 -10 c 0,19,20
 518 -10 518 -10 483 15.5 c 128,-1,21
 448 41 448 41 431 100 c 1,22,-1
 426 100 l 1,23,24
 416 61 416 61 397 36.5 c 128,-1,25
 378 12 378 12 350 1 c 128,-1,26
 322 -10 322 -10 285 -10 c 0,0,1
291 63 m 0,27,28
 324 63 324 63 345.5 80 c 128,-1,29
 367 97 367 97 377 126.5 c 128,-1,30
 387 156 387 156 387 193 c 2,31,-1
 387 344 l 1,32,-1
 471 344 l 1,33,-1
 471 193 l 2,34,35
 471 152 471 152 482.5 122.5 c 128,-1,36
 494 93 494 93 515 78 c 128,-1,37
 536 63 536 63 566 63 c 0,38,39
 600 63 600 63 624.5 85 c 128,-1,40
 649 107 649 107 662.5 151 c 128,-1,41
 676 195 676 195 676 259 c 0,42,43
 676 322 676 322 665 467 c 128,-1,44
 654 612 654 612 634 652 c 5,45,-1
 225 652 l 5,46,47
 206 612 206 612 194 467 c 128,-1,48
 182 322 182 322 182 259 c 0,49,50
 182 162 182 162 212 112.5 c 128,-1,51
 242 63 242 63 291 63 c 0,27,28
EndSplineSet
EndChar

StartChar: uni009E
Encoding: 158 158 127
Width: 858
Flags: W
LayerCount: 2
Fore
SplineSet
628.5 0 m 1,0,-1
 229.5 0 l 1,1,-1
 229.5 714 l 1,2,-1
 628.5 714 l 1,3,-1
 628.5 635 l 1,4,-1
 319.5 635 l 1,5,-1
 319.5 412 l 1,6,-1
 610.5 412 l 1,7,-1
 610.5 334 l 1,8,-1
 319.5 334 l 1,9,-1
 319.5 79 l 1,10,-1
 628.5 79 l 1,11,-1
 628.5 0 l 1,0,-1
EndSplineSet
EndChar

StartChar: uni009F
Encoding: 159 159 128
Width: 858
Flags: W
LayerCount: 2
Fore
SplineSet
319.5 0 m 1,0,-1
 229.5 0 l 1,1,-1
 229.5 714 l 1,2,-1
 628.5 714 l 1,3,-1
 628.5 635 l 1,4,-1
 319.5 635 l 1,5,-1
 319.5 382 l 1,6,-1
 609.5 382 l 1,7,-1
 609.5 303 l 1,8,-1
 319.5 303 l 1,9,-1
 319.5 0 l 1,0,-1
EndSplineSet
EndChar

